<svg width="224" height="31" viewBox="0 0 224 31" fill="none" xmlns="http://www.w3.org/2000/svg">
<path fill-rule="evenodd" clip-rule="evenodd" d="M27.5024 2.69082C34.1164 6.60044 36.4809 13.4429 32.7986 17.9729C29.1036 22.5137 20.7778 23.0286 14.1638 19.1187C7.56224 15.2191 5.19738 8.37683 8.89229 3.83615C12.575 -0.693804 20.9131 -1.2084 27.5024 2.69082ZM18.1174 0C28.1306 0 36.2472 6.92637 36.2472 15.4612C36.2472 24.0064 28.1306 30.9323 18.1174 30.9323C8.11648 30.9323 0 24.0064 0 15.4612C0 6.92637 8.11648 0 18.1174 0Z" fill="#FEFEFE"/>
<path fill-rule="evenodd" clip-rule="evenodd" d="M30.6493 5.05521C29.2431 3.29648 27.1574 1.96489 24.7129 1.33594C25.2887 1.55939 25.8583 1.81333 26.4185 2.0968C27.492 2.56011 28.4629 3.17088 29.2948 3.89789C29.7774 4.26786 30.2291 4.65455 30.6493 5.05521Z" fill="#FEFEFE"/>
<path fill-rule="evenodd" clip-rule="evenodd" d="M31.2019 5.61087C29.6612 3.32871 27.0449 1.64303 23.9434 1.05664C24.3477 1.19391 24.75 1.3462 25.1489 1.51248C27.2292 2.13355 29.0235 3.27269 30.3184 4.74974C30.6289 5.02974 30.9238 5.3171 31.2019 5.61087Z" fill="#FEFEFE"/>
<path fill-rule="evenodd" clip-rule="evenodd" d="M31.691 6.15305C30.9488 4.85111 29.8728 3.71376 28.5581 2.8212C27.6249 2.25951 26.6271 1.77056 25.5756 1.36516C24.8391 1.12384 24.0653 0.945685 23.2637 0.839844C23.6154 0.944634 23.9662 1.05994 24.315 1.18648C27.0932 1.80219 29.4493 3.31298 30.9357 5.33617C31.2013 5.60314 31.4532 5.87568 31.691 6.15305Z" fill="#FEFEFE"/>
<path fill-rule="evenodd" clip-rule="evenodd" d="M32.0717 6.61703C31.5273 5.50164 30.7475 4.49063 29.7847 3.62981C28.1109 2.42824 26.1792 1.47998 24.0699 0.854705C23.5876 0.76074 23.0935 0.693366 22.5898 0.65332C22.9257 0.740033 23.261 0.836412 23.5951 0.942674C27.0018 1.48586 29.8652 3.3394 31.4405 5.86836C31.6624 6.11399 31.8726 6.36383 32.0717 6.61703Z" fill="#FEFEFE"/>
<path fill-rule="evenodd" clip-rule="evenodd" d="M32.4009 7.05118C31.9628 6.00328 31.3229 5.03735 30.5211 4.18715C30.1186 3.865 29.6992 3.55799 29.2635 3.26789C30.3671 4.14332 31.2658 5.20384 31.892 6.39238C32.0699 6.60952 32.2401 6.82909 32.4009 7.05118ZM23.1417 0.602305C22.7729 0.558056 22.3986 0.528522 22.0195 0.514648C22.329 0.584334 22.6386 0.662425 22.9473 0.748612C23.5742 0.815564 24.1849 0.92624 24.7757 1.07644C24.243 0.896915 23.6976 0.738838 23.1417 0.602305Z" fill="#FEFEFE"/>
<path fill-rule="evenodd" clip-rule="evenodd" d="M32.6949 7.47755C32.3386 6.46917 31.8001 5.52858 31.1123 4.68342C30.809 4.4175 30.4947 4.16073 30.1698 3.91394C31.0459 4.7694 31.7507 5.75571 32.2388 6.83389C32.399 7.0462 32.5508 7.26104 32.6949 7.47755ZM22.3508 0.424951C22.0751 0.408345 21.7969 0.399414 21.516 0.399414L21.4688 0.399938C21.7455 0.453436 22.0224 0.51303 22.299 0.579772C22.7324 0.604682 23.1593 0.649774 23.5783 0.714624C23.1752 0.606049 22.7657 0.509667 22.3508 0.424951Z" fill="#FEFEFE"/>
<path fill-rule="evenodd" clip-rule="evenodd" d="M32.978 7.92061C32.689 6.93124 32.229 5.99948 31.6252 5.15012C31.3706 4.90774 31.1074 4.67241 30.8356 4.44423C31.5746 5.29065 32.1585 6.24133 32.5528 7.26569C32.7029 7.4821 32.8444 7.70051 32.978 7.92061ZM21.6565 0.294437C21.6099 0.293911 21.5636 0.292969 21.5171 0.292969C21.3247 0.292969 21.1335 0.297277 20.9434 0.305055C21.2087 0.348464 21.4744 0.397862 21.7401 0.453358C22.073 0.458718 22.4026 0.475536 22.7281 0.504335C22.375 0.425296 22.0177 0.355398 21.6565 0.294437Z" fill="#FEFEFE"/>
<path fill-rule="evenodd" clip-rule="evenodd" d="M33.2102 8.32058C32.977 7.34394 32.5793 6.41827 32.0439 5.56491C31.8227 5.33883 31.5938 5.11821 31.3581 4.90338C32.0041 5.74979 32.5041 6.68471 32.8281 7.68206C32.9629 7.89332 33.0909 8.10627 33.2102 8.32058ZM20.9615 0.19043C20.77 0.198102 20.5797 0.209556 20.3906 0.224692C20.6607 0.260323 20.9316 0.302786 21.2025 0.351029C21.3068 0.348717 21.4115 0.347457 21.5165 0.347457C21.6771 0.347457 21.8366 0.350927 21.9956 0.356392C21.6543 0.292908 21.3097 0.237202 20.9615 0.19043Z" fill="#FEFEFE"/>
<path fill-rule="evenodd" clip-rule="evenodd" d="M33.4192 8.71291C33.2361 7.74215 32.8944 6.81712 32.4169 5.95756C32.2282 5.75134 32.0339 5.54902 31.8335 5.35142C32.4052 6.20456 32.8352 7.13548 33.0968 8.12106C33.2109 8.31719 33.3183 8.51458 33.4192 8.71291ZM20.3793 0.119141C20.218 0.132174 20.0577 0.147621 19.8984 0.16591C20.1624 0.193342 20.4269 0.226243 20.6922 0.265868C20.9063 0.25336 21.1219 0.246004 21.3388 0.243061C21.0218 0.194607 20.7018 0.153405 20.3793 0.119141Z" fill="#FEFEFE"/>
<path fill-rule="evenodd" clip-rule="evenodd" d="M33.6081 9.10171C33.4707 8.13148 33.177 7.20234 32.7487 6.33343C32.5834 6.14099 32.4129 5.95211 32.2376 5.7666C32.7422 6.62216 33.1105 7.54625 33.3179 8.51837C33.4209 8.71187 33.5178 8.90632 33.6081 9.10171ZM19.8275 0.0693359C19.691 0.0855222 19.5549 0.103392 19.4199 0.123362C19.6598 0.141755 19.9008 0.165404 20.1422 0.193887C20.3141 0.17707 20.487 0.163408 20.661 0.152687C20.3852 0.119683 20.1073 0.0917235 19.8275 0.0693359Z" fill="#FEFEFE"/>
<path fill-rule="evenodd" clip-rule="evenodd" d="M33.7932 9.527C33.7026 8.5472 33.4545 7.60535 33.0702 6.71983C32.913 6.52475 32.7511 6.33293 32.5839 6.14437C33.0373 7.00929 33.3549 7.93695 33.5152 8.90761C33.6149 9.11319 33.7077 9.31973 33.7932 9.527ZM19.3 0.0332031C19.1819 0.0515966 19.0643 0.0716737 18.9473 0.0929051C19.1828 0.104572 19.4191 0.12076 19.6563 0.142096C19.8023 0.122862 19.9493 0.106465 20.0969 0.0917504C19.8329 0.0672607 19.5673 0.0479179 19.3 0.0332031Z" fill="#FEFEFE"/>
<path fill-rule="evenodd" clip-rule="evenodd" d="M33.9436 9.91234C33.8952 8.92403 33.6887 7.97104 33.3451 7.0707C33.2005 6.88036 33.0517 6.69232 32.8977 6.50786C33.3063 7.38539 33.5798 8.32125 33.6957 9.29684C33.7855 9.50127 33.868 9.70655 33.9436 9.91234ZM18.7584 0.0107422C18.6523 0.0313429 18.5465 0.0528915 18.4414 0.0756994C18.6864 0.0805343 18.9327 0.0910443 19.18 0.1066C19.3066 0.0856839 19.4339 0.0664471 19.5618 0.0488944C19.2957 0.0310264 19.0277 0.0187302 18.7584 0.0107422Z" fill="#FEFEFE"/>
<path fill-rule="evenodd" clip-rule="evenodd" d="M34.0793 10.3015C34.0727 9.29951 33.9053 8.32991 33.5975 7.41076C33.473 7.23702 33.3441 7.0657 33.2118 6.89658C33.5755 7.78914 33.8026 8.73657 33.8719 9.72046C33.9473 9.91375 34.0166 10.1075 34.0793 10.3015ZM18.2885 0.00195312C18.1885 0.024656 18.0891 0.0484101 17.9902 0.07311C18.2311 0.0713232 18.4733 0.0742682 18.7168 0.0830971C18.8291 0.0609198 18.9423 0.0402119 19.0557 0.0205571C18.8015 0.00952095 18.5455 0.00395014 18.2885 0.00195312Z" fill="#FEFEFE"/>
<path fill-rule="evenodd" clip-rule="evenodd" d="M12.834 18.2524C13.9867 19.1767 15.3411 19.9193 16.8347 20.4265C15.9248 20.0654 15.0297 19.6303 14.1643 19.1186C13.6993 18.844 13.2562 18.5543 12.834 18.2524ZM34.1965 10.692C34.2002 10.5829 34.2029 10.4735 34.2029 10.3635C34.2029 9.4589 34.0722 8.58052 33.8273 7.74062C33.7132 7.57203 33.5947 7.40586 33.4734 7.24137C33.7993 8.15096 33.9868 9.11194 34.0144 10.1063C34.0818 10.3012 34.142 10.4966 34.1965 10.692ZM17.8322 0.00304848C17.7338 0.0285892 17.6356 0.0549714 17.5382 0.0825091C17.7629 0.0747313 17.9891 0.0715791 18.2165 0.0730506C18.3191 0.0490865 18.422 0.0261705 18.5256 0.00441362C18.39 0.00178598 18.2542 0 18.1178 0C18.0224 0 17.9274 0.00178721 17.8322 0.00304848Z" fill="#FEFEFE"/>
<path fill-rule="evenodd" clip-rule="evenodd" d="M11.6211 17.3013C13.3285 19.0718 15.6751 20.3768 18.3588 20.9582C17.3416 20.6513 16.3332 20.2535 15.3525 19.7644C14.9456 19.5694 14.5526 19.3562 14.1754 19.1252L14.1631 19.118C13.2292 18.5664 12.3803 17.9559 11.6211 17.3013ZM34.3059 11.1242C34.3262 10.8726 34.3373 10.6188 34.3373 10.3629C34.3373 9.58597 34.2418 8.82847 34.0614 8.09756C33.9494 7.92172 33.8325 7.74851 33.7131 7.57687C33.9913 8.46564 34.1404 9.39941 34.1404 10.3629C34.1404 10.4074 34.1391 10.4515 34.1385 10.496C34.2015 10.7052 34.2578 10.9147 34.3059 11.1242ZM17.3843 0.0130356C17.284 0.042255 17.1845 0.0722061 17.0854 0.103423C17.3087 0.0893383 17.5334 0.0799845 17.7597 0.0751496C17.8576 0.0490834 17.9561 0.0240692 18.055 0C17.8305 0.000840847 17.6068 0.00557307 17.3843 0.0130356Z" fill="#FEFEFE"/>
<path fill-rule="evenodd" clip-rule="evenodd" d="M10.791 16.5318C12.7613 19.0226 15.8917 20.7895 19.5215 21.2691C18.906 21.1254 18.2912 20.9496 17.6809 20.7404C15.5302 20.1616 13.625 19.109 12.1339 17.7258C11.6537 17.3438 11.206 16.9446 10.791 16.5318ZM34.3898 11.5296C34.4368 11.1466 34.4615 10.7578 34.4615 10.3641C34.4615 9.70085 34.3929 9.0513 34.2614 8.42004C34.1582 8.24829 34.0502 8.07897 33.9397 7.91101C34.1522 8.6993 34.2646 9.52039 34.2646 10.3641C34.2646 10.5398 34.2592 10.7145 34.2496 10.8882C34.3044 11.102 34.3506 11.3159 34.3898 11.5296ZM16.9279 0.034688C16.8206 0.0695831 16.7141 0.105424 16.6082 0.142632C16.8411 0.12077 17.0759 0.104058 17.3125 0.0924962C17.4117 0.0629614 17.5113 0.0343737 17.6117 0.00683594C17.3826 0.0125117 17.1549 0.0220753 16.9279 0.034688Z" fill="#FEFEFE"/>
<path fill-rule="evenodd" clip-rule="evenodd" d="M10.1582 15.8625C12.2616 19.0241 16.1215 21.2217 20.6009 21.4873C20.0577 21.3941 19.5131 21.2756 18.9698 21.1314C15.7932 20.5869 13.0391 19.0439 11.1764 16.9026C10.8139 16.5656 10.4745 16.2183 10.1582 15.8625ZM34.4552 11.9338C34.5399 11.4207 34.5846 10.8967 34.5846 10.3636C34.5846 9.81059 34.5367 9.26719 34.4457 8.73588C34.3549 8.57602 34.2602 8.41794 34.1633 8.26123C34.318 8.94179 34.4 9.64453 34.4 10.3636C34.4 10.688 34.3824 11.0089 34.3501 11.3262C34.392 11.529 34.4275 11.7315 34.4552 11.9338ZM16.5148 0.0609746C16.398 0.102491 16.2818 0.144951 16.1667 0.189201C16.3979 0.160717 16.6316 0.138013 16.8668 0.11983C16.9703 0.0855653 17.0743 0.0525651 17.1791 0.0205078C16.9566 0.0304929 16.7354 0.044473 16.5148 0.0609746Z" fill="#FEFEFE"/>
<path fill-rule="evenodd" clip-rule="evenodd" d="M9.60742 15.206C11.7309 18.9973 16.2677 21.6199 21.5157 21.6199C21.0183 21.5604 20.5184 21.4802 20.018 21.3778C15.9767 20.9826 12.5018 19.0078 10.4603 16.1942C10.156 15.8721 9.87173 15.542 9.60742 15.206ZM34.5005 12.3539C34.6356 11.7076 34.7062 11.0423 34.7062 10.363C34.7062 9.91794 34.6749 9.47923 34.6163 9.04787C34.5318 8.89011 34.4439 8.73403 34.3535 8.57921C34.4636 9.16002 34.5216 9.75566 34.5216 10.363C34.5216 10.8261 34.4877 11.2825 34.423 11.7307C34.4563 11.9389 34.4823 12.1466 34.5005 12.3539ZM16.1006 0.0953706C15.9697 0.145716 15.8401 0.198376 15.7115 0.252296C15.9327 0.218136 16.1562 0.188708 16.3814 0.164218C16.4929 0.123227 16.6048 0.0832855 16.7179 0.0449219C16.5111 0.0585856 16.3056 0.0759261 16.1006 0.0953706Z" fill="#FEFEFE"/>
<path fill-rule="evenodd" clip-rule="evenodd" d="M9.16406 14.6059C11.1343 18.7786 15.9227 21.7242 21.5176 21.7242C21.8022 21.7242 22.0847 21.7156 22.365 21.7006C21.9324 21.6699 21.4971 21.6225 21.0601 21.559C16.2005 21.4167 12.011 19.0164 9.88679 15.5467C9.62839 15.2385 9.38736 14.9244 9.16406 14.6059ZM34.5302 12.8178C34.7348 12.027 34.8437 11.2056 34.8437 10.3624C34.8437 10.0337 34.8263 9.70846 34.7942 9.38673C34.7111 9.22129 34.6244 9.05764 34.5349 8.89525C34.6084 9.37548 34.6469 9.86507 34.6469 10.3624C34.6469 10.9683 34.5897 11.5625 34.4815 12.1422C34.5068 12.3681 34.5228 12.5934 34.5302 12.8178ZM15.7116 0.13521C15.5638 0.196487 15.4176 0.260388 15.2729 0.326079C15.4942 0.284878 15.7181 0.249039 15.9441 0.217822C16.0664 0.168738 16.1899 0.121127 16.3142 0.0751953C16.1123 0.0923276 15.9115 0.112507 15.7116 0.13521Z" fill="#FEFEFE"/>
<path fill-rule="evenodd" clip-rule="evenodd" d="M8.7832 14.0343C10.5775 18.5693 15.6047 21.8308 21.5172 21.8308C22.0886 21.8308 22.6515 21.8003 23.2042 21.7413C22.7871 21.732 22.3665 21.7076 21.9434 21.6673C21.8018 21.6712 21.6598 21.6737 21.5172 21.6737C16.0931 21.6737 11.4281 18.8886 9.37759 14.904C9.16501 14.6179 8.96647 14.3278 8.7832 14.0343ZM34.5329 13.2639C34.8158 12.3378 34.9667 11.3662 34.9667 10.3642C34.9667 10.1402 34.9584 9.91783 34.9435 9.6971C34.8659 9.53251 34.7849 9.36928 34.7009 9.20763C34.7461 9.5879 34.7694 9.97375 34.7694 10.3642C34.7694 11.1176 34.6824 11.8537 34.5177 12.566C34.5324 12.7996 34.5378 13.0323 34.5329 13.2639ZM15.305 0.186709C15.1329 0.263542 14.9629 0.343107 14.7953 0.426036C15.0255 0.374744 15.2584 0.328812 15.4943 0.288767C15.632 0.228646 15.7714 0.171361 15.9118 0.115234C15.7086 0.136361 15.5061 0.159907 15.305 0.186709Z" fill="#FEFEFE"/>
<path fill-rule="evenodd" clip-rule="evenodd" d="M8.45117 13.4682C10.0408 18.3542 15.2888 21.9468 21.5176 21.9468C22.4002 21.9468 23.2626 21.8741 24.098 21.7368C23.667 21.7505 23.2311 21.7472 22.7912 21.7268C22.372 21.7607 21.9472 21.7785 21.5176 21.7785C15.7556 21.7785 10.8476 18.6727 8.96464 14.3152C8.77989 14.0358 8.6087 13.7533 8.45117 13.4682ZM34.5116 13.7159C34.8873 12.6545 35.09 11.5294 35.09 10.364C35.09 10.2425 35.087 10.1217 35.0827 10.0011C35.0147 9.84755 34.9442 9.69515 34.8706 9.54401C34.8932 9.81487 34.9054 10.0882 34.9054 10.364C34.9054 11.2855 34.7764 12.1812 34.5346 13.0393C34.5361 13.266 34.529 13.4917 34.5116 13.7159ZM14.9244 0.240459C14.7267 0.334633 14.5321 0.432802 14.3406 0.534965C14.572 0.47495 14.8069 0.421134 15.0446 0.372785C15.2 0.299316 15.3572 0.228475 15.5162 0.160156C15.318 0.184541 15.1205 0.210608 14.9244 0.240459Z" fill="#FEFEFE"/>
<path fill-rule="evenodd" clip-rule="evenodd" d="M8.13281 12.8496C9.46877 18.1093 14.9542 22.0513 21.517 22.0513C22.6842 22.0513 23.8172 21.9263 24.899 21.6916C24.4749 21.7265 24.0446 21.7444 23.6097 21.7452C22.9276 21.8356 22.2288 21.883 21.517 21.883C15.4485 21.883 10.3116 18.4598 8.61377 13.7546C8.43789 13.4556 8.2779 13.1537 8.13281 12.8496ZM34.4587 14.1941C34.9466 12.994 35.2124 11.7053 35.2124 10.3636L35.2116 10.3025C35.1483 10.1499 35.0827 9.99828 35.014 9.84798C35.0229 10.019 35.0282 10.1907 35.0282 10.3636C35.0282 11.4456 34.8525 12.4928 34.5253 13.4858C34.5137 13.7235 34.4914 13.9597 34.4587 14.1941ZM14.5485 0.301108C14.3187 0.41725 14.0927 0.538544 13.8717 0.665617C14.1001 0.597298 14.332 0.534865 14.5672 0.478213C14.7452 0.38677 14.9257 0.298372 15.1088 0.213867C14.9211 0.240774 14.7343 0.269366 14.5485 0.301108Z" fill="#FEFEFE"/>
<path fill-rule="evenodd" clip-rule="evenodd" d="M7.88086 12.2818C8.95583 17.8844 14.6577 22.1554 21.5169 22.1554C22.9828 22.1554 24.3954 21.9603 25.7214 21.6C25.3214 21.6549 24.9149 21.6943 24.5028 21.7177C23.542 21.9008 22.5429 21.9982 21.5169 21.9982C15.1316 21.9982 9.7761 18.2443 8.29949 13.1842C8.1448 12.8855 8.00501 12.5844 7.88086 12.2818ZM34.3605 14.7461C34.9601 13.4699 35.3056 12.0836 35.3438 10.632C35.2811 10.4694 35.2165 10.3077 35.1478 10.1476C35.1494 10.2193 35.151 10.2909 35.151 10.3627C35.151 11.6157 34.9181 12.8222 34.4885 13.9534C34.4596 14.22 34.417 14.4845 34.3605 14.7461ZM14.1866 0.365702C13.9222 0.50728 13.6638 0.656215 13.4118 0.812192C13.6428 0.733257 13.8776 0.660106 14.1164 0.593784C14.3195 0.481321 14.5258 0.37285 14.7361 0.269531C14.552 0.299276 14.3687 0.331227 14.1866 0.365702Z" fill="#FEFEFE"/>
<path fill-rule="evenodd" clip-rule="evenodd" d="M7.66406 11.7095C8.44763 17.6456 14.3523 22.2625 21.5171 22.2625C23.2946 22.2625 24.9939 21.9786 26.557 21.4622C26.1504 21.5425 25.7354 21.6058 25.3134 21.652C24.1076 21.9467 22.834 22.1049 21.5171 22.1049C14.8 22.1049 9.21001 17.9988 8.00227 12.567C7.87615 12.2824 7.76284 11.9965 7.66406 11.7095ZM34.2213 15.2927C34.9372 13.9533 35.37 12.4811 35.4553 10.9316C35.3975 10.7708 35.3371 10.6111 35.2734 10.4526C35.2612 11.8571 34.9606 13.2029 34.4189 14.4489C34.3693 14.7336 34.3032 15.015 34.2213 15.2927ZM13.8029 0.443952C13.4936 0.619689 13.1929 0.805203 12.9017 1.00091C13.1425 0.906315 13.3883 0.819183 13.6386 0.738987C13.8743 0.59825 14.1151 0.46319 14.3613 0.334961C14.1741 0.368805 13.988 0.405273 13.8029 0.443952Z" fill="#FEFEFE"/>
<path fill-rule="evenodd" clip-rule="evenodd" d="M7.47852 11.1109C7.93053 17.395 14.0386 22.3768 21.516 22.3768C23.6521 22.3768 25.6772 21.9695 27.4911 21.242C27.0466 21.363 26.5899 21.4629 26.1227 21.5402C24.681 21.9724 23.1309 22.2084 21.516 22.2084C14.5051 22.2084 8.70239 17.7631 7.76783 11.9982C7.65649 11.7033 7.5603 11.4073 7.47852 11.1109ZM34.0156 15.8908C34.8766 14.4764 35.4176 12.8977 35.5569 11.2245C35.5071 11.0754 35.4539 10.9274 35.3991 10.7801C35.3382 12.2767 34.9521 13.7032 34.2978 15.0093C34.2223 15.3075 34.1282 15.6016 34.0156 15.8908ZM13.4537 0.518214C13.0964 0.732104 12.7513 0.959978 12.4195 1.20057C12.6637 1.09168 12.9141 0.990984 13.1693 0.897755C13.4401 0.723594 13.7186 0.557524 14.0043 0.400391C13.8196 0.437073 13.6362 0.476802 13.4537 0.518214Z" fill="#FEFEFE"/>
<path fill-rule="evenodd" clip-rule="evenodd" d="M7.31641 10.4278C7.35742 17.0929 13.7085 22.4814 21.5164 22.4814C24.0359 22.4814 26.4011 21.9214 28.4519 20.9403C27.9818 21.1094 27.4939 21.2518 26.9919 21.3679C25.3102 21.9765 23.4598 22.3134 21.5164 22.3134C14.1955 22.3134 8.1889 17.5203 7.5668 11.4109C7.46531 11.0836 7.38144 10.7556 7.31641 10.4278ZM33.701 16.5912C34.7611 15.0838 35.4473 13.3632 35.652 11.5224C35.6062 11.3738 35.5576 11.226 35.5067 11.0791C35.3951 12.6881 34.9113 14.2115 34.1264 15.587C34.01 15.9287 33.8686 16.2639 33.701 16.5912ZM13.1067 0.599355C12.6863 0.863591 12.2835 1.14706 11.9001 1.4484C12.1498 1.32101 12.4068 1.20256 12.6698 1.09262C12.9802 0.876206 13.3017 0.670934 13.6332 0.477539C13.4567 0.515903 13.2812 0.556577 13.1067 0.599355Z" fill="#FEFEFE"/>
<path fill-rule="evenodd" clip-rule="evenodd" d="M7.19336 10.3638C7.19336 17.1114 13.6102 22.5872 21.5173 22.5872C24.524 22.5872 27.3139 21.7975 29.6182 20.4488C29.0952 20.7047 28.5432 20.9232 27.9676 21.1038C26.0338 21.9516 23.8409 22.4301 21.5173 22.4301C13.8818 22.4301 7.67247 17.2642 7.40077 10.8051C7.31665 10.4558 7.25309 10.1063 7.21085 9.75812C7.19939 9.95877 7.19336 10.1607 7.19336 10.3638ZM33.1514 17.5058C34.5311 15.8749 35.4504 13.9427 35.7481 11.8475C35.7036 11.6894 35.6562 11.5323 35.6062 11.3761C35.4358 13.1248 34.8287 14.7676 33.8777 16.2249C33.681 16.6659 33.4395 17.0942 33.1514 17.5058ZM12.7624 0.688115C12.2654 1.01604 11.7941 1.37099 11.3521 1.75084C11.6148 1.59644 11.886 1.45203 12.1658 1.31865C12.5215 1.05021 12.893 0.796689 13.2792 0.55957C13.1061 0.600562 12.9335 0.642919 12.7624 0.688115Z" fill="#FEFEFE"/>
<path fill-rule="evenodd" clip-rule="evenodd" d="M7.07031 10.3633C7.07031 17.174 13.5365 22.692 21.5176 22.692C28.7918 22.692 34.8166 18.1077 35.8268 12.1389C35.7864 11.9819 35.7439 11.8255 35.698 11.6703C35.4545 13.6136 34.675 15.421 33.4874 16.9819C33.2873 17.3223 33.0589 17.6533 32.7994 17.9726C31.8146 19.1828 30.501 20.1069 28.9784 20.7376C26.8085 21.8769 24.2537 22.5344 21.5176 22.5344C13.6475 22.5344 7.25518 17.0794 7.25518 10.3633C7.25518 10.2751 7.25691 10.1873 7.25912 10.0994C7.20185 9.7426 7.16687 9.3866 7.15419 9.03271C7.09926 9.46985 7.07031 9.91371 7.07031 10.3633ZM12.4127 0.783899C11.8232 1.19329 11.2722 1.64115 10.7651 2.12358C11.0421 1.93355 11.3308 1.75624 11.6304 1.59227C12.0413 1.25488 12.476 0.938302 12.9318 0.644531C12.7578 0.688886 12.5845 0.735235 12.4127 0.783899Z" fill="#FEFEFE"/>
<path fill-rule="evenodd" clip-rule="evenodd" d="M6.94531 10.3626C6.94531 17.2367 13.4729 22.8071 21.5157 22.8071C28.7453 22.8071 34.7433 18.3193 35.8966 12.4293C35.8624 12.2826 35.8263 12.1364 35.7873 11.9912C35.427 14.3093 34.3089 16.4233 32.6513 18.1457C32.0233 18.8762 31.2718 19.4972 30.4256 20.0074C27.9753 21.6553 24.881 22.6388 21.5157 22.6388C13.5714 22.6388 7.12993 17.1419 7.12993 10.3626C7.12993 10.0405 7.14471 9.72139 7.17329 9.40544C7.14102 9.00257 7.13819 8.60191 7.16417 8.20545C7.02069 8.90619 6.94531 9.6268 6.94531 10.3626ZM12.0835 0.879257C11.3716 1.39638 10.7183 1.97078 10.134 2.59448C10.4315 2.35137 10.746 2.1255 11.076 1.91718C11.5482 1.49223 12.0556 1.0963 12.5942 0.732422C12.4228 0.779299 12.2527 0.828281 12.0835 0.879257Z" fill="#FEFEFE"/>
<path fill-rule="evenodd" clip-rule="evenodd" d="M6.8125 10.3632C6.8125 17.2896 13.4016 22.9127 21.5182 22.9127C28.7019 22.9127 34.6727 18.5206 35.9641 12.7189C35.9335 12.5736 35.9 12.4292 35.8648 12.2853C34.782 18.2137 28.7699 22.7447 21.5182 22.7447C13.5 22.7447 7.00944 17.2058 7.00944 10.3632C7.00944 9.77886 7.05784 9.20424 7.14948 8.6414C7.15551 8.11082 7.21303 7.58645 7.324 7.0729C6.99121 8.12144 6.8125 9.22432 6.8125 10.3632ZM11.7464 0.985384C10.8246 1.68539 10.0059 2.4823 9.31408 3.35857C9.66312 2.98996 10.0452 2.65152 10.4569 2.34409C11.0008 1.79722 11.5991 1.29103 12.2451 0.832031C12.0777 0.881116 11.9116 0.932306 11.7464 0.985384Z" fill="#FEFEFE"/>
<path fill-rule="evenodd" clip-rule="evenodd" d="M6.6875 10.3634C6.6875 17.3527 13.326 23.0181 21.5166 23.0181C28.6319 23.0181 34.5841 18.7421 36.0245 13.0371C35.9961 12.8837 35.9647 12.7312 35.9311 12.5793C34.7054 18.4196 28.7211 22.8605 21.5166 22.8605C13.4371 22.8605 6.88469 17.2583 6.88469 10.3634C6.88469 9.46029 6.99775 8.57992 7.2107 7.73129C7.38707 6.33938 7.93626 5.01063 8.89213 3.83597C9.16087 3.50541 9.45499 3.19693 9.77078 2.90936C10.4019 2.18497 11.1227 1.52122 11.9191 0.929688C11.7541 0.980979 11.5902 1.03437 11.4275 1.08966C8.51217 3.40041 6.6875 6.69958 6.6875 10.3634Z" fill="#FEFEFE"/>
<path fill-rule="evenodd" clip-rule="evenodd" d="M6.56445 10.3636C6.56445 17.4161 13.2644 23.1236 21.5166 23.1236C28.5845 23.1236 34.5074 18.9486 36.0743 13.3283C36.0494 13.1745 36.022 13.0215 35.9918 12.8693C34.6316 18.6275 28.6754 22.9657 21.5166 22.9657C13.3631 22.9657 6.7492 17.3215 6.7492 10.3636C6.7492 8.94832 7.02299 7.58741 7.52747 6.31731C7.80262 5.47741 8.23012 4.67503 8.81662 3.93225C9.56891 2.85292 10.504 1.87722 11.5866 1.03711C11.424 1.09082 11.2623 1.146 11.1019 1.2036C8.30439 3.52413 6.56445 6.77022 6.56445 10.3636Z" fill="#FEFEFE"/>
<path fill-rule="evenodd" clip-rule="evenodd" d="M6.44141 10.3644C6.44141 17.4695 13.191 23.2398 21.5169 23.2398C28.5363 23.2398 34.4297 19.1499 36.118 13.617C36.0978 13.4722 36.0757 13.328 36.0508 13.1844C34.5462 18.8468 28.6083 23.0715 21.5169 23.0715C13.2894 23.0715 6.62627 17.3853 6.62627 10.3644C6.62627 6.73545 8.40636 3.46329 11.2624 1.14844C11.1043 1.20372 10.947 1.26079 10.7911 1.31976C8.1019 3.64586 6.44141 6.84087 6.44141 10.3644Z" fill="#FEFEFE"/>
<path fill-rule="evenodd" clip-rule="evenodd" d="M6.30664 10.3642C6.30664 17.5323 13.1173 23.3444 21.5173 23.3444C28.4804 23.3444 34.3515 19.3504 36.1561 13.9008C36.1391 13.7561 36.1196 13.612 36.0979 13.4686C34.4706 19.0432 28.5622 23.1766 21.5173 23.1766C13.2283 23.1766 6.5037 17.4378 6.5037 10.3642C6.5037 6.80538 8.20102 3.58651 10.9409 1.26367C10.7815 1.32243 10.6235 1.38339 10.4665 1.44593C7.88831 3.77171 6.30664 6.91038 6.30664 10.3642Z" fill="#FEFEFE"/>
<path fill-rule="evenodd" clip-rule="evenodd" d="M6.18359 10.3637C6.18359 17.5949 13.0562 23.4492 21.5177 23.4492C28.4213 23.4492 34.2616 19.5631 36.189 14.2126C36.1747 14.0607 36.1574 13.9097 36.1381 13.7591C34.3919 19.2499 28.5138 23.2917 21.5177 23.2917C13.1548 23.2917 6.38066 17.5003 6.38066 10.3637C6.38066 6.87308 8.00186 3.70476 10.6363 1.37793C10.4778 1.43942 10.3208 1.50321 10.1647 1.56849C7.69161 3.89132 6.18359 6.9765 6.18359 10.3637Z" fill="#FEFEFE"/>
<path fill-rule="evenodd" clip-rule="evenodd" d="M6.06055 10.3634C6.06055 17.6472 12.9825 23.5541 21.5177 23.5541C28.3716 23.5541 34.1792 19.7557 36.2117 14.4951C36.2008 14.3442 36.1873 14.1939 36.1715 14.0443C34.3107 19.4505 28.4561 23.3963 21.5177 23.3963C13.0931 23.3963 6.24542 17.563 6.24542 10.3634C6.24542 6.941 7.79346 3.82798 10.3218 1.50293C10.1671 1.5661 10.0134 1.63042 9.86113 1.69717C7.49442 4.01706 6.06055 7.04874 6.06055 10.3634Z" fill="#FEFEFE"/>
<path fill-rule="evenodd" clip-rule="evenodd" d="M5.9375 10.364C5.9375 17.7108 12.9086 23.6703 21.5179 23.6703C28.3134 23.6703 34.0949 19.9567 36.2297 14.7789C36.2224 14.6363 36.2131 14.4942 36.2014 14.3526C34.2207 19.6567 28.3966 23.5022 21.5179 23.5022C13.0194 23.5022 6.12237 17.6164 6.12237 10.364C6.12237 7.01024 7.59381 3.95292 10.0138 1.63281C9.86137 1.69808 9.71012 1.76462 9.56023 1.83336C7.29883 4.14327 5.9375 7.11797 5.9375 10.364Z" fill="#FEFEFE"/>
<path fill-rule="evenodd" clip-rule="evenodd" d="M5.80078 10.3634C5.80078 17.7734 12.8455 23.7749 21.5165 23.7749C28.2625 23.7749 34.0113 20.152 36.2408 15.0607C36.2366 14.919 36.2297 14.7779 36.2211 14.6373C34.1379 19.8547 28.3456 23.6065 21.5165 23.6065C12.9441 23.6065 5.99772 17.6788 5.99772 10.3634C5.99772 7.08335 7.39489 4.08079 9.70802 1.76562C9.55616 1.83373 9.40541 1.90363 9.25614 1.97521C7.09523 4.27177 5.80078 7.18793 5.80078 10.3634Z" fill="#FEFEFE"/>
<path fill-rule="evenodd" clip-rule="evenodd" d="M5.67773 10.3642C5.67773 17.8267 12.7721 23.881 21.5168 23.881C28.1999 23.881 33.9141 20.3545 36.2458 15.3671C36.2447 15.2187 36.2409 15.0711 36.235 14.9238C34.0513 20.0568 28.2864 23.7231 21.5168 23.7231C12.8827 23.7231 5.87504 17.7427 5.87504 10.3642C5.87504 7.15135 7.20423 4.20386 9.41723 1.89941C9.26709 1.96973 9.11843 2.04215 8.97101 2.11593C6.90666 4.39862 5.67773 7.25919 5.67773 10.3642Z" fill="#FEFEFE"/>
<path fill-rule="evenodd" clip-rule="evenodd" d="M5.55469 10.3627C5.55469 17.8883 12.6982 23.9844 21.5168 23.9844C28.1391 23.9844 33.8238 20.5463 36.2445 15.6468C36.2452 15.5847 36.2472 15.5226 36.2472 15.4603C36.2472 15.3736 36.245 15.2873 36.2434 15.2008C33.9668 20.2442 28.2358 23.8265 21.5168 23.8265C12.809 23.8265 5.73943 17.7937 5.73943 10.3627C5.73943 7.22191 6.99878 4.33392 9.10907 2.04492C8.96349 2.11629 8.81951 2.18976 8.67652 2.26449C6.71489 4.52942 5.55469 7.33059 5.55469 10.3627Z" fill="#FEFEFE"/>
<path fill-rule="evenodd" clip-rule="evenodd" d="M5.43164 10.3626C5.43164 17.9512 12.6366 24.1001 21.5169 24.1001C28.0878 24.1001 33.7364 20.7421 36.2383 15.9273C36.2432 15.7869 36.2461 15.6461 36.2467 15.5048C33.8717 20.4489 28.1749 23.9318 21.5169 23.9318C12.7354 23.9318 5.61651 17.8568 5.61651 10.3626C5.61651 7.2926 6.81181 4.46115 8.82615 2.1875C8.68205 2.26118 8.53894 2.33623 8.39742 2.41316C6.53001 4.65675 5.43164 7.39991 5.43164 10.3626Z" fill="#FEFEFE"/>
<path fill-rule="evenodd" clip-rule="evenodd" d="M5.29688 10.3643C5.29688 18.0056 12.5635 24.2067 21.5178 24.2067C28.0353 24.2067 33.6472 20.9295 36.2268 16.2048C36.2346 16.0659 36.2398 15.9266 36.2433 15.7868C33.7818 20.6432 28.1149 24.0388 21.5178 24.0388C12.6744 24.0388 5.49406 17.9214 5.49406 10.3643C5.49406 7.36629 6.62507 4.5937 8.54076 2.33887C8.39567 2.41623 8.25182 2.49505 8.10956 2.57578C6.33527 4.79509 5.29688 7.47676 5.29688 10.3643Z" fill="#FEFEFE"/>
<path fill-rule="evenodd" clip-rule="evenodd" d="M5.17383 10.3638C5.17383 18.0681 12.4897 24.3115 21.5178 24.3115C27.9638 24.3115 33.5424 21.1279 36.2064 16.5028C36.2176 16.3581 36.2262 16.2128 36.233 16.0672C33.691 20.8348 28.0608 24.1535 21.5178 24.1535C12.6006 24.1535 5.37101 17.9732 5.37101 10.3638C5.37101 7.43613 6.43921 4.72313 8.25932 2.49121C8.11584 2.57078 7.97395 2.65223 7.83342 2.73516C6.15212 4.92725 5.17383 7.54764 5.17383 10.3638Z" fill="#FEFEFE"/>
<path fill-rule="evenodd" clip-rule="evenodd" d="M5.05078 10.3623C5.05078 18.1193 12.4284 24.4149 21.518 24.4149C27.9082 24.4149 33.4485 21.3113 36.1822 16.7776C36.1965 16.633 36.2086 16.4878 36.2183 16.342C33.5985 21.0224 28.0002 24.2568 21.518 24.2568C12.5269 24.2568 5.23565 18.0351 5.23565 10.3623C5.23565 7.50957 6.24424 4.85785 7.97259 2.65137C7.83465 2.73114 7.69831 2.81281 7.56307 2.89574C5.97192 5.05945 5.05078 7.61878 5.05078 10.3623Z" fill="#FEFEFE"/>
<path fill-rule="evenodd" clip-rule="evenodd" d="M4.92578 10.3637C4.92578 18.1836 12.3525 24.532 21.516 24.532C27.8512 24.532 33.3519 21.5054 36.1508 17.0579C36.1675 16.9192 36.182 16.7801 36.1944 16.6403C33.4956 21.2215 27.9356 24.3635 21.516 24.3635C12.4634 24.3635 5.11065 18.0996 5.11065 10.3637C5.11065 7.58245 6.06098 4.99148 7.69893 2.81348C7.56419 2.89441 7.43056 2.9766 7.29865 3.06058C5.79261 5.19381 4.92578 7.6927 4.92578 10.3637Z" fill="#FEFEFE"/>
<path fill-rule="evenodd" clip-rule="evenodd" d="M4.79102 10.3632C4.79102 18.246 12.2796 24.6364 21.5169 24.6364C27.7878 24.6364 33.2515 21.6907 36.1147 17.3329C36.1343 17.1947 36.1515 17.056 36.1668 16.9166C33.4 21.4057 27.8799 24.4684 21.5169 24.4684C12.3902 24.4684 4.9882 18.1517 4.9882 10.3632C4.9882 7.65666 5.88028 5.12897 7.42598 2.98145C7.28816 3.06763 7.15169 3.15519 7.01683 3.24453C5.60119 5.33992 4.79102 7.77081 4.79102 10.3632Z" fill="#FEFEFE"/>
<path fill-rule="evenodd" clip-rule="evenodd" d="M4.66797 10.3636C4.66797 18.2989 12.2178 24.7421 21.5169 24.7421C27.7295 24.7421 33.1515 21.8732 36.0728 17.6069C36.0951 17.4702 36.1152 17.3328 36.1333 17.1949C33.3006 21.5979 27.8161 24.5842 21.5169 24.5842C12.3164 24.5842 4.86515 18.2147 4.86515 10.3636C4.86515 7.72942 5.70488 5.26248 7.16708 3.14648C7.03037 3.23509 6.89538 3.32559 6.76187 3.41745C5.42826 5.47616 4.66797 7.84356 4.66797 10.3636Z" fill="#FEFEFE"/>
<path fill-rule="evenodd" clip-rule="evenodd" d="M4.54492 10.3635C4.54492 18.3618 12.1441 24.8469 21.517 24.8469C27.6614 24.8469 33.0398 22.067 36.0218 17.9028C36.0483 17.7603 36.0728 17.6172 36.0948 17.4736C33.2019 21.7852 27.7583 24.6894 21.517 24.6894C12.2551 24.6894 4.72967 18.2776 4.72967 10.3635C4.72967 7.80561 5.51656 5.4053 6.89316 3.32715C6.76359 3.4146 6.63575 3.50383 6.50901 3.59422C5.25582 5.61541 4.54492 7.91891 4.54492 10.3635Z" fill="#FEFEFE"/>
<path fill-rule="evenodd" clip-rule="evenodd" d="M4.42188 10.3643C4.42188 18.426 12.0702 24.9634 21.517 24.9634C27.5957 24.9634 32.9342 22.2559 35.9686 18.1777C35.9972 18.04 36.0233 17.9015 36.0476 17.7626C33.0925 21.974 27.6922 24.7955 21.517 24.7955C12.1809 24.7955 4.6065 18.3312 4.6065 10.3643C4.6065 7.88124 5.34068 5.54599 6.63303 3.50684C6.5063 3.59555 6.38079 3.68531 6.25701 3.77696C5.08351 5.75621 4.42188 7.99423 4.42188 10.3643Z" fill="#FEFEFE"/>
<path fill-rule="evenodd" clip-rule="evenodd" d="M4.28516 10.3636C4.28516 18.4776 12.0075 25.068 21.5159 25.068C27.5329 25.068 32.8259 22.4349 35.9073 18.449C35.9387 18.3118 35.9678 18.1739 35.995 18.0355C32.9854 22.1568 27.6249 24.8996 21.5159 24.8996C12.106 24.8996 4.48234 18.3938 4.48234 10.3636C4.48234 7.95697 5.16775 5.68658 6.38005 3.68652C6.24912 3.78164 6.11956 3.87803 5.99196 3.9762C4.89839 5.90752 4.28516 8.07427 4.28516 10.3636Z" fill="#FEFEFE"/>
<path fill-rule="evenodd" clip-rule="evenodd" d="M4.16211 10.3626C4.16211 18.5396 11.9337 25.172 21.5161 25.172C27.4698 25.172 32.7161 22.6175 35.8408 18.7254C35.8749 18.5899 35.9069 18.4539 35.9368 18.3171C32.8782 22.3474 27.5628 25.014 21.5161 25.014C12.0448 25.014 4.35917 18.4559 4.35917 10.3626C4.35917 8.0297 4.99888 5.82478 6.13482 3.86719C6.00587 3.96431 5.87876 4.0631 5.75314 4.16327C4.73248 6.04939 4.16211 8.1492 4.16211 10.3626Z" fill="#FEFEFE"/>
<path fill-rule="evenodd" clip-rule="evenodd" d="M4.03906 10.3637C4.03906 18.6037 11.86 25.2779 21.5161 25.2779C27.3931 25.2779 32.5947 22.8052 35.766 19.0122C35.8048 18.8713 35.8419 18.7298 35.8761 18.5875C32.7726 22.5271 27.502 25.1208 21.5161 25.1208C11.9708 25.1208 4.22393 18.5093 4.22393 10.3637C4.22393 8.11174 4.81561 5.97893 5.87149 4.07031C5.75005 4.16543 5.63021 4.26223 5.51185 4.36009C4.56534 6.19744 4.03906 8.22809 4.03906 10.3637Z" fill="#FEFEFE"/>
<path fill-rule="evenodd" clip-rule="evenodd" d="M3.91602 10.364C3.91602 18.6568 11.7986 25.3835 21.5162 25.3835C27.3294 25.3835 32.4823 22.9819 35.6896 19.2802C35.7297 19.1454 35.7675 19.0098 35.8033 18.8737C32.6513 22.7141 27.4259 25.226 21.5162 25.226C11.897 25.226 4.10076 18.5727 4.10076 10.364C4.10076 8.18876 4.64835 6.12269 5.63218 4.26074C5.51271 4.35775 5.39509 4.45624 5.27882 4.55588C4.4014 6.34257 3.91602 8.30469 3.91602 10.364Z" fill="#FEFEFE"/>
<path fill-rule="evenodd" clip-rule="evenodd" d="M3.79297 10.3634C3.79297 18.7191 11.7246 25.4987 21.5163 25.4987C27.2611 25.4987 32.362 23.1702 35.6019 19.5613C35.6458 19.4247 35.6875 19.2872 35.7271 19.1491C32.5373 22.8954 27.3608 25.3304 21.5163 25.3304C11.8356 25.3304 3.97784 18.635 3.97784 10.3634C3.97784 8.26551 4.48416 6.26861 5.39656 4.45605C5.27992 4.55433 5.1644 4.65365 5.05084 4.75455C4.23968 6.48943 3.79297 8.38186 3.79297 10.3634Z" fill="#FEFEFE"/>
<path fill-rule="evenodd" clip-rule="evenodd" d="M3.6582 10.364C3.6582 18.7831 11.6515 25.6042 21.5172 25.6042C27.1892 25.6042 32.2418 23.3489 35.5127 19.832C35.5592 19.697 35.6039 19.5614 35.6461 19.425C32.422 23.0806 27.2953 25.4462 21.5172 25.4462C11.7626 25.4462 3.85526 18.6881 3.85526 10.364C3.85526 8.34382 4.32082 6.41743 5.16363 4.65723C5.04281 4.76275 4.92346 4.86964 4.80609 4.97811C4.06489 6.65266 3.6582 8.46763 3.6582 10.364Z" fill="#FEFEFE"/>
<path fill-rule="evenodd" clip-rule="evenodd" d="M3.53516 10.3636C3.53516 18.835 11.5901 25.7087 21.5172 25.7087C27.1145 25.7087 32.1139 23.5287 35.4138 20.1111C35.4651 19.9723 35.5146 19.8327 35.5613 19.6922C32.3044 23.2578 27.2246 25.5516 21.5172 25.5516C11.6886 25.5516 3.72002 18.7509 3.72002 10.3636C3.72002 8.42776 4.14543 6.57674 4.91939 4.87402C4.80608 4.97682 4.69462 5.08097 4.58463 5.1864C3.90588 6.80355 3.53516 8.54621 3.53516 10.3636Z" fill="#FEFEFE"/>
<path fill-rule="evenodd" clip-rule="evenodd" d="M3.41211 10.3632C3.41211 18.8977 11.5163 25.8136 21.5173 25.8136C27.0441 25.8136 31.9887 23.7059 35.3106 20.3825C35.3631 20.2491 35.4128 20.1148 35.4611 19.9797C32.1733 23.4427 27.1484 25.6561 21.5173 25.6561C11.6271 25.6561 3.59698 18.8138 3.59698 10.3632C3.59698 8.50555 3.98544 6.72569 4.69597 5.0791C4.58413 5.18431 4.47452 5.2911 4.36614 5.39894C3.74761 6.95735 3.41211 8.62695 3.41211 10.3632Z" fill="#FEFEFE"/>
<path fill-rule="evenodd" clip-rule="evenodd" d="M3.28906 10.3636C3.28906 18.9612 11.4546 25.9298 21.5173 25.9298C26.9665 25.9298 31.8561 23.8904 35.1983 20.658C35.2551 20.5221 35.3096 20.3851 35.362 20.2475C32.0506 23.6177 27.0791 25.7615 21.5173 25.7615C11.5532 25.7615 3.47356 18.8666 3.47356 10.3636C3.47356 8.58626 3.82766 6.87934 4.4771 5.29004C4.36847 5.39609 4.26082 5.50329 4.15552 5.61187C3.59352 7.10984 3.28906 8.70629 3.28906 10.3636Z" fill="#FEFEFE"/>
<path fill-rule="evenodd" clip-rule="evenodd" d="M3.15234 10.3627C3.15234 19.0129 11.3797 26.0338 21.5162 26.0338C26.892 26.0338 31.7249 24.0635 35.082 20.9248C35.1409 20.7917 35.1978 20.6578 35.2526 20.523C31.919 23.8022 27.0008 25.8766 21.5162 25.8766C11.4781 25.8766 3.34941 18.9287 3.34941 10.3627C3.34941 8.66629 3.66926 7.03389 4.25848 5.50586C4.14566 5.62011 4.0342 5.73583 3.9252 5.85292C3.4233 7.28099 3.15234 8.79463 3.15234 10.3627Z" fill="#FEFEFE"/>
<path fill-rule="evenodd" clip-rule="evenodd" d="M3.0293 10.3639C3.0293 19.0772 11.306 26.1403 21.5163 26.1403C26.811 26.1403 31.5833 24.245 34.9543 21.2076C35.0186 21.0704 35.0813 20.9326 35.1411 20.7936C31.7911 23.979 26.9293 25.9826 21.5163 25.9826C11.4169 25.9826 3.21404 18.993 3.21404 10.3639C3.21404 8.75577 3.49929 7.20472 4.02815 5.74512C3.92347 5.85548 3.8205 5.9671 3.71938 6.07998C3.27008 7.44215 3.0293 8.87906 3.0293 10.3639Z" fill="#FEFEFE"/>
<path fill-rule="evenodd" clip-rule="evenodd" d="M2.90625 10.3648C2.90625 19.141 11.2443 26.2464 21.5164 26.2464C26.7332 26.2464 31.4483 24.4171 34.8293 21.4697C34.8945 21.3377 34.9572 21.2046 35.0182 21.0707C31.6521 24.1568 26.8499 26.0885 21.5164 26.0885C11.3431 26.0885 3.09112 19.0464 3.09112 10.3648C3.09112 8.83749 3.34755 7.36117 3.82382 5.96484C3.72048 6.07794 3.61937 6.1925 3.51961 6.30812C3.12006 7.60324 2.90625 8.96267 2.90625 10.3648Z" fill="#FEFEFE"/>
<path fill-rule="evenodd" clip-rule="evenodd" d="M2.7832 10.3631C2.7832 19.1921 11.1706 26.3602 21.5165 26.3602C26.653 26.3602 31.3043 24.5969 34.6891 21.7429C34.7593 21.6083 34.827 21.4724 34.8928 21.3358C31.5154 24.3292 26.7703 26.1918 21.5165 26.1918C11.2691 26.1918 2.96783 19.1079 2.96783 10.3631C2.96783 8.91887 3.19543 7.52023 3.61973 6.19043C3.51911 6.30478 3.42045 6.4204 3.32352 6.53717C2.9714 7.76302 2.7832 9.04416 2.7832 10.3631Z" fill="#FEFEFE"/>
<path fill-rule="evenodd" clip-rule="evenodd" d="M2.64844 10.3626C2.64844 19.2546 11.0975 26.4646 21.5172 26.4646C26.5722 26.4646 31.1588 24.7716 34.5439 22.0145C34.6162 21.8828 34.6865 21.7499 34.7545 21.6162C31.3718 24.5141 26.6906 26.3074 21.5172 26.3074C11.2083 26.3074 2.8455 19.1707 2.8455 10.3626C2.8455 9.00278 3.04539 7.68297 3.42043 6.42285C3.31648 6.54572 3.21401 6.66964 3.11424 6.79514C2.80991 7.94279 2.64844 9.13658 2.64844 10.3626Z" fill="#FEFEFE"/>
<path fill-rule="evenodd" clip-rule="evenodd" d="M2.52539 10.3633C2.52539 19.3183 11.0361 26.5705 21.5175 26.5705C26.485 26.5705 31.0073 24.9446 34.3936 22.2829C34.4711 22.1487 34.5467 22.0137 34.6196 21.8772C31.234 24.6838 26.6145 26.413 21.5175 26.413C11.1346 26.413 2.71026 19.2237 2.71026 10.3633C2.71026 9.09541 2.88355 7.86199 3.20957 6.67871C3.11313 6.79759 3.01854 6.91751 2.92604 7.0388C2.66383 8.11183 2.52539 9.22364 2.52539 10.3633Z" fill="#FEFEFE"/>
<path fill-rule="evenodd" clip-rule="evenodd" d="M2.40234 10.3627C2.40234 19.3703 10.9622 26.6752 21.5175 26.6752C26.4043 26.6752 30.861 25.112 34.2411 22.5417C34.3202 22.4109 34.3972 22.2792 34.4719 22.1464C31.0833 24.8569 26.527 26.5173 21.5175 26.5173C11.0607 26.5173 2.58721 19.286 2.58721 10.3627C2.58721 9.17958 2.73747 8.02677 3.02026 6.91602C2.92591 7.03699 2.83391 7.15923 2.74351 7.28263C2.52046 8.28019 2.40234 9.30949 2.40234 10.3627Z" fill="#FEFEFE"/>
<path fill-rule="evenodd" clip-rule="evenodd" d="M2.2793 10.363C2.2793 19.4338 10.8884 26.7909 21.5176 26.7909C26.3157 26.7909 30.7002 25.2947 34.0691 22.8205C34.1534 22.6875 34.235 22.5532 34.3149 22.4179C30.9317 25.0313 26.443 26.6226 21.5176 26.6226C10.9992 26.6226 2.46392 19.3496 2.46392 10.363C2.46392 9.26624 2.59189 8.195 2.83427 7.15918C2.74239 7.28215 2.65285 7.4066 2.56491 7.53188C2.37783 8.45177 2.2793 9.39752 2.2793 10.363Z" fill="#FEFEFE"/>
<path fill-rule="evenodd" clip-rule="evenodd" d="M2.14258 10.3635C2.14258 19.4968 10.8255 26.8967 21.5163 26.8967C26.2259 26.8967 30.5414 25.4634 33.8985 23.0805C33.9843 22.9512 34.0679 22.8206 34.1495 22.689C30.7752 25.2101 26.3564 26.739 21.5163 26.739C10.9241 26.739 2.33964 19.4026 2.33964 10.3635C2.33964 9.35387 2.44753 8.36555 2.6526 7.40625C2.55702 7.53952 2.46367 7.67417 2.37277 7.81007C2.2214 8.6423 2.14258 9.49502 2.14258 10.3635Z" fill="#FEFEFE"/>
<path fill-rule="evenodd" clip-rule="evenodd" d="M2.01953 10.3623C2.01953 19.5483 10.7518 27.0005 21.5165 27.0005C26.1353 27.0005 30.3778 25.6306 33.719 23.343C33.8101 23.2119 33.8992 23.0794 33.9859 22.9459C30.6213 25.3764 26.2698 26.8428 21.5165 26.8428C10.8504 26.8428 2.20428 19.4645 2.20428 10.3623C2.20428 9.44907 2.29283 8.55346 2.46021 7.68066C2.37338 7.80763 2.28791 7.93544 2.20526 8.06461C2.08382 8.8157 2.01953 9.58256 2.01953 10.3623Z" fill="#FEFEFE"/>
<path fill-rule="evenodd" clip-rule="evenodd" d="M1.89648 10.3626C1.89648 19.6121 10.678 27.1061 21.5164 27.1061C26.0441 27.1061 30.2143 25.7975 33.5363 23.6003C33.6282 23.4739 33.7184 23.3464 33.8061 23.2174C30.4562 25.5494 26.1781 26.948 21.5164 26.948C10.7886 26.948 2.08098 19.5274 2.08098 10.3626C2.08098 9.53903 2.15242 8.72982 2.28815 7.93848C2.20365 8.06776 2.12101 8.19788 2.04071 8.32926C1.94624 8.99595 1.89648 9.6743 1.89648 10.3626Z" fill="#FEFEFE"/>
<path fill-rule="evenodd" clip-rule="evenodd" d="M1.77344 10.3645C1.77344 19.6768 10.6166 27.2232 21.5167 27.2232C25.9474 27.2232 30.037 25.9791 33.332 23.8777C33.4326 23.7455 33.5318 23.6122 33.6277 23.4773C30.2968 25.7179 26.0907 27.0552 21.5167 27.0552C10.715 27.0552 1.95806 19.5824 1.95806 10.3645C1.95806 9.63135 2.01398 8.90948 2.12137 8.20117C2.03898 8.33308 1.9588 8.46625 1.88071 8.60047C1.81014 9.18024 1.77344 9.76872 1.77344 10.3645Z" fill="#FEFEFE"/>
<path fill-rule="evenodd" clip-rule="evenodd" d="M1.63867 10.3638C1.63867 19.7288 10.5433 27.3279 21.5173 27.3279C25.8577 27.3279 29.8705 26.141 33.138 24.1285C33.2386 24.0017 33.3367 23.8733 33.433 23.7439C30.1243 25.8932 25.9956 27.1702 21.5173 27.1702C10.6418 27.1702 1.83549 19.6447 1.83549 10.3638C1.83549 9.72066 1.87921 9.08635 1.96161 8.46191C1.87601 8.60528 1.79398 8.75032 1.71355 8.89621C1.66503 9.37991 1.63867 9.86918 1.63867 10.3638Z" fill="#FEFEFE"/>
<path fill-rule="evenodd" clip-rule="evenodd" d="M1.51562 10.3637C1.51562 19.7915 10.4696 27.433 21.5175 27.433C25.7583 27.433 29.6915 26.3059 32.9295 24.3852C33.0348 24.2582 33.1374 24.1293 33.2383 23.9995C29.9561 26.0578 25.9044 27.2751 21.5175 27.2751C10.5805 27.2751 1.70049 19.6973 1.70049 10.3637C1.70049 9.82167 1.73165 9.28583 1.79003 8.75684C1.71244 8.89431 1.6378 9.03316 1.56477 9.17274C1.53299 9.56636 1.51562 9.96324 1.51562 10.3637Z" fill="#FEFEFE"/>
<path fill-rule="evenodd" clip-rule="evenodd" d="M1.39258 10.3629C1.39258 19.8536 10.4083 27.5372 21.5176 27.5372C25.6597 27.5372 29.5093 26.4709 32.7102 24.6427C32.8183 24.518 32.9238 24.3918 33.0274 24.2642C29.7755 26.226 25.8052 27.3792 21.5176 27.3792C10.5067 27.3792 1.5772 19.759 1.5772 10.3629C1.5772 9.91605 1.59765 9.47324 1.6373 9.03516C1.56291 9.17369 1.49037 9.31306 1.42066 9.45379C1.40231 9.75482 1.39258 10.0579 1.39258 10.3629Z" fill="#FEFEFE"/>
<path fill-rule="evenodd" clip-rule="evenodd" d="M1.26953 10.3638C1.26953 19.9073 10.3341 27.6537 21.5176 27.6537C25.5559 27.6537 29.3167 26.6455 32.4751 24.909C32.5924 24.7795 32.707 24.6484 32.8196 24.5157C29.5999 26.3895 25.7088 27.4854 21.5176 27.4854C10.4329 27.4854 1.45415 19.8231 1.45415 10.3638C1.45415 10.011 1.46819 9.66106 1.49283 9.31348C1.42102 9.45463 1.35107 9.59663 1.28406 9.73989C1.27544 9.94705 1.26953 10.1549 1.26953 10.3638Z" fill="#FEFEFE"/>
<path fill-rule="evenodd" clip-rule="evenodd" d="M1.13281 10.3637C1.13281 19.9706 10.2591 27.7586 21.5165 27.7586C25.4541 27.7586 29.1301 26.8047 32.2469 25.1545C32.3637 25.0307 32.4784 24.9057 32.5908 24.7789C29.4108 26.5622 25.6064 27.6011 21.5165 27.6011C10.37 27.6011 1.32975 19.8756 1.32975 10.3637C1.32975 10.1072 1.33751 9.85236 1.35057 9.59863C1.27679 9.75219 1.20536 9.9068 1.13725 10.0627C1.13528 10.1629 1.13281 10.263 1.13281 10.3637Z" fill="#FEFEFE"/>
<path fill-rule="evenodd" clip-rule="evenodd" d="M1.00977 10.3644C1.0105 20.0338 10.1984 27.8635 21.5166 27.8635C25.3475 27.8635 28.9327 26.9674 32.0015 25.4088C32.1237 25.2847 32.2444 25.1595 32.362 25.0321C29.2245 26.7247 25.506 27.7055 21.5166 27.7055C10.2963 27.7055 1.19463 19.9381 1.19463 10.3632C1.19463 10.2147 1.19697 10.0666 1.20128 9.91895C1.13478 10.0663 1.07098 10.2148 1.00977 10.3644Z" fill="#FEFEFE"/>
<path fill-rule="evenodd" clip-rule="evenodd" d="M0.890625 10.665C1.07919 20.2482 10.2415 27.9691 21.5162 27.9691C25.243 27.9691 28.738 27.127 31.7553 25.6543C31.8799 25.5331 32.0029 25.4104 32.1229 25.2857C29.0297 26.8886 25.3988 27.8115 21.5162 27.8115C10.222 27.8115 1.07081 20.0023 1.07081 10.364C1.07081 10.3128 1.07254 10.262 1.07303 10.2109C1.00935 10.3612 0.948881 10.5126 0.890625 10.665Z" fill="#FEFEFE"/>
<path fill-rule="evenodd" clip-rule="evenodd" d="M0.777344 10.9729C1.15361 20.4759 10.2894 28.0843 21.5169 28.0843C25.13 28.0843 28.5275 27.2957 31.487 25.9103C31.6216 25.7849 31.7537 25.6576 31.8835 25.5284C28.8393 27.0457 25.2976 27.9162 21.5169 27.9162C10.218 27.9162 1.04239 20.1324 0.950635 10.5088C0.889792 10.6623 0.832644 10.8173 0.777344 10.9729Z" fill="#FEFEFE"/>
<path fill-rule="evenodd" clip-rule="evenodd" d="M0.658203 11.3222C1.24224 20.7243 10.3649 28.1894 21.5166 28.1894C25.0207 28.1894 28.3219 27.4528 31.2214 26.1527C31.3543 26.0342 31.4845 25.9134 31.6129 25.7913C28.6266 27.2175 25.184 28.0317 21.5166 28.0317C10.2657 28.0317 1.11551 20.3631 0.831741 10.8203C0.770529 10.9863 0.713011 11.1538 0.658203 11.3222Z" fill="#FEFEFE"/>
<path fill-rule="evenodd" clip-rule="evenodd" d="M0.558594 11.6399C1.3264 20.9451 10.4175 28.2943 21.5166 28.2943C24.9078 28.2943 28.1104 27.6086 30.9463 26.3928C31.0843 26.2747 31.2196 26.1542 31.3531 26.0325C28.4235 27.3743 25.0746 28.1362 21.5166 28.1362C10.3265 28.1362 1.20052 20.6073 0.711316 11.1611C0.657617 11.3197 0.606504 11.4793 0.558594 11.6399Z" fill="#FEFEFE"/>
<path fill-rule="evenodd" clip-rule="evenodd" d="M0.464844 11.9663C1.41456 21.179 10.4727 28.4002 21.516 28.4002C24.7919 28.4002 27.8941 27.7645 30.6625 26.6301C30.804 26.5144 30.9427 26.3963 31.0797 26.2766C28.2124 27.5332 24.9612 28.2426 21.516 28.2426C10.3902 28.2426 1.28363 20.8303 0.60759 11.4805C0.557462 11.6416 0.509059 11.8033 0.464844 11.9663Z" fill="#FEFEFE"/>
<path fill-rule="evenodd" clip-rule="evenodd" d="M0.378906 12.3025C1.51226 21.4177 10.5451 28.5156 21.5161 28.5156C24.6669 28.5156 27.6568 27.9309 30.3465 26.8823C30.5005 26.7621 30.6517 26.6391 30.8008 26.5146C27.9997 27.6877 24.8489 28.3475 21.5161 28.3475C10.4465 28.3475 1.3721 21.0648 0.510322 11.8076C0.463643 11.9717 0.419304 12.1364 0.378906 12.3025Z" fill="#FEFEFE"/>
<path fill-rule="evenodd" clip-rule="evenodd" d="M0.292969 12.6788C1.62671 21.6665 10.6233 28.6211 21.516 28.6211C24.5491 28.6211 27.4331 28.0818 30.046 27.1116C30.1982 26.998 30.3478 26.8819 30.4956 26.7641C27.7685 27.8534 24.7259 28.4632 21.516 28.4632C10.5159 28.4632 1.46549 21.301 0.420936 12.1377C0.374873 12.317 0.331642 12.4973 0.292969 12.6788Z" fill="#FEFEFE"/>
<path fill-rule="evenodd" clip-rule="evenodd" d="M0.226562 13.0225C1.73593 21.9044 10.6909 28.7251 21.518 28.7251C24.4281 28.7251 27.2031 28.2313 29.7357 27.3383C29.893 27.2261 30.0478 27.1117 30.2005 26.9952C27.5484 28.0051 24.6106 28.5673 21.518 28.5673C10.5926 28.5673 1.57754 21.5449 0.333838 12.5049C0.294795 12.6765 0.258831 12.849 0.226562 13.0225Z" fill="#FEFEFE"/>
<path fill-rule="evenodd" clip-rule="evenodd" d="M0.166016 13.3763C1.85176 22.1464 10.7724 28.8302 21.518 28.8302C24.3024 28.8302 26.9636 28.3819 29.4086 27.566C29.5697 27.4565 29.7286 27.3446 29.8851 27.2305C27.3142 28.1592 24.4868 28.6729 21.518 28.6729C10.6575 28.6729 1.68191 21.7843 0.260359 12.8486C0.225503 13.0236 0.193974 13.1994 0.166016 13.3763Z" fill="#FEFEFE"/>
<path fill-rule="evenodd" clip-rule="evenodd" d="M0.113281 13.7377C1.97256 22.3864 10.8467 28.9459 21.5173 28.9459C24.1652 28.9459 26.702 28.5424 29.0486 27.8044C29.2261 27.6897 29.4011 27.5725 29.5734 27.4525C27.0838 28.3069 24.3652 28.7781 21.5173 28.7781C10.737 28.7781 1.79373 22.0267 0.193953 13.2012C0.163286 13.3791 0.136682 13.5579 0.113281 13.7377Z" fill="#FEFEFE"/>
<path fill-rule="evenodd" clip-rule="evenodd" d="M0.0664062 14.1431C2.11388 22.6528 10.9389 29.052 21.5168 29.052C24.0358 29.052 26.4548 28.688 28.7071 28.0201C28.8807 27.9133 29.0518 27.804 29.2207 27.6922C26.8265 28.4681 24.2304 28.8942 21.5168 28.8942C10.8081 28.8942 1.91004 22.2638 0.137348 13.5557C0.109267 13.7503 0.0858661 13.9462 0.0664062 14.1431Z" fill="#FEFEFE"/>
<path fill-rule="evenodd" clip-rule="evenodd" d="M0.0351562 14.5139C2.25001 22.8989 11.0307 29.1559 21.5171 29.1559C23.9019 29.1559 26.1974 28.8318 28.3484 28.2342C28.5273 28.1297 28.7039 28.0225 28.8782 27.9126C26.5786 28.6147 24.101 28.9983 21.5171 28.9983C10.8982 28.9983 2.04777 22.5252 0.086392 13.9521C0.0652078 14.1384 0.0484579 14.3258 0.0351562 14.5139Z" fill="#FEFEFE"/>
<path fill-rule="evenodd" clip-rule="evenodd" d="M0.0136719 14.8924C2.39147 23.142 11.116 29.2614 21.5169 29.2614C23.766 29.2614 25.9359 28.9749 27.9809 28.444C28.1647 28.3421 28.3461 28.2375 28.5252 28.1302C26.324 28.7616 23.9673 29.1043 21.5169 29.1043C10.9875 29.1043 2.17963 22.7727 0.0492663 14.3223C0.0331319 14.5112 0.0218007 14.7015 0.0136719 14.8924Z" fill="#FEFEFE"/>
<path fill-rule="evenodd" clip-rule="evenodd" d="M0.00195312 15.2835C2.54023 23.3989 11.206 29.3774 21.5162 29.3774C23.6127 29.3774 25.6414 29.1297 27.5649 28.6676C27.7676 28.5617 27.9675 28.4523 28.1649 28.34C26.0666 28.904 23.8332 29.2089 21.5162 29.2089C11.0714 29.2089 2.31755 23.0157 0.0215365 14.6992C0.0105749 14.893 0.00453956 15.0879 0.00195312 15.2835Z" fill="#FEFEFE"/>
<path fill-rule="evenodd" clip-rule="evenodd" d="M0.00369476 15.7139C2.71662 23.671 11.3254 29.4826 21.5168 29.4826C23.4701 29.4826 25.3646 29.269 27.1705 28.8687C27.3687 28.771 27.564 28.6697 27.7574 28.5659C25.7778 29.059 23.684 29.3247 21.5168 29.3247C11.1611 29.3247 2.4645 23.2727 0.00554251 15.0889C0.00209393 15.2127 0 15.337 0 15.4616C0 15.546 0.00209363 15.6299 0.00369476 15.7139Z" fill="#FEFEFE"/>
<path fill-rule="evenodd" clip-rule="evenodd" d="M0.0166268 16.1177C2.88277 23.9233 11.4251 29.5877 21.5161 29.5877C23.3237 29.5877 25.081 29.4051 26.7653 29.0625C26.9693 28.9679 27.1701 28.8692 27.3692 28.7682C25.5036 29.1991 23.5416 29.4304 21.5161 29.4304C11.2764 29.4304 2.63496 23.5426 0 15.5137C0.000985309 15.716 0.00689686 15.9173 0.0166268 16.1177Z" fill="#FEFEFE"/>
<path fill-rule="evenodd" clip-rule="evenodd" d="M0.0437768 16.5309C3.05907 24.183 11.5308 29.692 21.5166 29.692C23.1732 29.692 24.7878 29.5391 26.3434 29.2512C26.554 29.1595 26.7615 29.0639 26.9673 28.9654C25.222 29.3364 23.3966 29.5344 21.5166 29.5344C11.3733 29.5344 2.79648 23.7904 0.0078125 15.9082C0.0152023 16.1168 0.0272729 16.3243 0.0437768 16.5309Z" fill="#FEFEFE"/>
<path fill-rule="evenodd" clip-rule="evenodd" d="M0.0823983 16.9421C3.24228 24.4398 11.6464 29.8077 21.5161 29.8077C23.0017 29.8077 24.4534 29.685 25.8596 29.4532C26.0927 29.3591 26.3229 29.2607 26.5505 29.1585C24.9314 29.4729 23.2464 29.6394 21.5161 29.6394C11.4748 29.6394 2.96664 24.0496 0.0273438 16.3174C0.0410149 16.5268 0.0593667 16.7351 0.0823983 16.9421Z" fill="#FEFEFE"/>
<path fill-rule="evenodd" clip-rule="evenodd" d="M0.141465 17.4071C3.45506 24.7225 11.7765 29.9134 21.5159 29.9134C22.84 29.9134 24.1373 29.8164 25.3996 29.6325C25.6273 29.5472 25.8529 29.4582 26.0755 29.3652C24.6024 29.6212 23.0776 29.7558 21.5159 29.7558C11.5905 29.7558 3.14863 24.3147 0.0605469 16.7344C0.0821005 16.9599 0.108704 17.1843 0.141465 17.4071Z" fill="#FEFEFE"/>
<path fill-rule="evenodd" clip-rule="evenodd" d="M0.214399 17.848C3.66323 24.991 11.8994 30.0179 21.5164 30.0179C22.6745 30.0179 23.8125 29.9441 24.9248 29.8035C25.1625 29.7213 25.3979 29.6353 25.6304 29.5448C24.296 29.7519 22.9212 29.8607 21.5164 29.8607C11.7196 29.8607 3.3584 24.5897 0.113281 17.1924C0.141978 17.4123 0.174986 17.631 0.214399 17.848Z" fill="#FEFEFE"/>
<path fill-rule="evenodd" clip-rule="evenodd" d="M0.302868 18.2911C3.8836 25.2559 12.0353 30.1234 21.5161 30.1234C22.5027 30.1234 23.4749 30.0703 24.4291 29.9682C24.6789 29.8891 24.9265 29.8059 25.171 29.7178C23.9805 29.8801 22.7599 29.9658 21.5161 29.9658C11.8395 29.9658 3.56116 24.8592 0.177734 17.6318C0.214314 17.8531 0.255573 18.0729 0.302868 18.2911Z" fill="#FEFEFE"/>
<path fill-rule="evenodd" clip-rule="evenodd" d="M0.415444 18.7608C4.12205 25.5394 12.1755 30.2395 21.5178 30.2395C22.3094 30.2395 23.0915 30.2055 23.8626 30.1397C24.1398 30.0607 24.4142 29.9761 24.6853 29.8861C23.6496 30.0072 22.5925 30.0712 21.5178 30.0712C11.9743 30.0712 3.77756 25.1287 0.259766 18.0752C0.305829 18.3055 0.35768 18.5341 0.415444 18.7608Z" fill="#FEFEFE"/>
<path fill-rule="evenodd" clip-rule="evenodd" d="M0.555099 19.2708C4.39238 25.8346 12.3364 30.3434 21.5173 30.3434C22.1224 30.3434 22.7221 30.3238 23.3156 30.2854C23.5883 30.2159 23.8581 30.1409 24.1253 30.061C23.2691 30.1426 22.3991 30.186 21.5173 30.186C12.1062 30.186 4.0027 25.4008 0.357422 18.5283C0.416294 18.7781 0.48231 19.0256 0.555099 19.2708Z" fill="#FEFEFE"/>
<path fill-rule="evenodd" clip-rule="evenodd" d="M0.705788 19.7451C4.65552 26.1094 12.4949 30.4485 21.5178 30.4485C21.9313 30.4485 22.3422 30.439 22.7505 30.4212C23.0363 30.3568 23.3194 30.2869 23.5996 30.2112C22.9135 30.263 22.2196 30.2909 21.5178 30.2909C12.2649 30.2909 4.26793 25.6961 0.488281 19.0352C0.554543 19.274 0.62684 19.5108 0.705788 19.7451Z" fill="#FEFEFE"/>
<path fill-rule="evenodd" clip-rule="evenodd" d="M0.890488 20.2591C4.947 26.4041 12.6633 30.5547 21.5174 30.5547C21.7301 30.5547 21.9421 30.552 22.1535 30.5472C22.4547 30.4888 22.7531 30.4242 23.0486 30.3532C22.5423 30.3811 22.032 30.3967 21.5174 30.3967C12.4216 30.3967 4.52788 25.978 0.630859 19.5156C0.7103 19.766 0.796884 20.0139 0.890488 20.2591Z" fill="#FEFEFE"/>
<path fill-rule="evenodd" clip-rule="evenodd" d="M1.10431 20.7901C5.24938 26.6947 12.8087 30.6514 21.4583 30.6693C21.7963 30.6156 22.1309 30.5537 22.462 30.4842C22.1484 30.4947 21.8337 30.5017 21.5171 30.5017C12.5785 30.5017 4.79959 26.2582 0.794922 20.0039C0.890251 20.269 0.993093 20.5313 1.10431 20.7901Z" fill="#FEFEFE"/>
<path fill-rule="evenodd" clip-rule="evenodd" d="M1.36435 21.3571C5.49403 26.8565 12.6299 30.5567 20.7884 30.7655C21.1253 30.7231 21.4594 30.6733 21.7901 30.6153C21.6992 30.6163 21.6086 30.6183 21.5175 30.6183C12.7534 30.6183 5.10323 26.5609 0.996094 20.5283C1.1099 20.8083 1.23269 21.0846 1.36435 21.3571Z" fill="#FEFEFE"/>
<path fill-rule="evenodd" clip-rule="evenodd" d="M1.65153 21.9215C5.72701 27.0117 12.4186 30.4556 20.0743 30.8422C20.4298 30.8096 20.782 30.768 21.131 30.7182C12.7313 30.6045 5.3808 26.7822 1.23438 21.084C1.36394 21.3673 1.50324 21.6465 1.65153 21.9215Z" fill="#FEFEFE"/>
<path fill-rule="evenodd" clip-rule="evenodd" d="M1.98736 22.5128C5.97293 27.1711 12.1915 30.3482 19.3031 30.8988C19.6865 30.8777 20.0669 30.8474 20.4434 30.8063C12.5273 30.5085 5.60738 26.9328 1.5 21.6318C1.65223 21.9303 1.81407 22.2245 1.98736 22.5128Z" fill="#FEFEFE"/>
<path fill-rule="evenodd" clip-rule="evenodd" d="M2.38236 23.1336C6.22112 27.3199 11.9027 30.2163 18.3843 30.9294C18.8232 30.9239 19.2584 30.9052 19.6892 30.8737C12.3041 30.4016 5.84855 27.0907 1.81445 22.2158C1.99218 22.5278 2.18136 22.8338 2.38236 23.1336Z" fill="#FEFEFE"/>
<path fill-rule="evenodd" clip-rule="evenodd" d="M2.87813 23.8289C6.53535 27.5113 11.6631 30.0965 17.4878 30.9222C17.6972 30.9284 17.907 30.9326 18.1181 30.9326C18.3523 30.9326 18.5848 30.9276 18.8167 30.9201C12.0331 30.2772 6.09356 27.2425 2.18164 22.8252C2.39927 23.1677 2.6318 23.5025 2.87813 23.8289Z" fill="#FEFEFE"/>
<path fill-rule="evenodd" clip-rule="evenodd" d="M3.44784 24.5396C6.8522 27.6972 11.3774 29.9606 16.4835 30.8692C16.9665 30.9061 17.455 30.9268 17.9481 30.9308C11.7923 30.1589 6.38406 27.4206 2.62695 23.4883C2.88387 23.8489 3.15828 24.1991 3.44784 24.5396Z" fill="#FEFEFE"/>
<path fill-rule="evenodd" clip-rule="evenodd" d="M4.14281 25.3071C7.20047 27.8959 11.0472 29.8069 15.3482 30.752C15.8908 30.8231 16.4413 30.8725 16.9984 30.9015C11.5254 30.0303 6.6939 27.6059 3.1543 24.1846C3.46442 24.5717 3.79389 24.9465 4.14281 25.3071Z" fill="#FEFEFE"/>
<path fill-rule="evenodd" clip-rule="evenodd" d="M5.14721 26.2603C7.65297 28.1425 10.6072 29.5997 13.8559 30.5001C14.5329 30.6395 15.2247 30.7464 15.9287 30.8192C11.2197 29.8861 7.0289 27.7988 3.78711 24.9258C4.21079 25.3927 4.6649 25.8381 5.14721 26.2603Z" fill="#FEFEFE"/>
<path fill-rule="evenodd" clip-rule="evenodd" d="M6.66427 27.4484C8.28732 28.4777 10.062 29.3422 11.954 30.0138C12.8046 30.2767 13.6848 30.4861 14.589 30.6388C10.8144 29.6996 7.41335 28.0129 4.61914 25.7793C5.249 26.3798 5.93268 26.9381 6.66427 27.4484Z" fill="#FEFEFE"/>
<path fill-rule="evenodd" clip-rule="evenodd" d="M12.9705 30.2976C10.2761 29.6166 7.84366 28.415 5.83203 26.8291C7.95057 28.3007 10.3574 29.4813 12.9705 30.2976Z" fill="#FEFEFE"/>
<path fill-rule="evenodd" clip-rule="evenodd" d="M10.0755 29.3281C9.44963 29.0627 8.84416 28.7675 8.26172 28.4443C8.85056 28.7595 9.45517 29.0548 10.0755 29.3281Z" fill="#FEFEFE"/>
<path fill-rule="evenodd" clip-rule="evenodd" d="M27.3915 2.68014C32.2072 5.52862 33.9317 10.5205 31.2466 13.8213C28.5616 17.1321 22.4897 17.4999 17.6739 14.6515C12.8583 11.8031 11.134 6.82111 13.819 3.5211C16.5039 0.20995 22.5882 -0.157818 27.3915 2.68014Z" fill="#B2B3B3"/>
<path fill-rule="evenodd" clip-rule="evenodd" d="M24.9034 5.15004C25.2726 5.5075 25.6669 5.88567 26.0734 6.28539C26.5045 6.71622 26.9724 7.17858 27.4527 7.68288C27.6004 7.63064 27.3788 7.57798 27.97 7.64094C28.5488 7.71441 30.2733 8.66068 31.4309 10.3106C32.5887 11.9503 32.958 14.0105 31.4431 14.063C29.9282 14.1158 27.625 11.3933 27.1201 10.0162C26.6152 8.63955 26.7753 8.69221 26.8985 8.28209C26.3935 7.72481 25.9254 7.22052 25.4821 6.73703C25.0632 6.28539 24.6692 5.87527 24.2874 5.48627C24.1272 5.5075 23.9301 5.4971 23.7456 5.47597C23.5609 5.45484 23.4253 5.41249 23.2527 5.36025C23.0928 5.68576 22.9203 6.04323 22.7233 6.43222C22.5016 6.85265 22.2551 7.32541 21.9596 7.85126C22.3662 8.34515 22.6249 8.28209 22.6863 9.76408C22.7479 11.2462 21.036 14.3886 18.5602 14.4732C16.0724 14.5465 15.3581 11.0463 16.0478 9.43857C16.7252 7.84085 16.8362 8.06147 17.378 7.61982C17.1686 6.97878 16.9592 6.39029 16.762 5.85456C16.5897 5.36025 16.4051 4.89747 16.2449 4.47736C16.0846 4.46664 16.6022 4.54042 15.7645 4.44593C14.9392 4.34062 13.6584 3.39467 14.2618 2.76435C14.8654 2.13329 16.0724 1.9338 17.0701 2.10176C18.0677 2.28044 18.7081 2.94271 18.5973 3.40507C18.4989 3.87815 18.1661 4.05694 17.6242 4.25674C17.809 4.61389 18.0185 5.00278 18.2155 5.41249C18.4372 5.85456 18.6712 6.32722 18.9175 6.84235C19.25 6.76856 19.6319 6.74775 19.952 6.77928C20.2724 6.79999 20.5186 6.87377 20.7774 6.97877C21.0974 6.52671 21.3808 6.12742 21.6394 5.74882C21.8611 5.41249 22.0705 5.0977 22.2551 4.8137C21.8981 4.5297 21.6888 4.33021 21.6148 3.87815C21.5409 3.42619 22.1321 2.98465 22.945 3.13222C23.7578 3.26864 24.6692 3.96234 24.8909 4.40358C25.1128 4.84523 25.0264 4.95013 24.9034 5.15004Z" fill="#8B8C30"/>
<path fill-rule="evenodd" clip-rule="evenodd" d="M24.9781 4.92927C25.3476 5.27633 25.7293 5.65461 26.1358 6.05422C26.5547 6.47433 27.0104 6.92639 27.4908 7.42059C27.626 7.37834 27.4169 7.31528 27.9833 7.37834C28.5622 7.45213 30.2618 8.38767 31.3949 9.99537C32.5282 11.6143 32.8851 13.6321 31.3949 13.6851C29.917 13.7269 27.6508 11.0678 27.1581 9.71169C26.653 8.36655 26.8256 8.40838 26.9363 8.00908C26.4437 7.46253 25.9879 6.95792 25.5445 6.49555C25.1383 6.05422 24.7441 5.6442 24.3746 5.2552C24.2269 5.28673 24.0297 5.27633 23.845 5.2552C23.6724 5.2345 23.5248 5.19214 23.3647 5.1399C23.2045 5.46583 23.0322 5.81216 22.8474 6.19075C22.6258 6.61159 22.3795 7.07395 22.0961 7.58855C22.4902 8.06174 22.7488 8.00908 22.8105 9.45965C22.872 10.9205 21.1847 14.0107 18.746 14.0844C16.3197 14.1579 15.6177 10.721 16.2826 9.14443C16.9478 7.57825 17.0588 7.78846 17.5883 7.35721C17.3911 6.72689 17.1818 6.1485 16.997 5.62339C16.8122 5.1399 16.6399 4.68795 16.4798 4.26742C16.3319 4.26742 16.8371 4.34088 16.0118 4.23557C15.1988 4.14097 13.9426 3.21625 14.534 2.59592C15.125 1.97632 16.3073 1.77652 17.2928 1.94479C18.2657 2.11275 18.8938 2.76461 18.7953 3.22697C18.6846 3.67861 18.3642 3.86812 17.8346 4.05721C18.0195 4.41467 18.2164 4.79284 18.4258 5.19214C18.6351 5.62339 18.8691 6.09615 19.1031 6.60045C19.4357 6.52698 19.8051 6.49556 20.1256 6.52698C20.4457 6.55852 20.6797 6.622 20.926 6.7269C21.2462 6.28566 21.5295 5.88594 21.7757 5.5289C21.9977 5.19214 22.2069 4.88744 22.3917 4.60376C22.0344 4.32008 21.825 4.12027 21.7512 3.67862C21.6773 3.23738 22.2685 2.81685 23.0691 2.95338C23.8572 3.09013 24.7565 3.7628 24.9658 4.19363C25.1876 4.63487 25.1014 4.7406 24.9781 4.92927Z" fill="#FEFEFE"/>
<path d="M219.219 26.8652C219.182 27.0542 219.083 27.2016 218.899 27.3168C218.726 27.4328 218.517 27.4851 218.283 27.4851C218.036 27.4851 217.827 27.4328 217.654 27.3168C217.482 27.2016 217.371 27.0542 217.347 26.8652H217.79C217.864 27.0542 218.024 27.1384 218.27 27.1384C218.529 27.1384 218.702 27.0542 218.776 26.8652H219.219ZM220.081 27.6638V30.922H218.972V29.1355L217.556 30.922H216.435V27.6638H217.544V29.472L218.984 27.6638H220.081ZM207.456 27.6638V30.922H206.348V29.1355L204.92 30.922H203.811V27.6638H204.92V29.472L206.348 27.6638H207.456ZM191.174 27.6638H192.357V28.7989H193.65V27.6638H194.832V30.922H193.65V29.6083H192.357V30.922H191.174V27.6638ZM180.939 29.6817L180.521 28.5153L180.102 29.6817H180.939ZM181.186 30.3862H179.855L179.658 30.922H178.451L179.892 27.6638H181.186L182.614 30.922H181.383L181.186 30.3862ZM169.867 30.922H168.684V28.4625H167.392V30.922H166.209V27.6638H169.867V30.922ZM152.981 27.6638H154.533L155.124 29.6502L155.728 27.6638H157.267V30.922H156.307V28.4418L155.568 30.922H154.693L153.942 28.4418V30.922H152.981V27.6638ZM141.392 29.3035C141.392 29.6295 141.466 29.8608 141.601 30.0077C141.748 30.1548 141.946 30.2285 142.192 30.2285C142.451 30.2285 142.648 30.1548 142.783 30.018C142.919 29.8713 142.992 29.6186 142.992 29.2509C142.992 28.946 142.919 28.7254 142.771 28.589C142.623 28.4418 142.426 28.3679 142.18 28.3679C141.946 28.3679 141.748 28.4418 141.613 28.589C141.466 28.7254 141.392 28.9671 141.392 29.3035ZM140.209 29.2928C140.209 28.7674 140.382 28.3472 140.727 28.0527C141.084 27.7584 141.564 27.6112 142.18 27.6112C142.82 27.6112 143.313 27.7584 143.658 28.0527C144.003 28.3365 144.175 28.7465 144.175 29.2721C144.175 29.6502 144.101 29.9656 143.941 30.2075C143.793 30.4492 143.572 30.6383 143.288 30.7752C143.005 30.9116 142.66 30.9854 142.229 30.9854C141.798 30.9854 141.441 30.922 141.158 30.8063C140.874 30.691 140.653 30.5016 140.48 30.2496C140.295 29.9973 140.209 29.6817 140.209 29.2928ZM131.76 30.922H130.43L129.962 30.0811C129.851 29.8924 129.765 29.7663 129.716 29.7132C129.654 29.6609 129.568 29.6398 129.457 29.6398V30.922H128.287V27.6638H129.457V28.9146C129.568 28.9146 129.642 28.883 129.703 28.82C129.753 28.7674 129.851 28.5994 129.975 28.3261C130.061 28.1262 130.147 27.979 130.233 27.8952C130.331 27.8004 130.48 27.7373 130.676 27.7058C130.886 27.6638 131.193 27.6427 131.637 27.6427V28.3261H131.575C131.366 28.3261 131.218 28.3679 131.119 28.4311C131.033 28.4941 130.947 28.5994 130.886 28.7465C130.824 28.8935 130.75 28.9987 130.689 29.0725C130.615 29.1459 130.516 29.1986 130.393 29.2404C130.553 29.2928 130.701 29.3774 130.837 29.4929C130.96 29.6083 131.095 29.7871 131.23 30.0391L131.76 30.922ZM106.659 29.6817L106.241 28.5153L105.822 29.6817H106.659ZM106.906 30.3862H105.576L105.379 30.922H104.171L105.613 27.6638H106.906L108.334 30.922H107.103L106.906 30.3862ZM95.587 30.922H94.417V28.4625H93.1113V30.922H91.9411V27.6638H95.587V30.922ZM82.9627 30.922H81.7805V28.4625H80.487V30.922H79.3048V27.6638H82.9627V30.922ZM67.1733 27.6638H68.4542L68.9834 29.0094L69.5135 27.6638H70.7078L69.4518 30.1867C69.3532 30.3862 69.2671 30.533 69.1928 30.6383C69.1068 30.7328 68.996 30.817 68.8483 30.8801C68.7005 30.9539 68.4911 30.9854 68.2321 30.9854C68.0965 30.9854 67.8507 30.9644 67.5178 30.9323V30.2602C67.7151 30.2706 67.8629 30.2809 67.9493 30.2809C68.2199 30.2809 68.3925 30.1971 68.4542 30.0288L67.1733 27.6638ZM56.6799 29.0617H56.9627C57.1969 29.0617 57.3571 29.0198 57.4554 28.9564C57.5419 28.8935 57.5909 28.7989 57.5909 28.694C57.5909 28.5994 57.554 28.5044 57.468 28.4418C57.3815 28.3679 57.2337 28.3261 57.0122 28.3261H56.6799V29.0617ZM55.4971 27.6638H57.4554C57.8864 27.6638 58.2066 27.7477 58.4161 27.9268C58.6255 28.0948 58.7367 28.3472 58.7367 28.6732C58.7367 28.9987 58.6133 29.2509 58.3917 29.4403C58.1576 29.6295 57.8004 29.7239 57.3202 29.7239H56.6799V30.922H55.4971V27.6638ZM46.7773 28.4625H44.9298V30.922H43.7598V27.6638H46.7773V28.4625Z" fill="#156F82"/>
<path fill-rule="evenodd" clip-rule="evenodd" d="M41.3594 25.6884H223.001V24.5107H41.3594V25.6884Z" fill="#156F82"/>
<path d="M86.1289 23.0074H92.0037V12.4819C90.568 12.4629 89.2041 12.4521 87.9316 12.4521C87.3285 12.4521 86.728 12.454 86.1289 12.457V23.0074Z" fill="#156F82"/>
<path d="M98.5918 23.008H110.957V18.9197H104.282V16.681H110.009V13.6327H104.282C104.282 13.6223 104.282 13.6116 104.282 13.6116C104.33 13.3227 104.447 13.0472 104.614 12.7967C102.53 12.7272 100.518 12.6666 98.5918 12.6162V23.008Z" fill="#156F82"/>
<path d="M116.771 22.3774C118.878 21.7468 120.146 19.8339 120.934 17.3743C121.428 15.8315 121.564 15.2841 121.883 13.4789C119.933 13.393 118.004 13.3104 116.103 13.2314C116.013 13.9505 115.927 14.631 115.762 15.3038C115.367 16.9225 114.862 18.7935 112.424 18.8565V22.9556C114.172 22.9763 115.059 22.8817 116.771 22.3774ZM124.752 13.6067V22.6926H130.652V13.8767C128.677 13.7848 126.707 13.6946 124.752 13.6067Z" fill="#156F82"/>
<path d="M156.43 15.3879L156.431 15.0977C154.505 15.0084 152.538 14.9159 150.543 14.8213V23.008H156.43V18.4154H156.898C157.97 18.4154 158.734 18.3624 159.411 18.2678C160.101 18.1733 160.717 18.0472 161.271 17.8684C162.022 17.6272 162.651 17.322 163.155 16.9541C163.66 16.5967 164.067 16.187 164.374 15.7454C164.43 15.6618 164.484 15.5662 164.534 15.4627C162.687 15.3827 160.78 15.2972 158.827 15.208C158.648 15.2602 158.453 15.2973 158.241 15.3253C157.921 15.3672 157.564 15.3879 157.194 15.3879H156.43Z" fill="#156F82"/>
<path d="M53.4419 14.13V14.8738C53.4419 15.3361 53.405 15.7985 53.2568 16.1559C52.8749 17.091 52.1607 18.2156 50.5721 18.2156C48.8426 18.2156 47.974 16.9602 47.765 14.8257C45.3705 15.1647 43.364 15.5187 41.8164 15.8725C42.1588 20.91 44.7791 23.0085 48.2441 23.0085C51.5575 23.0085 53.2938 21.0537 54.0081 19.8868H54.1193L54.6242 22.7253H59.5996C59.5135 21.1379 59.1933 18.9518 59.1933 16.4607V13.5889C57.1614 13.7569 55.2382 13.9384 53.4419 14.13Z" fill="#156F82"/>
<path d="M219.489 17.8668C218.565 17.951 217.445 18.2348 216.004 18.3082C213.023 18.4453 210.474 16.7528 210.584 13.2105C210.581 13.1136 210.579 13.0178 210.58 12.9229C208.464 13.3864 206.371 13.803 204.314 14.1708C204.663 20.0199 208.95 23.2784 215.067 22.9857C217.408 22.8804 219.427 22.3445 220.486 21.84L219.489 17.8668Z" fill="#156F82"/>
<path d="M176.394 16.1336V18.8664C176.185 18.9925 175.865 19.1082 175.434 19.2239C175.003 19.3289 174.485 19.3918 173.87 19.4025C173.217 19.4025 172.687 19.2765 172.305 19.0239C171.923 18.7715 171.726 18.3936 171.726 17.8783C171.726 17.5735 171.788 17.3109 171.911 17.111C172.034 16.9011 172.231 16.7325 172.49 16.5961C172.724 16.4807 173.02 16.3858 173.365 16.3124C173.71 16.2494 174.091 16.2071 174.535 16.1967L176.394 16.1336ZM181.9 16.073C177.884 15.9918 172.83 15.8115 167.119 15.5723C167.073 15.6254 167.028 15.6795 166.985 15.7343C166.48 16.3858 166.221 17.1949 166.221 18.1834C166.234 19.1397 166.48 19.9806 166.985 20.6951C167.489 21.4205 168.179 21.9881 169.066 22.3874C169.941 22.7977 170.951 23.0073 172.084 23.0073C172.81 23.0073 173.451 22.934 174.029 22.7977C174.621 22.6607 175.138 22.4716 175.618 22.2403C176.086 22.0093 176.518 21.7464 176.9 21.4519L177.663 22.7031H182.183C182.097 22.419 182.023 22.1246 181.986 21.7882C181.937 21.4623 181.912 21.1156 181.912 20.7792C181.9 20.4327 181.9 20.1067 181.9 19.8019V16.073Z" fill="#156F82"/>
<path d="M184.869 22.8506H190.683V16.5025H195.782V22.8506H201.595V14.6338C195.459 15.6164 189.735 16.1347 184.869 16.1157V22.8506Z" fill="#156F82"/>
<path d="M61.668 22.85H67.4812V16.5018H72.5682V22.85H78.3935V12.5752C76.4115 12.626 74.4671 12.6918 72.5682 12.7704V13.4431H67.4812V13.0175C65.4726 13.1297 63.5307 13.256 61.668 13.3939V22.85Z" fill="#156F82"/>
<path d="M138.225 14.2324L138.25 23.8099H144.297L144.321 14.5236C142.302 14.4271 140.267 14.3296 138.225 14.2324Z" fill="#156F82"/>
<path d="M219.219 26.8652C219.182 27.0542 219.083 27.2016 218.899 27.3168C218.726 27.4328 218.517 27.4851 218.283 27.4851C218.036 27.4851 217.827 27.4328 217.654 27.3168C217.482 27.2016 217.371 27.0542 217.347 26.8652H217.79C217.864 27.0542 218.024 27.1384 218.27 27.1384C218.529 27.1384 218.702 27.0542 218.776 26.8652H219.219ZM220.081 27.6638V30.922H218.972V29.1355L217.556 30.922H216.435V27.6638H217.544V29.472L218.984 27.6638H220.081ZM207.456 27.6638V30.922H206.348V29.1355L204.92 30.922H203.811V27.6638H204.92V29.472L206.348 27.6638H207.456ZM191.174 27.6638H192.357V28.7989H193.65V27.6638H194.832V30.922H193.65V29.6083H192.357V30.922H191.174V27.6638ZM180.939 29.6817L180.521 28.5153L180.102 29.6817H180.939ZM181.186 30.3862H179.855L179.658 30.922H178.451L179.892 27.6638H181.186L182.614 30.922H181.383L181.186 30.3862ZM169.867 30.922H168.684V28.4625H167.392V30.922H166.209V27.6638H169.867V30.922ZM152.981 27.6638H154.533L155.124 29.6502L155.728 27.6638H157.267V30.922H156.307V28.4418L155.568 30.922H154.693L153.942 28.4418V30.922H152.981V27.6638ZM141.392 29.3035C141.392 29.6295 141.466 29.8608 141.601 30.0077C141.748 30.1548 141.946 30.2285 142.192 30.2285C142.451 30.2285 142.648 30.1548 142.783 30.018C142.919 29.8713 142.992 29.6186 142.992 29.2509C142.992 28.946 142.919 28.7254 142.771 28.589C142.623 28.4418 142.426 28.3679 142.18 28.3679C141.946 28.3679 141.748 28.4418 141.613 28.589C141.466 28.7254 141.392 28.9671 141.392 29.3035ZM140.209 29.2928C140.209 28.7674 140.382 28.3472 140.727 28.0527C141.084 27.7584 141.564 27.6112 142.18 27.6112C142.82 27.6112 143.313 27.7584 143.658 28.0527C144.003 28.3365 144.175 28.7465 144.175 29.2721C144.175 29.6502 144.101 29.9656 143.941 30.2075C143.793 30.4492 143.572 30.6383 143.288 30.7752C143.005 30.9116 142.66 30.9854 142.229 30.9854C141.798 30.9854 141.441 30.922 141.158 30.8063C140.874 30.691 140.653 30.5016 140.48 30.2496C140.295 29.9973 140.209 29.6817 140.209 29.2928ZM131.76 30.922H130.43L129.962 30.0811C129.851 29.8924 129.765 29.7663 129.716 29.7132C129.654 29.6609 129.568 29.6398 129.457 29.6398V30.922H128.287V27.6638H129.457V28.9146C129.568 28.9146 129.642 28.883 129.703 28.82C129.753 28.7674 129.851 28.5994 129.975 28.3261C130.061 28.1262 130.147 27.979 130.233 27.8952C130.331 27.8004 130.48 27.7373 130.676 27.7058C130.886 27.6638 131.193 27.6427 131.637 27.6427V28.3261H131.575C131.366 28.3261 131.218 28.3679 131.119 28.4311C131.033 28.4941 130.947 28.5994 130.886 28.7465C130.824 28.8935 130.75 28.9987 130.689 29.0725C130.615 29.1459 130.516 29.1986 130.393 29.2404C130.553 29.2928 130.701 29.3774 130.837 29.4929C130.96 29.6083 131.095 29.7871 131.23 30.0391L131.76 30.922ZM106.659 29.6817L106.241 28.5153L105.822 29.6817H106.659ZM106.906 30.3862H105.576L105.379 30.922H104.171L105.613 27.6638H106.906L108.334 30.922H107.103L106.906 30.3862ZM95.587 30.922H94.417V28.4625H93.1113V30.922H91.9411V27.6638H95.587V30.922ZM82.9627 30.922H81.7805V28.4625H80.487V30.922H79.3048V27.6638H82.9627V30.922ZM67.1733 27.6638H68.4542L68.9834 29.0094L69.5135 27.6638H70.7078L69.4518 30.1867C69.3532 30.3862 69.2671 30.533 69.1928 30.6383C69.1068 30.7328 68.996 30.817 68.8483 30.8801C68.7005 30.9539 68.4911 30.9854 68.2321 30.9854C68.0965 30.9854 67.8507 30.9644 67.5178 30.9323V30.2602C67.7151 30.2706 67.8629 30.2809 67.9493 30.2809C68.2199 30.2809 68.3925 30.1971 68.4542 30.0288L67.1733 27.6638ZM56.6799 29.0617H56.9627C57.1969 29.0617 57.3571 29.0198 57.4554 28.9564C57.5419 28.8935 57.5909 28.7989 57.5909 28.694C57.5909 28.5994 57.554 28.5044 57.468 28.4418C57.3815 28.3679 57.2337 28.3261 57.0122 28.3261H56.6799V29.0617ZM55.4971 27.6638H57.4554C57.8864 27.6638 58.2066 27.7477 58.4161 27.9268C58.6255 28.0948 58.7367 28.3472 58.7367 28.6732C58.7367 28.9987 58.6133 29.2509 58.3917 29.4403C58.1576 29.6295 57.8004 29.7239 57.3202 29.7239H56.6799V30.922H55.4971V27.6638ZM46.7773 28.4625H44.9298V30.922H43.7598V27.6638H46.7773V28.4625Z" fill="#C5C6C6"/>
<path fill-rule="evenodd" clip-rule="evenodd" d="M41.3594 25.6884H223.001V24.5107H41.3594V25.6884Z" fill="#C5C6C6"/>
<path d="M86.1289 23.0074H92.0037V12.4819C90.568 12.4629 89.2041 12.4521 87.9316 12.4521C87.3285 12.4521 86.728 12.454 86.1289 12.457V23.0074Z" fill="#C5C6C6"/>
<path d="M98.5918 23.008H110.957V18.9197H104.282V16.681H110.009V13.6327H104.282C104.282 13.6223 104.282 13.6116 104.282 13.6116C104.33 13.3227 104.447 13.0472 104.614 12.7967C102.53 12.7272 100.518 12.6666 98.5918 12.6162V23.008Z" fill="#C5C6C6"/>
<path d="M116.771 22.3774C118.878 21.7468 120.146 19.8339 120.934 17.3743C121.428 15.8315 121.564 15.2841 121.883 13.4789C119.933 13.393 118.004 13.3104 116.103 13.2314C116.013 13.9505 115.927 14.631 115.762 15.3038C115.367 16.9225 114.862 18.7935 112.424 18.8565V22.9556C114.172 22.9763 115.059 22.8817 116.771 22.3774ZM124.752 13.6067V22.6926H130.652V13.8767C128.677 13.7848 126.707 13.6946 124.752 13.6067Z" fill="#C5C6C6"/>
<path d="M156.43 15.3879L156.431 15.0977C154.505 15.0084 152.538 14.9159 150.543 14.8213V23.008H156.43V18.4154H156.898C157.97 18.4154 158.734 18.3624 159.411 18.2678C160.101 18.1733 160.717 18.0472 161.271 17.8684C162.022 17.6272 162.651 17.322 163.155 16.9541C163.66 16.5967 164.067 16.187 164.374 15.7454C164.43 15.6618 164.484 15.5662 164.534 15.4627C162.687 15.3827 160.78 15.2972 158.827 15.208C158.648 15.2602 158.453 15.2973 158.241 15.3253C157.921 15.3672 157.564 15.3879 157.194 15.3879H156.43Z" fill="#C5C6C6"/>
<path d="M53.4419 14.13V14.8738C53.4419 15.3361 53.405 15.7985 53.2568 16.1559C52.8749 17.091 52.1607 18.2156 50.5721 18.2156C48.8426 18.2156 47.974 16.9602 47.765 14.8257C45.3705 15.1647 43.364 15.5187 41.8164 15.8725C42.1588 20.91 44.7791 23.0085 48.2441 23.0085C51.5575 23.0085 53.2938 21.0537 54.0081 19.8868H54.1193L54.6242 22.7253H59.5996C59.5135 21.1379 59.1933 18.9518 59.1933 16.4607V13.5889C57.1614 13.7569 55.2382 13.9384 53.4419 14.13Z" fill="#C5C6C6"/>
<path d="M219.489 17.8668C218.565 17.951 217.445 18.2348 216.004 18.3082C213.023 18.4453 210.474 16.7528 210.584 13.2105C210.581 13.1136 210.579 13.0178 210.58 12.9229C208.464 13.3864 206.371 13.803 204.314 14.1708C204.663 20.0199 208.95 23.2784 215.067 22.9857C217.408 22.8804 219.427 22.3445 220.486 21.84L219.489 17.8668Z" fill="#C5C6C6"/>
<path d="M176.394 16.1336V18.8664C176.185 18.9925 175.865 19.1082 175.434 19.2239C175.003 19.3289 174.485 19.3918 173.87 19.4025C173.217 19.4025 172.687 19.2765 172.305 19.0239C171.923 18.7715 171.726 18.3936 171.726 17.8783C171.726 17.5735 171.788 17.3109 171.911 17.111C172.034 16.9011 172.231 16.7325 172.49 16.5961C172.724 16.4807 173.02 16.3858 173.365 16.3124C173.71 16.2494 174.091 16.2071 174.535 16.1967L176.394 16.1336ZM181.9 16.073C177.884 15.9918 172.83 15.8115 167.119 15.5723C167.073 15.6254 167.028 15.6795 166.985 15.7343C166.48 16.3858 166.221 17.1949 166.221 18.1834C166.234 19.1397 166.48 19.9806 166.985 20.6951C167.489 21.4205 168.179 21.9881 169.066 22.3874C169.941 22.7977 170.951 23.0073 172.084 23.0073C172.81 23.0073 173.451 22.934 174.029 22.7977C174.621 22.6607 175.138 22.4716 175.618 22.2403C176.086 22.0093 176.518 21.7464 176.9 21.4519L177.663 22.7031H182.183C182.097 22.419 182.023 22.1246 181.986 21.7882C181.937 21.4623 181.912 21.1156 181.912 20.7792C181.9 20.4327 181.9 20.1067 181.9 19.8019V16.073Z" fill="#C5C6C6"/>
<path d="M184.869 22.8506H190.683V16.5025H195.782V22.8506H201.595V14.6338C195.459 15.6164 189.735 16.1347 184.869 16.1157V22.8506Z" fill="#C5C6C6"/>
<path d="M61.668 22.85H67.4812V16.5018H72.5682V22.85H78.3935V12.5752C76.4115 12.626 74.4671 12.6918 72.5682 12.7704V13.4431H67.4812V13.0175C65.4726 13.1297 63.5307 13.256 61.668 13.3939V22.85Z" fill="#C5C6C6"/>
<path d="M138.225 14.2324L138.25 23.8099H144.297L144.321 14.5236C142.302 14.4271 140.267 14.3296 138.225 14.2324Z" fill="#C5C6C6"/>
<path d="M41.6914 8.91292C42.7877 6.40079 44.7828 4.87686 47.4311 3.55273H41.6914V8.91292Z" fill="#AAB028"/>
<path d="M131.971 8.91292C133.067 6.40079 135.063 4.87686 137.698 3.55273H131.971V8.91292Z" fill="#AAB028"/>
<path d="M204.365 8.91292C205.462 6.40079 207.457 4.87686 210.093 3.55273H204.365V8.91292Z" fill="#AAB028"/>
<path d="M92.0039 12.8081V11.6458H96.5735C97.2382 9.80673 98.5439 8.46106 100.896 7.45215H84.5402C82.1879 8.46106 80.5129 9.80673 79.8477 11.6458H86.1291V12.7754C86.5846 12.7738 87.0409 12.7726 87.4987 12.7726C88.8988 12.7726 90.4071 12.7851 92.0039 12.8081Z" fill="#156F82"/>
<path d="M104.431 13.1245C104.829 12.2417 105.849 11.5745 106.844 11.5297L109.701 11.3829C109.701 11.3829 112.189 7.78805 112.496 7.37793C111.893 7.37793 107.348 7.45171 105.23 7.45171C104.085 7.45171 102.988 7.73539 102.028 8.26113C100.685 8.99677 99.5276 9.95313 99.0102 10.8463C98.69 11.4144 98.5918 11.6769 98.5918 12.2865V12.9471C100.464 12.9972 102.415 13.0568 104.431 13.1245Z" fill="#156F82"/>
<path d="M121.823 13.8161C121.871 13.5489 121.923 13.2532 121.981 12.9183C122.154 11.9094 123.164 11.6042 123.718 11.6253H124.753V13.947C126.708 14.0353 128.678 14.1258 130.652 14.2177V7.47391C127.992 7.46319 125.332 7.45279 122.671 7.44238C120.282 7.75728 117.006 8.54557 116.476 10.8896C116.261 11.8621 116.167 12.7385 116.061 13.5685C117.957 13.6476 119.88 13.7303 121.823 13.8161Z" fill="#156F82"/>
<path d="M156.43 15.388L156.443 11.9723C156.443 10.217 159.201 9.99595 160.15 11.4468C160.384 11.7936 160.47 12.2037 160.458 12.6238C160.458 13.1492 160.347 13.6011 160.125 13.969C159.904 14.3371 159.559 14.9256 159.091 15.1147C158.844 15.2197 158.562 15.283 158.241 15.3253C157.921 15.3673 157.564 15.388 157.194 15.388H156.43ZM150.543 15.1623C155.366 15.3907 160.017 15.6065 164.34 15.7935L164.374 15.7455C164.67 15.3041 164.892 14.5262 165.027 14.0427C165.163 13.5697 165.224 13.0969 165.224 12.6238C165.224 11.4572 164.929 10.4794 164.362 9.67044C163.795 8.87132 162.97 8.25141 161.899 7.8313C161.308 7.59996 160.643 7.43158 159.916 7.32626C159.189 7.22137 159.042 7.20024 158.192 7.16871C154.608 7.043 150.543 9.02929 150.543 12.6449V15.1623Z" fill="#156F82"/>
<path d="M59.1927 3.55273H53.4413V14.4032C55.2411 14.2151 57.1639 14.0369 59.1927 13.8723V3.55273ZM47.793 15.0805C47.7419 14.6797 47.7159 14.2452 47.7138 13.7795L47.6769 4.28837C45.7308 5.22349 42.7258 7.65144 41.7773 11.0149V14.7146C41.7773 15.1968 41.7961 15.6554 41.8322 16.0915C43.416 15.7488 45.4248 15.4071 47.793 15.0805Z" fill="#156F82"/>
<path d="M210.583 13.1469C210.492 10.0398 212.676 7.94635 215.88 8.06123C217.494 8.11346 218.566 8.41869 219.28 8.75493L220.462 4.43486C219.194 3.93057 217.433 3.60474 215.819 3.5524C208.491 3.29993 204.254 7.67223 204.291 13.4424C204.292 13.7729 204.306 14.0952 204.331 14.4104C206.385 14.0369 208.474 13.6148 210.583 13.1469Z" fill="#156F82"/>
<path d="M176.394 16.1334V16.2577C178.397 16.3215 180.24 16.3702 181.899 16.4013V13.2112C181.899 12.0132 181.653 10.9939 181.136 10.1637C180.618 9.3328 179.806 8.70237 178.697 8.26113C177.588 7.83031 176.147 7.60938 174.386 7.60938C173.019 7.60938 171.751 7.7458 170.568 7.99827C169.386 8.25042 168.302 8.59747 167.28 9.03871L168.992 11.9921C169.41 11.803 169.854 11.6453 170.347 11.5089C170.839 11.3721 171.344 11.2776 171.862 11.2038C172.379 11.1303 172.871 11.0885 173.364 11.0885C174.3 11.0885 175.039 11.2353 175.581 11.54C176.111 11.8452 176.382 12.3391 176.394 13.0225V13.1797L173.66 13.2743C172.785 13.3061 171.96 13.3902 171.184 13.5371C170.42 13.6847 169.718 13.8946 169.103 14.1679C168.204 14.5675 167.489 15.093 166.984 15.7341C166.942 15.7882 166.902 15.8435 166.863 15.8999C169.589 16.0137 172.162 16.1138 174.543 16.1961L176.394 16.1334Z" fill="#156F82"/>
<path d="M201.595 14.8835V7.34652H195.782V13.4427H190.683V7.34652C190.252 7.34652 189.821 7.33622 189.39 7.3254C187.444 7.30469 184.869 8.89169 184.869 10.6365V16.4352C189.756 16.4227 195.477 15.882 201.595 14.8835Z" fill="#156F82"/>
<path d="M78.3935 12.8844V7.34652H72.5682V13.0723C74.4676 12.9959 76.4127 12.9329 78.3935 12.8844ZM67.4812 13.3134V7.34652C67.0501 7.34652 66.6069 7.33622 66.1759 7.3254C64.2298 7.30469 61.668 8.89169 61.668 10.6365V13.6823C63.5328 13.5468 65.474 13.423 67.4812 13.3134Z" fill="#156F82"/>
<path d="M138.747 3.8252C138.738 3.82824 138.729 3.83045 138.721 3.83266C134.81 5.11337 132.457 9.59729 132.457 9.59729L132.731 9.62809H138.22V12.4409L138.225 14.5745C140.268 14.6717 142.303 14.7691 144.32 14.8655L144.333 9.59729H147.845C147.954 6.35289 154.287 4.74624 154.287 4.74624V3.8252H138.747Z" fill="#156F82"/>
<path d="M41.6914 8.91292C42.7877 6.40079 44.7828 4.87686 47.4311 3.55273H41.6914V8.91292Z" fill="#FEFEFE"/>
<path d="M131.971 8.91292C133.067 6.40079 135.063 4.87686 137.698 3.55273H131.971V8.91292Z" fill="#FEFEFE"/>
<path d="M204.365 8.91292C205.462 6.40079 207.457 4.87686 210.093 3.55273H204.365V8.91292Z" fill="#FEFEFE"/>
<path d="M92.0039 12.8081V11.6458H96.5735C97.2382 9.80673 98.5439 8.46106 100.896 7.45215H84.5402C82.1879 8.46106 80.5129 9.80673 79.8477 11.6458H86.1291V12.7754C86.5846 12.7738 87.0409 12.7726 87.4987 12.7726C88.8988 12.7726 90.4071 12.7851 92.0039 12.8081Z" fill="#FEFEFE"/>
<path d="M104.431 13.1245C104.829 12.2417 105.849 11.5745 106.844 11.5297L109.701 11.3829C109.701 11.3829 112.189 7.78805 112.496 7.37793C111.893 7.37793 107.348 7.45171 105.23 7.45171C104.085 7.45171 102.988 7.73539 102.028 8.26113C100.685 8.99677 99.5276 9.95313 99.0102 10.8463C98.69 11.4144 98.5918 11.6769 98.5918 12.2865V12.9471C100.464 12.9972 102.415 13.0568 104.431 13.1245Z" fill="#FEFEFE"/>
<path d="M121.823 13.8161C121.871 13.5489 121.923 13.2532 121.981 12.9183C122.154 11.9094 123.164 11.6042 123.718 11.6253H124.753V13.947C126.708 14.0353 128.678 14.1258 130.652 14.2177V7.47391C127.992 7.46319 125.332 7.45279 122.671 7.44238C120.282 7.75728 117.006 8.54557 116.476 10.8896C116.261 11.8621 116.167 12.7385 116.061 13.5685C117.957 13.6476 119.88 13.7303 121.823 13.8161Z" fill="#FEFEFE"/>
<path d="M156.43 15.388L156.443 11.9723C156.443 10.217 159.201 9.99595 160.15 11.4468C160.384 11.7936 160.47 12.2037 160.458 12.6238C160.458 13.1492 160.347 13.6011 160.125 13.969C159.904 14.3371 159.559 14.9256 159.091 15.1147C158.844 15.2197 158.562 15.283 158.241 15.3253C157.921 15.3673 157.564 15.388 157.194 15.388H156.43ZM150.543 15.1623C155.366 15.3907 160.017 15.6065 164.34 15.7935L164.374 15.7455C164.67 15.3041 164.892 14.5262 165.027 14.0427C165.163 13.5697 165.224 13.0969 165.224 12.6238C165.224 11.4572 164.929 10.4794 164.362 9.67044C163.795 8.87132 162.97 8.25141 161.899 7.8313C161.308 7.59996 160.643 7.43158 159.916 7.32626C159.189 7.22137 159.042 7.20024 158.192 7.16871C154.608 7.043 150.543 9.02929 150.543 12.6449V15.1623Z" fill="#FEFEFE"/>
<path d="M59.1927 3.55273H53.4413V14.4032C55.2411 14.2151 57.1639 14.0369 59.1927 13.8723V3.55273ZM47.793 15.0805C47.7419 14.6797 47.7159 14.2452 47.7138 13.7795L47.6769 4.28837C45.7308 5.22349 42.7258 7.65144 41.7773 11.0149V14.7146C41.7773 15.1968 41.7961 15.6554 41.8322 16.0915C43.416 15.7488 45.4248 15.4071 47.793 15.0805Z" fill="#FEFEFE"/>
<path d="M210.583 13.1469C210.492 10.0398 212.676 7.94635 215.88 8.06123C217.494 8.11346 218.566 8.41869 219.28 8.75493L220.462 4.43486C219.194 3.93057 217.433 3.60474 215.819 3.5524C208.491 3.29993 204.254 7.67223 204.291 13.4424C204.292 13.7729 204.306 14.0952 204.331 14.4104C206.385 14.0369 208.474 13.6148 210.583 13.1469Z" fill="#FEFEFE"/>
<path d="M176.394 16.1334V16.2577C178.397 16.3215 180.24 16.3702 181.899 16.4013V13.2112C181.899 12.0132 181.653 10.9939 181.136 10.1637C180.618 9.3328 179.806 8.70237 178.697 8.26113C177.588 7.83031 176.147 7.60938 174.386 7.60938C173.019 7.60938 171.751 7.7458 170.568 7.99827C169.386 8.25042 168.302 8.59747 167.28 9.03871L168.992 11.9921C169.41 11.803 169.854 11.6453 170.347 11.5089C170.839 11.3721 171.344 11.2776 171.862 11.2038C172.379 11.1303 172.871 11.0885 173.364 11.0885C174.3 11.0885 175.039 11.2353 175.581 11.54C176.111 11.8452 176.382 12.3391 176.394 13.0225V13.1797L173.66 13.2743C172.785 13.3061 171.96 13.3902 171.184 13.5371C170.42 13.6847 169.718 13.8946 169.103 14.1679C168.204 14.5675 167.489 15.093 166.984 15.7341C166.942 15.7882 166.902 15.8435 166.863 15.8999C169.589 16.0137 172.162 16.1138 174.543 16.1961L176.394 16.1334Z" fill="#FEFEFE"/>
<path d="M201.595 14.8835V7.34652H195.782V13.4427H190.683V7.34652C190.252 7.34652 189.821 7.33622 189.39 7.3254C187.444 7.30469 184.869 8.89169 184.869 10.6365V16.4352C189.756 16.4227 195.477 15.882 201.595 14.8835Z" fill="#FEFEFE"/>
<path d="M78.3935 12.8844V7.34652H72.5682V13.0723C74.4676 12.9959 76.4127 12.9329 78.3935 12.8844ZM67.4812 13.3134V7.34652C67.0501 7.34652 66.6069 7.33622 66.1759 7.3254C64.2298 7.30469 61.668 8.89169 61.668 10.6365V13.6823C63.5328 13.5468 65.474 13.423 67.4812 13.3134Z" fill="#FEFEFE"/>
<path d="M138.747 3.8252C138.738 3.82824 138.729 3.83045 138.721 3.83266C134.81 5.11337 132.457 9.59729 132.457 9.59729L132.731 9.62809H138.22V12.4409L138.225 14.5745C140.268 14.6717 142.303 14.7691 144.32 14.8655L144.333 9.59729H147.845C147.954 6.35289 154.287 4.74624 154.287 4.74624V3.8252H138.747Z" fill="#FEFEFE"/>
</svg>
