<svg width="223" height="41" viewBox="0 0 223 41" fill="none" xmlns="http://www.w3.org/2000/svg">
<path fill-rule="evenodd" clip-rule="evenodd" d="M21.3198 30.6572C32.0718 30.6572 40.7917 32.9373 40.7917 35.7376C40.7917 38.5374 32.0718 40.8043 21.3198 40.8043C10.5676 40.8043 1.84766 38.5374 1.84766 35.7376C1.84766 32.9373 10.5676 30.6572 21.3198 30.6572Z" fill="#FEFEFE"/>
<path fill-rule="evenodd" clip-rule="evenodd" d="M21.209 30.8701C31.727 30.8701 40.2377 33.0838 40.2377 35.8305C40.2377 38.564 31.727 40.7773 21.209 40.7773C10.703 40.7773 2.19238 38.564 2.19238 35.8305C2.19238 33.0838 10.703 30.8701 21.209 30.8701Z" fill="#FAFBFB"/>
<path fill-rule="evenodd" clip-rule="evenodd" d="M21.1099 31.084C31.3692 31.084 39.6826 33.2436 39.6826 35.9241C39.6826 38.5912 31.3692 40.7645 21.1099 40.7645C10.8378 40.7645 2.52441 38.5912 2.52441 35.9241C2.52441 33.2436 10.8378 31.084 21.1099 31.084Z" fill="#F6F9F9"/>
<path fill-rule="evenodd" clip-rule="evenodd" d="M20.9986 31.2832C31.0118 31.2832 39.1406 33.4032 39.1406 36.0164C39.1406 38.6304 31.0118 40.7369 20.9986 40.7369C10.9856 40.7369 2.85645 38.6304 2.85645 36.0164C2.85645 33.4032 10.9856 31.2832 20.9986 31.2832Z" fill="#F0F5F5"/>
<path fill-rule="evenodd" clip-rule="evenodd" d="M20.8873 31.4971C30.6665 31.4971 38.5862 33.564 38.5862 36.1108C38.5862 38.6575 30.6665 40.7244 20.8873 40.7244C11.1205 40.7244 3.20117 38.6575 3.20117 36.1108C3.20117 33.564 11.1205 31.4971 20.8873 31.4971Z" fill="#E9F2F2"/>
<path fill-rule="evenodd" clip-rule="evenodd" d="M20.7781 31.71C30.3111 31.71 38.0334 33.7233 38.0334 36.2038C38.0334 38.6838 30.3111 40.697 20.7781 40.697C11.2576 40.697 3.53516 38.6838 3.53516 36.2038C3.53516 33.7233 11.2576 31.71 20.7781 31.71Z" fill="#E5ECED"/>
<path fill-rule="evenodd" clip-rule="evenodd" d="M20.679 31.9248C29.9531 31.9248 37.4783 33.8846 37.4783 36.2982C37.4783 38.7119 29.9531 40.672 20.679 40.672C11.3922 40.672 3.86719 38.7119 3.86719 36.2982C3.86719 33.8846 11.3922 31.9248 20.679 31.9248Z" fill="#E1EBEB"/>
<path fill-rule="evenodd" clip-rule="evenodd" d="M20.568 32.124C29.6084 32.124 36.9239 34.0306 36.9239 36.3912C36.9239 38.7375 29.6084 40.6577 20.568 40.6577C11.5278 40.6577 4.21191 38.7375 4.21191 36.3912C4.21191 34.0306 11.5278 32.124 20.568 32.124Z" fill="#D9E5E6"/>
<path fill-rule="evenodd" clip-rule="evenodd" d="M20.4566 32.3369C29.2506 32.3369 36.3815 34.1904 36.3815 36.484C36.3815 38.7773 29.2506 40.6311 20.4566 40.6311C11.6751 40.6311 4.54395 38.7773 4.54395 36.484C4.54395 34.1904 11.6751 32.3369 20.4566 32.3369Z" fill="#D5E0E2"/>
<path fill-rule="evenodd" clip-rule="evenodd" d="M20.3596 32.5508C28.895 32.5508 35.8291 34.3511 35.8291 36.5775C35.8291 38.8043 28.895 40.6046 20.3596 40.6046C11.812 40.6046 4.87793 38.8043 4.87793 36.5775C4.87793 34.3511 11.812 32.5508 20.3596 32.5508Z" fill="#CEDCDE"/>
<path fill-rule="evenodd" clip-rule="evenodd" d="M20.2486 32.75C28.5498 32.75 35.2743 34.5099 35.2743 36.6704C35.2743 38.8305 28.5498 40.5907 20.2486 40.5907C11.9474 40.5907 5.22266 38.8305 5.22266 36.6704C5.22266 34.5099 11.9474 32.75 20.2486 32.75Z" fill="#CAD8DA"/>
<path fill-rule="evenodd" clip-rule="evenodd" d="M20.1374 32.9639C28.1924 32.9639 34.7201 34.6711 34.7201 36.7643C34.7201 38.8581 28.1924 40.5647 20.1374 40.5647C12.0824 40.5647 5.55469 38.8581 5.55469 36.7643C5.55469 34.6711 12.0824 32.9639 20.1374 32.9639Z" fill="#C3D3D5"/>
<path fill-rule="evenodd" clip-rule="evenodd" d="M20.0258 33.1777C27.8345 33.1777 34.165 34.818 34.165 36.8581C34.165 38.8983 27.8345 40.5382 20.0258 40.5382C12.2173 40.5382 5.88672 38.8983 5.88672 36.8581C5.88672 34.818 12.2173 33.1777 20.0258 33.1777Z" fill="#BDCECF"/>
<path fill-rule="evenodd" clip-rule="evenodd" d="M19.9274 33.377C27.4894 33.377 33.6232 34.9773 33.6232 36.9507C33.6232 38.924 27.4894 40.5243 19.9274 40.5243C12.3529 40.5243 6.23145 38.924 6.23145 36.9507C6.23145 34.9773 12.3529 33.377 19.9274 33.377Z" fill="#B5CACB"/>
<path fill-rule="evenodd" clip-rule="evenodd" d="M19.8169 33.5908C27.1327 33.5908 33.0691 35.1375 33.0691 37.044C33.0691 38.9511 27.1327 40.4978 19.8169 40.4978C12.5009 40.4978 6.56445 38.9511 6.56445 37.044C6.56445 35.1375 12.5009 33.5908 19.8169 33.5908Z" fill="#B1C5C6"/>
<path fill-rule="evenodd" clip-rule="evenodd" d="M19.7065 33.8037C26.7759 33.8037 32.5156 35.2973 32.5156 37.1374C32.5156 38.9772 26.7759 40.4708 19.7065 40.4708C12.6368 40.4708 6.89746 38.9772 6.89746 37.1374C6.89746 35.2973 12.6368 33.8037 19.7065 33.8037Z" fill="#ABC1C0"/>
<path fill-rule="evenodd" clip-rule="evenodd" d="M19.5946 34.0176C26.4302 34.0176 31.9604 35.4576 31.9604 37.231C31.9604 39.0181 26.4302 40.4579 19.5946 40.4579C12.7714 40.4579 7.24121 39.0181 7.24121 37.231C7.24121 35.4576 12.7714 34.0176 19.5946 34.0176Z" fill="#A3BBBC"/>
<path fill-rule="evenodd" clip-rule="evenodd" d="M19.4966 34.2178C26.0733 34.2178 31.4188 35.6176 31.4188 37.3248C31.4188 39.0451 26.0733 40.4313 19.4966 40.4313C12.9073 40.4313 7.57422 39.0451 7.57422 37.3248C7.57422 35.6176 12.9073 34.2178 19.4966 34.2178Z" fill="#9BB6B7"/>
<path fill-rule="evenodd" clip-rule="evenodd" d="M19.3862 34.4297C25.7291 34.4297 30.8649 35.7633 30.8649 37.4167C30.8649 39.0702 25.7291 40.4039 19.3862 40.4039C13.0433 40.4039 7.90723 39.0702 7.90723 37.4167C7.90723 35.7633 13.0433 34.4297 19.3862 34.4297Z" fill="#97B1B1"/>
<path fill-rule="evenodd" clip-rule="evenodd" d="M19.2751 34.6445C25.3716 34.6445 30.3106 35.9246 30.3106 37.5113C30.3106 39.0983 25.3716 40.392 19.2751 40.392C13.1906 40.392 8.25195 39.0983 8.25195 37.5113C8.25195 35.9246 13.1906 34.6445 19.2751 34.6445Z" fill="#90ADAD"/>
<path fill-rule="evenodd" clip-rule="evenodd" d="M19.1761 34.8438C25.0141 34.8438 29.7558 36.0841 29.7558 37.6041C29.7558 39.1245 25.0141 40.3644 19.1761 40.3644C13.3258 40.3644 8.58398 39.1245 8.58398 37.6041C8.58398 36.0841 13.3258 34.8438 19.1761 34.8438Z" fill="#8BA9AA"/>
<path fill-rule="evenodd" clip-rule="evenodd" d="M19.0656 35.0576C24.6696 35.0576 29.202 36.2445 29.202 37.6976C29.202 39.1643 24.6696 40.338 19.0656 40.338C13.4616 40.338 8.91699 39.1643 8.91699 37.6976C8.91699 36.2445 13.4616 35.0576 19.0656 35.0576Z" fill="#84A4A3"/>
<path fill-rule="evenodd" clip-rule="evenodd" d="M29.9021 6.26083C28.7722 4.79738 27.3216 3.63476 25.667 2.89844C26.2898 3.2558 26.9032 3.65863 27.5019 4.10813C28.3782 4.76538 29.1791 5.48837 29.9021 6.26083Z" fill="#DAE9E4"/>
<path fill-rule="evenodd" clip-rule="evenodd" d="M30.6495 7.11099C29.2435 4.87895 27.1571 3.18882 24.7119 2.39062C25.2877 2.67425 25.8573 2.99614 26.4176 3.3559C27.4923 3.94434 28.4642 4.7204 29.2968 5.64407C29.7789 6.11291 30.23 6.60308 30.6495 7.11099Z" fill="#DAE9E4"/>
<path fill-rule="evenodd" clip-rule="evenodd" d="M31.2044 7.81653C29.6637 4.91911 27.0457 2.77895 23.9424 2.03516C24.3475 2.20957 24.7502 2.40318 25.1498 2.61453C27.2305 3.40273 29.025 4.8483 30.3199 6.72272C30.6308 7.07848 30.926 7.44344 31.2044 7.81653Z" fill="#DAE9E4"/>
<path fill-rule="evenodd" clip-rule="evenodd" d="M31.6937 8.50468C30.9535 6.85616 29.8809 5.41551 28.5703 4.28369C27.6274 3.56244 26.6183 2.93599 25.5543 2.41742C24.8238 2.11566 24.057 1.89271 23.2627 1.75977C23.6153 1.89298 23.9667 2.03965 24.3164 2.20047C27.0944 2.98199 29.4506 4.89894 30.9368 7.46594C31.2031 7.80543 31.4555 8.15186 31.6937 8.50468Z" fill="#DAE9E4"/>
<path fill-rule="evenodd" clip-rule="evenodd" d="M32.0718 9.08984C31.5275 7.67453 30.748 6.3915 29.7851 5.29915C28.1097 3.7733 26.1754 2.56974 24.0636 1.77648C23.5833 1.6582 23.0912 1.573 22.5898 1.52246C22.9248 1.6322 23.2595 1.75435 23.5928 1.88876C27.0012 2.57761 29.8661 4.93059 31.4414 8.14084C31.6629 8.45219 31.8729 8.76888 32.0718 9.08984Z" fill="#D8E9E3"/>
<path fill-rule="evenodd" clip-rule="evenodd" d="M32.3996 9.64109C31.9611 8.30992 31.3201 7.08276 30.5168 6.00308C30.1172 5.59745 29.7 5.21169 29.2676 4.84606C30.3689 5.95601 31.266 7.29985 31.891 8.80556C32.0688 9.08078 32.2389 9.35934 32.3996 9.64109ZM23.1348 1.45806C22.7679 1.40233 22.3957 1.36512 22.0186 1.34766C22.3282 1.43606 22.6376 1.53514 22.9465 1.64448C23.5688 1.72875 24.1753 1.8681 24.7621 2.05651C24.2316 1.83009 23.6885 1.63034 23.1348 1.45806Z" fill="#D5E7E1"/>
<path fill-rule="evenodd" clip-rule="evenodd" d="M32.6961 10.182C32.3393 8.90083 31.8001 7.70607 31.111 6.63252C30.8069 6.2945 30.4917 5.96847 30.1659 5.65471C31.0442 6.74133 31.7506 7.99449 32.2395 9.36473C32.3999 9.63435 32.5519 9.90691 32.6961 10.182ZM22.3462 1.23317C22.0723 1.21237 21.7959 1.20117 21.517 1.20117L21.4688 1.20184C21.7457 1.26984 22.023 1.34558 22.3 1.43039C22.7309 1.46186 23.1556 1.5184 23.5723 1.6C23.1695 1.46266 22.7605 1.34038 22.3462 1.23317Z" fill="#D8E9E3"/>
<path fill-rule="evenodd" clip-rule="evenodd" d="M32.9779 10.7455C32.689 9.4902 32.2289 8.30798 31.6252 7.2303C31.37 6.92201 31.1061 6.62225 30.8336 6.33196C31.5735 7.40631 32.1579 8.61334 32.5524 9.91397C32.7025 10.1887 32.8441 10.466 32.9779 10.7455ZM21.6562 1.07023C21.6098 1.06956 21.5633 1.06836 21.5167 1.06836C21.3254 1.06836 21.1353 1.07383 20.9463 1.08356C21.2108 1.1385 21.4758 1.20104 21.7407 1.27131C22.0719 1.27811 22.3997 1.29944 22.7235 1.33558C22.3719 1.23584 22.016 1.1473 21.6562 1.07023Z" fill="#D5E7E1"/>
<path fill-rule="evenodd" clip-rule="evenodd" d="M33.2108 11.2509C32.9777 10.012 32.5804 8.83789 32.0451 7.7554C31.8233 7.46778 31.5944 7.18669 31.358 6.91334C32.0043 7.98782 32.5049 9.17458 32.8288 10.4407C32.9637 10.7087 33.0915 10.9788 33.2108 11.2509ZM20.9596 0.935547C20.7691 0.945281 20.5798 0.959682 20.3916 0.97875C20.6612 1.02395 20.9314 1.07756 21.2019 1.13876C21.3065 1.1357 21.4115 1.1341 21.5168 1.1341C21.6756 1.1341 21.8332 1.13863 21.9905 1.1453C21.6503 1.06516 21.3067 0.994751 20.9596 0.935547Z" fill="#D5E7E1"/>
<path fill-rule="evenodd" clip-rule="evenodd" d="M33.4194 11.7504C33.2366 10.5196 32.8953 9.34676 32.4185 8.25694C32.2301 7.99559 32.0356 7.73957 31.8354 7.48901C32.4054 8.56976 32.8346 9.74839 33.0957 10.9963C33.2103 11.2462 33.3181 11.4977 33.4194 11.7504ZM20.3733 0.845703C20.2134 0.862104 20.0545 0.881706 19.8965 0.904641C20.1612 0.939577 20.4266 0.98158 20.6926 1.03185C20.9054 1.01612 21.1201 1.00665 21.3359 1.00292C21.0179 0.94131 20.6968 0.889173 20.3733 0.845703Z" fill="#D5E7E1"/>
<path fill-rule="evenodd" clip-rule="evenodd" d="M33.6085 12.2414C33.4709 11.0093 33.1769 9.82905 32.748 8.72564C32.5823 8.48122 32.4118 8.24107 32.2361 8.00545C32.7418 9.09233 33.111 10.2666 33.3186 11.5018C33.4215 11.7471 33.5182 11.9938 33.6085 12.2414ZM19.8229 0.782227C19.6876 0.802761 19.5528 0.82503 19.4189 0.850232C19.6595 0.873567 19.901 0.903836 20.143 0.939972C20.3141 0.91877 20.4862 0.901302 20.6592 0.887835C20.3823 0.845831 20.1036 0.810629 19.8229 0.782227Z" fill="#D5E7E1"/>
<path fill-rule="evenodd" clip-rule="evenodd" d="M33.7944 12.7825C33.7038 11.5392 33.4557 10.3444 33.0713 9.22066C32.9142 8.97331 32.7519 8.73036 32.5849 8.49128C33.0379 9.58829 33.3557 10.7646 33.5159 11.9958C33.6158 12.257 33.7088 12.5193 33.7944 12.7825ZM19.3 0.738281C19.1829 0.761483 19.0662 0.786818 18.9502 0.813487C19.1852 0.828288 19.4212 0.848823 19.6579 0.875892C19.8031 0.851623 19.9494 0.830955 20.0962 0.812287C19.8325 0.781351 19.567 0.756949 19.3 0.738281Z" fill="#D3E6E1"/>
<path fill-rule="evenodd" clip-rule="evenodd" d="M33.9442 13.271C33.896 12.0179 33.6895 10.8094 33.3463 9.66767C33.2023 9.42712 33.0537 9.19003 32.9004 8.95695C33.3079 10.0688 33.5807 11.2542 33.6963 12.4899C33.7861 12.7494 33.8685 13.0098 33.9442 13.271ZM18.7577 0.708984C18.652 0.734986 18.5469 0.762188 18.4424 0.790991C18.6875 0.797124 18.9339 0.810459 19.1814 0.830194C19.3074 0.803792 19.434 0.779523 19.5613 0.757388C19.295 0.73472 19.027 0.719118 18.7577 0.708984Z" fill="#D3E6E1"/>
<path fill-rule="evenodd" clip-rule="evenodd" d="M34.0787 13.7637C34.0721 12.4939 33.9052 11.2651 33.598 10.1C33.4725 9.87783 33.3435 9.65835 33.2102 9.44206C33.5741 10.5748 33.8016 11.7768 33.871 13.0254C33.9463 13.2709 34.0159 13.5172 34.0787 13.7637ZM18.2653 0.703125C18.1725 0.73006 18.0802 0.757929 17.9883 0.787131C18.2297 0.784865 18.4726 0.788732 18.7167 0.799799C18.8276 0.77193 18.9395 0.746062 19.0516 0.721393C18.9126 0.713792 18.7734 0.707392 18.6338 0.703125H18.2653Z" fill="#D3E6E1"/>
<path fill-rule="evenodd" clip-rule="evenodd" d="M12.835 23.8521C13.9856 25.0219 15.337 25.9625 16.8273 26.6055C15.9198 26.1481 15.027 25.5973 14.1638 24.9498C13.6993 24.6018 13.2568 24.2347 12.835 23.8521ZM34.196 14.2594C34.1998 14.1207 34.2024 13.9817 34.2024 13.8421C34.2024 12.6959 34.0719 11.583 33.8277 10.5187C33.7127 10.3031 33.5947 10.0894 33.4724 9.87903C33.7986 11.0338 33.9863 12.2537 34.0139 13.5164C34.0812 13.7637 34.1415 14.0115 34.196 14.2594ZM17.8173 0.703125C17.7237 0.734061 17.6306 0.766063 17.538 0.799266C17.7627 0.789398 17.9887 0.785398 18.2161 0.787265C18.3151 0.757929 18.4145 0.729794 18.5145 0.703125H17.8173Z" fill="#D3E6E0"/>
<path fill-rule="evenodd" clip-rule="evenodd" d="M11.623 22.6464C13.3306 24.892 15.677 26.5472 18.3602 27.2846C17.343 26.8954 16.3349 26.391 15.3543 25.7706C14.9465 25.5228 14.5525 25.2514 14.1744 24.9576L14.1638 24.9498C13.2305 24.2504 12.3819 23.4763 11.623 22.6464ZM34.3065 14.8081C34.3268 14.4888 34.338 14.167 34.338 13.8421C34.338 12.8582 34.2428 11.8985 34.0631 10.973C33.9498 10.7471 33.8333 10.5233 33.7122 10.3028C33.9912 11.4318 34.1407 12.618 34.1407 13.8421C34.1407 13.8981 34.1393 13.9536 34.1387 14.0095C34.2019 14.2755 34.2583 14.5418 34.3065 14.8081ZM17.3841 0.712592C17.2846 0.749395 17.1857 0.787398 17.0873 0.826601C17.3098 0.808866 17.5338 0.796732 17.7592 0.790732C17.8492 0.760329 17.9399 0.73126 18.0306 0.703125H17.6015C17.5289 0.705392 17.4567 0.709525 17.3841 0.712592Z" fill="#D3E6E0"/>
<path fill-rule="evenodd" clip-rule="evenodd" d="M10.791 21.6671C12.7619 24.828 15.8936 27.0703 19.5247 27.6783C18.9066 27.4954 18.2892 27.2714 17.6765 27.0047C15.5278 26.2702 13.6244 24.9355 12.1342 23.1822C11.654 22.6976 11.2061 22.191 10.791 21.6671ZM34.3902 15.3229C34.4373 14.8362 34.4621 14.3424 34.4621 13.8421C34.4621 13.0029 34.3936 12.1807 34.2629 11.3818C34.1585 11.1614 34.0511 10.9428 33.9394 10.7274C34.1522 11.7282 34.2648 12.7708 34.2648 13.8421C34.2648 14.0655 34.2594 14.2874 34.2497 14.508C34.3047 14.7798 34.351 15.0514 34.3902 15.3229ZM16.9248 0.738861C16.8182 0.782864 16.7122 0.828201 16.607 0.875005C16.8404 0.847269 17.0758 0.825934 17.3128 0.811267C17.4116 0.77393 17.5108 0.737928 17.6106 0.703125H17.6022C17.3752 0.710059 17.1497 0.722993 16.9248 0.738861Z" fill="#D3E6E0"/>
<path fill-rule="evenodd" clip-rule="evenodd" d="M10.1592 20.8206C12.2627 24.8305 16.1219 27.6177 20.6005 27.9547C20.0572 27.8364 19.5125 27.686 18.9692 27.5031C15.7938 26.8123 13.041 24.8558 11.1782 22.1409C10.8153 21.7132 10.4757 21.2722 10.1592 20.8206ZM34.4548 15.8344C34.5395 15.1833 34.5844 14.5185 34.5844 13.842C34.5844 13.1418 34.5367 12.4538 34.4459 11.7808C34.3545 11.5765 34.2605 11.3738 34.1628 11.1735C34.3176 12.0375 34.3998 12.9293 34.3998 13.842C34.3998 14.2538 34.3823 14.6609 34.3499 15.0636C34.3916 15.3207 34.4271 15.5779 34.4548 15.8344ZM16.5133 0.772617C16.3972 0.824888 16.2814 0.878492 16.1669 0.934363C16.3977 0.89836 16.6308 0.869424 16.8657 0.846489C16.9682 0.803419 17.0712 0.761949 17.1749 0.72168C16.9534 0.734347 16.7329 0.751682 16.5133 0.772617Z" fill="#D1E5DD"/>
<path fill-rule="evenodd" clip-rule="evenodd" d="M9.6084 19.9879C11.732 24.7968 16.268 28.1235 21.515 28.124C21.0182 28.0487 20.5188 27.9468 20.019 27.817C15.9778 27.3159 12.5027 24.8108 10.4613 21.2417C10.1568 20.833 9.87283 20.4142 9.6084 19.9879ZM34.5008 16.3686C34.636 15.5486 34.7066 14.7043 34.7066 13.8425C34.7066 13.2789 34.6754 12.7232 34.6169 12.1766C34.5319 11.9753 34.4445 11.7753 34.3534 11.5777C34.4638 12.3151 34.5219 13.0715 34.5219 13.8425C34.5219 14.4302 34.4881 15.0091 34.4234 15.5778C34.4567 15.8419 34.4825 16.1056 34.5008 16.3686ZM16.101 0.817244C15.9704 0.880983 15.8416 0.947388 15.7134 1.01553C15.9342 0.97219 16.1571 0.934987 16.382 0.903918C16.4925 0.852447 16.6037 0.802177 16.7157 0.753906C16.5097 0.771241 16.3049 0.792709 16.101 0.817244Z" fill="#D1E5DD"/>
<path fill-rule="evenodd" clip-rule="evenodd" d="M9.16406 19.2284C11.1348 24.5211 15.9225 28.2571 21.5166 28.2571C21.8015 28.2571 22.0841 28.2461 22.3646 28.2271C21.9318 28.1881 21.4962 28.1283 21.059 28.0476C16.1998 27.8669 12.0105 24.8224 9.88617 20.4207C9.62802 20.03 9.38723 19.6321 9.16406 19.2284ZM34.5292 16.9575C34.7338 15.9543 34.8427 14.9122 34.8427 13.8425C34.8427 13.4263 34.8253 13.0144 34.7934 12.6072C34.7099 12.3959 34.6237 12.1861 34.5337 11.9786C34.6073 12.5887 34.6459 13.2107 34.6459 13.8425C34.6459 14.6111 34.5887 15.3652 34.4805 16.1007C34.5058 16.3872 34.5219 16.6729 34.5292 16.9575ZM15.7095 0.868575C15.5619 0.946181 15.4161 1.02712 15.2716 1.11033C15.4929 1.05806 15.7169 1.01232 15.9427 0.972716C16.0643 0.910844 16.1869 0.850973 16.3103 0.792969C16.109 0.814704 15.9086 0.839906 15.7095 0.868575Z" fill="#D1E5DD"/>
<path fill-rule="evenodd" clip-rule="evenodd" d="M8.78223 18.4974C10.5762 24.2518 15.6038 28.3903 21.5169 28.3903C22.0894 28.3903 22.6535 28.3513 23.2073 28.2763C22.7883 28.2647 22.3656 28.2333 21.9404 28.1818C21.7996 28.1866 21.6586 28.1898 21.5169 28.1898C16.0937 28.1898 11.4293 24.6576 9.37822 19.6039C9.16514 19.2397 8.96586 18.8707 8.78223 18.4974ZM34.5325 17.521C34.8154 16.346 34.9663 15.1134 34.9663 13.8421C34.9663 13.5583 34.9579 13.2767 34.9432 12.997C34.8651 12.7868 34.7847 12.5779 34.7002 12.3713C34.7456 12.8548 34.769 13.3455 34.769 13.8421C34.769 14.7979 34.6821 15.7317 34.5174 16.6354C34.5322 16.9318 34.5375 17.2271 34.5325 17.521ZM15.3025 0.931494C15.1307 1.02883 14.9607 1.12978 14.7934 1.23485C15.024 1.16965 15.2574 1.11111 15.4937 1.06017C15.6309 0.984165 15.7698 0.911759 15.9097 0.84082C15.7064 0.867622 15.5038 0.897491 15.3025 0.931494Z" fill="#CFE4DD"/>
<path fill-rule="evenodd" clip-rule="evenodd" d="M8.45117 17.7819C10.0413 23.9799 15.2888 28.5368 21.5172 28.5368C22.3988 28.5368 23.2602 28.4448 24.0948 28.2709C23.6646 28.2881 23.2292 28.284 22.79 28.2581C22.371 28.3009 21.9466 28.3237 21.5172 28.3237C15.7551 28.3237 10.8473 24.3837 8.96427 18.8555C8.77965 18.5014 8.60857 18.1432 8.45117 17.7819ZM34.5112 18.0948C34.8869 16.7483 35.0896 15.3207 35.0896 13.8424C35.0896 13.6882 35.0867 13.5346 35.0823 13.3817C35.014 13.186 34.944 12.9915 34.8701 12.799C34.8928 13.1435 34.905 13.4914 34.905 13.8424C34.905 15.0115 34.776 16.1477 34.5343 17.2365C34.5357 17.5241 34.5286 17.8104 34.5112 18.0948ZM14.9227 1.00005C14.7253 1.11925 14.5309 1.24366 14.3397 1.37314C14.5707 1.29713 14.8052 1.22886 15.0423 1.16766C15.1973 1.07458 15.3544 0.984977 15.5131 0.898438C15.3153 0.929373 15.1183 0.962309 14.9227 1.00005Z" fill="#CFE4DD"/>
<path fill-rule="evenodd" clip-rule="evenodd" d="M8.13281 16.9976C9.46926 23.6697 14.9546 28.6704 21.5168 28.6704C22.6842 28.6704 23.8174 28.5117 24.8994 28.2138C24.4751 28.2581 24.0447 28.2809 23.6094 28.2821C22.9273 28.3968 22.2285 28.4569 21.5168 28.4569C15.4484 28.4569 10.3116 24.1146 8.61364 18.1452C8.43789 17.7661 8.2779 17.3833 8.13281 16.9976ZM34.4583 18.7034C34.9465 17.1803 35.2125 15.545 35.2125 13.8423L35.2117 13.7642C35.1481 13.5702 35.0822 13.3773 35.0133 13.1863C35.0221 13.4039 35.0274 13.6224 35.0274 13.8423C35.0274 15.2144 34.8522 16.5425 34.525 17.802C34.5135 18.1045 34.4912 18.4051 34.4583 18.7034ZM14.5478 1.07734C14.3183 1.22455 14.0929 1.37803 13.8724 1.53897C14.1003 1.45243 14.3316 1.37323 14.5664 1.30162C14.744 1.18575 14.9242 1.07401 15.1071 0.966797C14.9199 1.0008 14.7331 1.0372 14.5478 1.07734Z" fill="#CFE4DD"/>
<path fill-rule="evenodd" clip-rule="evenodd" d="M7.88086 16.2774C8.9562 23.385 14.6577 28.803 21.5168 28.803C22.9827 28.803 24.395 28.5555 25.7211 28.0984C25.3202 28.1683 24.9125 28.218 24.4994 28.2479C23.5395 28.4798 22.5416 28.603 21.5168 28.603C15.1317 28.603 9.7761 23.8413 8.29937 17.4219C8.1448 17.0429 8.00501 16.6612 7.88086 16.2774ZM34.3601 19.4051C34.9602 17.7852 35.3061 16.0255 35.3441 14.183C35.2818 13.9776 35.216 13.7741 35.1477 13.5718C35.1492 13.6617 35.1509 13.7515 35.1509 13.8417C35.1509 15.4312 34.9179 16.9618 34.4884 18.3969C34.4594 18.7361 34.4166 19.0724 34.3601 19.4051ZM14.1856 1.15996C13.9215 1.33931 13.6635 1.52799 13.4118 1.72574C13.6425 1.62573 13.8772 1.53306 14.1156 1.44892C14.3184 1.30637 14.5246 1.16903 14.7345 1.03809C14.5507 1.07582 14.3675 1.11636 14.1856 1.15996Z" fill="#CFE4DD"/>
<path fill-rule="evenodd" clip-rule="evenodd" d="M7.66309 15.5485C8.44665 23.0795 14.3514 28.9366 21.5162 28.9366C23.2937 28.9366 24.9929 28.5766 26.556 27.9215C26.1492 28.0233 25.734 28.1037 25.3118 28.1624C24.1063 28.5363 22.8329 28.7367 21.5162 28.7367C14.7993 28.7367 9.20965 23.5277 8.00154 16.637C7.8753 16.2758 7.76186 15.9128 7.66309 15.5485ZM34.2204 20.0946C34.9364 18.3947 35.3694 16.5261 35.4545 14.5594C35.3969 14.356 35.3352 14.1547 35.2718 13.9541C35.2596 15.7349 34.9593 17.4411 34.4183 19.021C34.3687 19.3832 34.3025 19.7414 34.2204 20.0946ZM13.8007 1.25715C13.4917 1.47997 13.191 1.71545 12.9 1.96361C13.141 1.84346 13.3871 1.73265 13.6376 1.63078C13.8729 1.4525 14.1133 1.28155 14.359 1.11914C14.1718 1.16208 13.9857 1.20808 13.8007 1.25715Z" fill="#CFE4DD"/>
<path fill-rule="evenodd" clip-rule="evenodd" d="M7.47852 14.7909C7.93028 22.7638 14.0385 29.0844 21.5161 29.0844C23.6524 29.0844 25.6774 28.5676 27.4916 27.6446C27.0469 27.7981 26.5901 27.925 26.1225 28.0233C24.6809 28.5716 23.1309 28.8708 21.5161 28.8708C14.5052 28.8708 8.70252 23.2313 7.76783 15.9175C7.65649 15.5431 7.5603 15.1672 7.47852 14.7909ZM34.0158 20.8557C34.8765 19.0619 35.4172 17.0599 35.5567 14.9381C35.5069 14.7485 35.454 14.5602 35.3991 14.373C35.338 16.271 34.952 18.0804 34.298 19.7369C34.2225 20.1155 34.1285 20.4887 34.0158 20.8557ZM13.4529 1.35429C13.0959 1.62551 12.7509 1.91433 12.4192 2.21942C12.6633 2.08128 12.9136 1.95354 13.1688 1.83526C13.4393 1.61458 13.7174 1.40429 14.0027 1.20508C13.8182 1.25148 13.6352 1.30175 13.4529 1.35429Z" fill="#CFE3DB"/>
<path fill-rule="evenodd" clip-rule="evenodd" d="M7.31641 13.9251C7.35779 22.3808 13.7085 29.2167 21.5163 29.2167C24.0356 29.2167 26.4007 28.5065 28.4515 27.2618C27.9809 27.4764 27.4927 27.6572 26.9902 27.8045C25.3089 28.5761 23.4591 29.0032 21.5163 29.0032C14.1958 29.0032 8.18939 22.9234 7.5668 15.173C7.46531 14.7576 7.38144 14.3412 7.31641 13.9251ZM33.7011 21.7436C34.7608 19.8316 35.4471 17.6493 35.6519 15.3144C35.6059 15.125 35.5573 14.9365 35.5062 14.7492C35.3949 16.79 34.9113 18.7222 34.1272 20.467C34.0106 20.9013 33.869 21.3276 33.7011 21.7436ZM13.1046 1.4575C12.6845 1.7926 12.2819 2.15209 11.8988 2.53412C12.1486 2.37237 12.4054 2.22196 12.6685 2.08248C12.979 1.8078 13.3003 1.54724 13.6321 1.30176C13.4551 1.35069 13.2795 1.4031 13.1046 1.4575Z" fill="#CDE4DC"/>
<path fill-rule="evenodd" clip-rule="evenodd" d="M7.19238 13.8426C7.19238 22.4035 13.6093 29.3509 21.5166 29.3509C24.525 29.3509 27.3162 28.3477 29.6213 26.6348C29.0965 26.961 28.5426 27.2394 27.9648 27.4691C26.0314 28.544 23.8393 29.1506 21.5166 29.1506C13.881 29.1506 7.67161 22.5972 7.39991 14.4024C7.31567 13.9585 7.25212 13.5145 7.21 13.0719C7.19842 13.3273 7.19238 13.5842 7.19238 13.8426ZM33.1503 22.9043C34.5302 20.835 35.4494 18.3838 35.7473 15.7256C35.7027 15.5245 35.6559 15.3242 35.6056 15.1255C35.4353 17.3442 34.8283 19.4287 33.8774 21.2777C33.6806 21.8379 33.4387 22.3815 33.1503 22.9043ZM12.7602 1.56849C12.2628 1.98505 11.7912 2.43589 11.3488 2.91846C11.612 2.72191 11.8838 2.53816 12.1643 2.36855C12.5199 2.02785 12.8915 1.70623 13.2778 1.40527C13.1044 1.45728 12.9316 1.51115 12.7602 1.56849Z" fill="#CDE4DC"/>
<path fill-rule="evenodd" clip-rule="evenodd" d="M7.07031 13.8422C7.07031 22.483 13.5365 29.4837 21.5177 29.4837C28.7918 29.4837 34.817 23.6672 35.8269 16.0945C35.7865 15.8948 35.7442 15.6958 35.6981 15.4983C35.4548 17.9645 34.6755 20.258 33.4877 22.2387C33.2875 22.6708 33.0591 23.0911 32.7994 23.4963C31.8147 25.0313 30.5012 26.2036 28.979 27.0036C26.8091 28.4492 24.254 29.2837 21.5177 29.2837C13.6472 29.2837 7.25518 22.3631 7.25518 13.8422C7.25518 13.7302 7.25691 13.6186 7.25912 13.5071C7.20198 13.0546 7.16687 12.6032 7.15419 12.1544C7.09926 12.7089 7.07031 13.2719 7.07031 13.8422ZM12.412 1.68995C11.8222 2.20973 11.2708 2.77857 10.7634 3.39115C11.0405 3.1498 11.3291 2.92485 11.629 2.71656C12.04 2.28826 12.4747 1.8865 12.9307 1.51367C12.7568 1.56994 12.5837 1.62821 12.412 1.68995Z" fill="#CDE3D9"/>
<path fill-rule="evenodd" clip-rule="evenodd" d="M6.94629 13.842C6.94629 22.5628 13.4741 29.6301 21.5168 29.6301C28.7465 29.6301 34.7449 23.9362 35.8981 16.4638C35.8639 16.2774 35.8272 16.0919 35.788 15.9075C35.428 18.8468 34.3113 21.5274 32.6553 23.7121C32.026 24.6419 31.2725 25.4318 30.4236 26.0805C27.9738 28.1697 24.8806 29.4166 21.5168 29.4166C13.5725 29.4166 7.13116 22.4428 7.13116 13.842C7.13116 13.4334 7.14594 13.0285 7.17451 12.6279C7.14212 12.1157 7.13929 11.6065 7.16552 11.1024C7.02179 11.9922 6.94629 12.9075 6.94629 13.842ZM12.0842 1.81159C11.3718 2.46817 10.7181 3.19756 10.1334 3.98949C10.4311 3.68067 10.746 3.39385 11.0761 3.12916C11.5482 2.59005 12.0555 2.08761 12.5941 1.62598C12.423 1.68531 12.253 1.74705 12.0842 1.81159Z" fill="#CDE2DB"/>
<path fill-rule="evenodd" clip-rule="evenodd" d="M6.81055 13.8417C6.81055 22.6293 13.3996 29.763 21.5163 29.763C28.6993 29.763 34.6697 24.1919 35.9618 16.832C35.9312 16.6476 35.8979 16.4643 35.8626 16.2816C34.7792 23.8018 28.7673 29.5494 21.5163 29.5494C13.4982 29.5494 7.00736 22.5225 7.00736 13.8417C7.00736 13.1 7.05589 12.3706 7.14752 11.6563C7.15368 10.9831 7.21132 10.3175 7.32242 9.66589C6.98938 10.9965 6.81055 12.3962 6.81055 13.8417ZM11.743 1.94597C10.8206 2.8347 10.0017 3.84665 9.30966 4.95927C9.65834 4.49163 10.0403 4.06226 10.4516 3.67223C10.9956 2.97765 11.5943 2.33493 12.2406 1.75195C12.0736 1.81396 11.9078 1.8789 11.743 1.94597Z" fill="#CAE1D8"/>
<path fill-rule="evenodd" clip-rule="evenodd" d="M6.68848 13.8419C6.68848 22.7095 13.327 29.8969 21.5176 29.8969C28.6325 29.8969 34.5847 24.4726 36.0253 17.2351C35.9969 17.0399 35.9656 16.8457 35.9318 16.6525C34.7064 24.0626 28.7223 29.6969 21.5176 29.6969C13.4378 29.6969 6.88566 22.5895 6.88566 13.8419C6.88566 12.6956 6.99897 11.5781 7.21205 10.5011C7.38866 8.73619 7.93785 7.05126 8.89323 5.56182C9.16123 5.14352 9.45473 4.75309 9.76954 4.38893C10.4009 3.46912 11.1221 2.62612 11.9191 1.875C11.7535 1.94047 11.5893 2.00901 11.426 2.07942C8.51204 5.01097 6.68848 9.19543 6.68848 13.8419Z" fill="#CBE2D9"/>
<path fill-rule="evenodd" clip-rule="evenodd" d="M6.56445 13.8422C6.56445 22.7897 13.2647 30.0302 21.5166 30.0302C28.5844 30.0302 34.5073 24.7338 36.0743 17.6034C36.0495 17.4082 36.0222 17.2138 35.9919 17.0204C34.632 24.3262 28.6756 29.8303 21.5166 29.8303C13.3631 29.8303 6.74908 22.6698 6.74908 13.8422C6.74908 12.0442 7.02361 10.3154 7.52956 8.70206C7.80397 7.64211 8.22938 6.6295 8.81194 5.69156C9.56497 4.31919 10.5016 3.07856 11.5861 2.01074C11.4233 2.07888 11.2617 2.14929 11.1013 2.22236C8.30414 5.16618 6.56445 9.2841 6.56445 13.8422Z" fill="#CAE1D8"/>
<path fill-rule="evenodd" clip-rule="evenodd" d="M6.44141 13.8424C6.44141 22.8567 13.1906 30.1773 21.5169 30.1773C28.5367 30.1773 34.4301 24.9881 36.1183 17.9682C36.098 17.7839 36.0759 17.6004 36.0509 17.4177C34.5472 24.603 28.6089 29.9636 21.5169 29.9636C13.2895 29.9636 6.62627 22.75 6.62627 13.8424C6.62627 9.23884 8.40636 5.08799 11.2622 2.15137C11.1039 2.22151 10.9466 2.29338 10.7907 2.36818C8.1019 5.31908 6.44141 9.37219 6.44141 13.8424Z" fill="#CAE1D8"/>
<path fill-rule="evenodd" clip-rule="evenodd" d="M6.30566 13.8425C6.30566 22.9368 13.1167 30.3104 21.5167 30.3104C28.4799 30.3104 34.3511 25.243 36.1556 18.3287C36.1386 18.1456 36.1187 17.9636 36.0971 17.7822C34.4694 24.854 28.5612 30.0974 21.5167 30.0974C13.2276 30.0974 6.50297 22.8169 6.50297 13.8425C6.50297 9.32857 8.1998 5.24532 10.9388 2.29883C10.7796 2.37337 10.6213 2.45017 10.4645 2.52951C7.88696 5.48014 6.30566 9.46151 6.30566 13.8425Z" fill="#CAE1D8"/>
<path fill-rule="evenodd" clip-rule="evenodd" d="M6.18262 13.8427C6.18262 23.017 13.0553 30.4443 21.5167 30.4443C28.4201 30.4443 34.2604 25.5141 36.1879 18.7263C36.1736 18.5331 36.1563 18.3408 36.1369 18.1492C34.3912 25.1161 28.5133 30.2444 21.5167 30.2444C13.1538 30.2444 6.37993 22.897 6.37993 13.8427C6.37993 9.41545 8.00014 5.39687 10.6333 2.44531C10.475 2.52319 10.318 2.60386 10.162 2.68653C7.69014 5.63329 6.18262 9.54639 6.18262 13.8427Z" fill="#C9E0D8"/>
<path fill-rule="evenodd" clip-rule="evenodd" d="M6.05957 13.842C6.05957 23.0826 12.9814 30.5772 21.5169 30.5772C28.3704 30.5772 34.1781 25.7581 36.211 19.0847C36.2 18.8929 36.1867 18.7019 36.1707 18.5116C34.31 25.3706 28.4553 30.3768 21.5169 30.3768C13.0922 30.3768 6.24444 22.9763 6.24444 13.842C6.24444 9.50049 7.79248 5.55126 10.3207 2.60156C10.1651 2.6821 10.0112 2.76544 9.85806 2.85051C7.49258 5.79314 6.05957 9.63797 6.05957 13.842Z" fill="#C9E0D7"/>
<path fill-rule="evenodd" clip-rule="evenodd" d="M5.93652 13.8423C5.93652 23.1633 12.9076 30.7238 21.5168 30.7238C28.3124 30.7238 34.0942 26.0123 36.2287 19.4432C36.2215 19.2618 36.2122 19.0811 36.2004 18.9011C34.2202 25.631 28.3961 30.5102 21.5168 30.5102C13.0184 30.5102 6.12127 23.0434 6.12127 13.8423C6.12127 9.58775 7.59283 5.70918 10.0126 2.76562C9.86076 2.84816 9.70964 2.9323 9.56024 3.01924C7.29822 5.95 5.93652 9.72416 5.93652 13.8423Z" fill="#C6DFD7"/>
<path fill-rule="evenodd" clip-rule="evenodd" d="M5.80078 13.8424C5.80078 23.2434 12.8459 30.8574 21.5167 30.8574C28.2625 30.8574 34.0114 26.2611 36.241 19.8019C36.2369 19.6223 36.2298 19.4435 36.2212 19.2651C34.138 25.8842 28.3459 30.6438 21.5167 30.6438C12.9443 30.6438 5.99797 23.1235 5.99797 13.8424C5.99797 9.68153 7.39489 5.87257 9.7079 2.93555C9.55616 3.02182 9.40554 3.10996 9.25638 3.20077C7.09535 6.11446 5.80078 9.81407 5.80078 13.8424Z" fill="#C6DED6"/>
<path fill-rule="evenodd" clip-rule="evenodd" d="M5.67773 13.8422C5.67773 23.3096 12.7718 30.9903 21.5167 30.9903C28.1999 30.9903 33.914 26.5163 36.2457 20.189C36.2447 20.0009 36.2409 19.8134 36.235 19.6266C34.0513 26.1388 28.2861 30.7904 21.5167 30.7904C12.8828 30.7904 5.87492 23.2031 5.87492 13.8422C5.87492 9.76718 7.20336 6.02863 9.4155 3.10547C9.26561 3.19454 9.1172 3.28588 8.9699 3.37936C6.90629 6.27505 5.67773 9.90359 5.67773 13.8422Z" fill="#C4DED4"/>
<path fill-rule="evenodd" clip-rule="evenodd" d="M5.55469 13.842C5.55469 23.3898 12.6982 31.1238 21.5169 31.1238C28.1393 31.1238 33.8239 26.762 36.2446 20.546C36.2455 20.4671 36.2473 20.3883 36.2473 20.3091C36.2473 20.1991 36.2452 20.0896 36.2436 19.98C33.9669 26.3787 28.2359 30.9234 21.5169 30.9234C12.809 30.9234 5.73956 23.2698 5.73956 13.842C5.73956 9.85907 6.9978 6.19639 9.10673 3.29297C8.96139 3.38338 8.81766 3.47618 8.67492 3.57086C6.71427 6.44374 5.55469 9.99655 5.55469 13.842Z" fill="#C2DDD4"/>
<path fill-rule="evenodd" clip-rule="evenodd" d="M5.43164 13.8417C5.43164 23.4695 12.6366 31.2697 21.5169 31.2697C28.0877 31.2697 33.7364 27.0102 36.2383 20.9016C36.2432 20.7234 36.2461 20.5448 36.2467 20.3654C33.8717 26.6379 28.1749 31.0566 21.5169 31.0566C12.7351 31.0566 5.61626 23.349 5.61626 13.8417C5.61626 9.94662 6.81181 6.35435 8.8264 3.46973C8.68156 3.5636 8.53844 3.66014 8.39631 3.75828C6.52964 6.60437 5.43164 10.084 5.43164 13.8417Z" fill="#BFDCD2"/>
<path fill-rule="evenodd" clip-rule="evenodd" d="M5.2959 13.8423C5.2959 23.5364 12.5627 31.4039 21.5168 31.4039C28.034 31.4039 33.646 27.2464 36.2259 21.2529C36.2336 21.0761 36.2388 20.8987 36.2424 20.7208C33.7811 26.8825 28.1143 31.1908 21.5168 31.1908C12.6735 31.1908 5.49308 23.4301 5.49308 13.8423C5.49308 10.0388 6.6241 6.52162 8.53978 3.66113C8.39506 3.75901 8.25121 3.85821 8.1092 3.96036C6.33454 6.77617 5.2959 10.1784 5.2959 13.8423Z" fill="#BFDBD1"/>
<path fill-rule="evenodd" clip-rule="evenodd" d="M5.17285 13.8419C5.17285 23.6164 12.4888 31.5366 21.5169 31.5366C27.9626 31.5366 33.541 27.4985 36.2054 21.6314C36.2167 21.4475 36.2252 21.2628 36.2321 21.0776C33.6902 27.1264 28.0599 31.3367 21.5169 31.3367C12.5997 31.3367 5.36979 23.496 5.36979 13.8419C5.36979 10.1285 6.43737 6.68746 8.25675 3.85645C8.114 3.95685 7.97261 4.05926 7.83269 4.16394C6.15139 6.94508 5.17285 10.2692 5.17285 13.8419Z" fill="#BDDAD0"/>
<path fill-rule="evenodd" clip-rule="evenodd" d="M5.0498 13.8428C5.0498 23.684 12.4273 31.6711 21.5169 31.6711C27.9072 31.6711 33.4474 27.7337 36.1811 21.9819C36.1954 21.7979 36.2075 21.6134 36.2173 21.428C33.5979 27.3665 27.9995 31.4708 21.5169 31.4708C12.5258 31.4708 5.23455 23.5768 5.23455 13.8428C5.23455 10.2251 6.2424 6.86196 7.96965 4.06348C7.83207 4.16442 7.6961 4.26749 7.56123 4.3723C5.97082 7.11704 5.0498 10.3632 5.0498 13.8428Z" fill="#BAD9D0"/>
<path fill-rule="evenodd" clip-rule="evenodd" d="M4.92578 13.8426C4.92578 23.7633 12.3528 31.8172 21.5162 31.8172C27.8512 31.8172 33.3521 27.9775 36.151 22.3352C36.1676 22.1594 36.1822 21.9829 36.1946 21.8057C33.4958 27.6178 27.9357 31.6041 21.5162 31.6041C12.4634 31.6041 5.1104 23.6571 5.1104 13.8426C5.1104 10.3146 6.06086 7.02766 7.69869 4.26465C7.56333 4.36786 7.42957 4.4736 7.29693 4.58067C5.79199 7.28635 4.92578 10.4555 4.92578 13.8426Z" fill="#B8D8CF"/>
<path fill-rule="evenodd" clip-rule="evenodd" d="M4.79102 13.8426C4.79102 23.8434 12.2794 31.9508 21.5169 31.9508C27.7878 31.9508 33.2515 28.2136 36.1147 22.685C36.1343 22.5093 36.1516 22.3329 36.1668 22.1557C33.4002 27.8514 27.88 31.7377 21.5169 31.7377C12.3903 31.7377 4.98808 23.7235 4.98808 13.8426C4.98808 10.4085 5.88052 7.2013 7.42684 4.47656C7.28865 4.58617 7.15182 4.69805 7.01658 4.81179C5.60106 7.46999 4.79102 10.5538 4.79102 13.8426Z" fill="#B6D7CD"/>
<path fill-rule="evenodd" clip-rule="evenodd" d="M4.66797 13.8421C4.66797 23.9096 12.218 32.0839 21.517 32.0839C27.7295 32.0839 33.1517 28.4443 36.073 23.0318C36.0953 22.8582 36.1152 22.6839 36.1333 22.509C33.3004 28.0949 27.8162 31.8835 21.517 31.8835C12.3166 31.8835 4.86503 23.8028 4.86503 13.8421C4.86503 10.5007 5.70451 7.37171 7.16634 4.6875C7.03037 4.79938 6.89563 4.91285 6.76274 5.02873C5.42851 7.64066 4.66797 10.6445 4.66797 13.8421Z" fill="#B4D6CD"/>
<path fill-rule="evenodd" clip-rule="evenodd" d="M4.54395 13.842C4.54395 23.9896 12.1431 32.217 21.516 32.217C27.6604 32.217 33.039 28.6902 36.0209 23.407C36.0474 23.2262 36.0719 23.0447 36.0938 22.8623C33.201 28.3326 27.7576 32.017 21.516 32.017C12.2539 32.017 4.72881 23.8833 4.72881 13.842C4.72881 10.5981 5.51521 7.5539 6.89095 4.91797C6.76163 5.02864 6.63379 5.14105 6.50742 5.25546C5.2546 7.81939 4.54395 10.7413 4.54395 13.842Z" fill="#B1D5CB"/>
<path fill-rule="evenodd" clip-rule="evenodd" d="M4.42188 13.8414C4.42188 24.069 12.0703 32.3631 21.5172 32.3631C27.5957 32.3631 32.9343 28.9284 35.9688 23.7549C35.9973 23.58 36.0233 23.4042 36.0477 23.2277C33.0926 28.5707 27.6923 32.15 21.5172 32.15C12.1812 32.15 4.60674 23.949 4.60674 13.8414C4.60674 10.6921 5.34068 7.73015 6.63242 5.14355C6.50519 5.25676 6.37956 5.37197 6.25529 5.48865C5.08302 7.99857 4.42188 10.8363 4.42188 13.8414Z" fill="#AFD4CB"/>
<path fill-rule="evenodd" clip-rule="evenodd" d="M4.28613 13.8414C4.28613 24.1356 12.0084 32.4963 21.5168 32.4963C27.5338 32.4963 32.8267 29.1559 35.908 24.0994C35.9396 23.9252 35.9687 23.7503 35.996 23.5745C32.9863 28.8032 27.6259 32.2832 21.5168 32.2832C12.107 32.2832 4.48295 24.029 4.48295 13.8414C4.48295 10.7877 5.16872 7.90693 6.38164 5.36914C6.2501 5.49035 6.12066 5.61423 5.99232 5.73944C4.89924 8.18922 4.28613 10.9376 4.28613 13.8414Z" fill="#ACD3CB"/>
<path fill-rule="evenodd" clip-rule="evenodd" d="M4.16211 13.8419C4.16211 24.2162 11.9339 32.6304 21.5161 32.6304C27.4695 32.6304 32.7155 29.3901 35.8404 24.4525C35.8745 24.2803 35.9068 24.1071 35.9368 23.9334C32.8782 29.0468 27.5631 32.43 21.5161 32.43C12.0447 32.43 4.35917 24.1099 4.35917 13.8419C4.35917 10.8822 4.99876 8.08509 6.13482 5.60156C6.00649 5.72424 5.87926 5.84811 5.75412 5.97466C4.73285 8.36804 4.16211 11.0329 4.16211 13.8419Z" fill="#ACD3C9"/>
<path fill-rule="evenodd" clip-rule="evenodd" d="M4.04004 13.8427C4.04004 24.297 11.8609 32.7643 21.5171 32.7643C27.3937 32.7643 32.5952 29.6278 35.7667 24.8158C35.8055 24.6369 35.8426 24.4572 35.877 24.2764C32.7735 29.2741 27.5028 32.5644 21.5171 32.5644C11.9718 32.5644 4.22478 24.177 4.22478 13.8427C4.22478 10.9865 4.81609 8.2812 5.87148 5.86035C5.75041 5.98063 5.63082 6.1025 5.51283 6.22625C4.56644 8.55723 4.04004 11.1334 4.04004 13.8427Z" fill="#AAD0C8"/>
<path fill-rule="evenodd" clip-rule="evenodd" d="M3.91699 13.8425C3.91699 24.3635 11.7993 32.8977 21.5172 32.8977C27.3303 32.8977 32.4832 29.8508 35.6905 25.1545C35.7306 24.9833 35.7683 24.811 35.8043 24.6381C32.6524 29.5107 27.427 32.6976 21.5172 32.6976C11.898 32.6976 4.10186 24.2567 4.10186 13.8425C4.10186 11.0839 4.6492 8.46392 5.63217 6.10254C5.5127 6.22548 5.39496 6.35029 5.27869 6.47683C4.40201 8.74287 3.91699 11.2311 3.91699 13.8425Z" fill="#A7CFC6"/>
<path fill-rule="evenodd" clip-rule="evenodd" d="M3.79297 13.8428C3.79297 24.4439 11.7248 33.0443 21.5166 33.0443C27.2613 33.0443 32.3622 30.0902 35.6021 25.512C35.6459 25.3388 35.6875 25.1645 35.7272 24.9894C32.5374 29.7422 27.3611 32.8312 21.5166 32.8312C11.8357 32.8312 3.97784 24.3371 3.97784 13.8428C3.97784 11.1814 4.48416 8.64814 5.39656 6.34863C5.27931 6.47384 5.1639 6.60105 5.04985 6.7296C4.23931 8.92976 3.79297 11.3299 3.79297 13.8428Z" fill="#A4CFC5"/>
<path fill-rule="evenodd" clip-rule="evenodd" d="M3.6582 13.8422C3.6582 24.5232 11.6515 33.1773 21.5171 33.1773C27.189 33.1773 32.2416 30.3159 35.5126 25.8541C35.5591 25.683 35.6036 25.5111 35.6459 25.3382C32.4218 29.9761 27.2952 32.9774 21.5171 32.9774C11.7622 32.9774 3.85526 24.4033 3.85526 13.8422C3.85526 11.2787 4.32119 8.83409 5.16437 6.60059C5.04318 6.73473 4.92396 6.87087 4.80633 7.00875C4.06501 9.13331 3.6582 11.436 3.6582 13.8422Z" fill="#A2CDC4"/>
<path fill-rule="evenodd" clip-rule="evenodd" d="M3.53516 13.8425C3.53516 24.5903 11.5902 33.3107 21.5173 33.3107C27.1142 33.3107 32.1134 30.5453 35.4136 26.2099C35.465 26.0333 35.5147 25.8557 35.5615 25.677C32.3047 30.2007 27.2248 33.1108 21.5173 33.1108C11.6887 33.1108 3.72002 24.4835 3.72002 13.8425C3.72002 11.3869 4.14531 9.03881 4.91902 6.87891C4.8062 7.00878 4.69474 7.13986 4.58525 7.27307C3.90625 9.32509 3.53516 11.5365 3.53516 13.8425Z" fill="#9FCCC4"/>
<path fill-rule="evenodd" clip-rule="evenodd" d="M3.41113 13.8423C3.41113 24.6701 11.5153 33.4441 21.5163 33.4441C27.0431 33.4441 31.9876 30.7701 35.3094 26.5541C35.3619 26.3846 35.4119 26.2138 35.4602 26.0423C32.1723 30.4356 27.1475 33.2437 21.5163 33.2437C11.6261 33.2437 3.596 24.5632 3.596 13.8423C3.596 11.487 3.98384 9.23061 4.69351 7.14258C4.58217 7.27539 4.47256 7.4098 4.36467 7.54594C3.74651 9.52249 3.41113 11.6403 3.41113 13.8423Z" fill="#9DCBC4"/>
<path fill-rule="evenodd" clip-rule="evenodd" d="M3.28809 13.8415C3.28809 24.7493 11.4538 33.5901 21.5164 33.5901C26.9652 33.5901 31.8549 31.003 35.1972 26.9024C35.2541 26.7299 35.3084 26.5561 35.361 26.3814C32.0496 30.657 27.0782 33.3765 21.5164 33.3765C11.5522 33.3765 3.47271 24.6293 3.47271 13.8415C3.47271 11.5872 3.8268 9.422 4.47588 7.40625C4.36675 7.54133 4.25948 7.6784 4.15368 7.81668C3.5923 9.71616 3.28809 11.7403 3.28809 13.8415Z" fill="#9ACAC2"/>
<path fill-rule="evenodd" clip-rule="evenodd" d="M3.15332 13.8422C3.15332 24.8168 11.3805 33.7239 21.5171 33.7239C26.8929 33.7239 31.7257 31.2244 35.0827 27.2426C35.1417 27.0735 35.1986 26.9037 35.2535 26.7324C31.92 30.8925 27.0017 33.524 21.5171 33.524C11.4792 33.524 3.35038 24.71 3.35038 13.8422C3.35038 11.6894 3.67048 9.61779 4.26007 7.67871C4.14651 7.82459 4.03554 7.97273 3.92593 8.12208C3.42416 9.93342 3.15332 11.8533 3.15332 13.8422Z" fill="#97C9C2"/>
<path fill-rule="evenodd" clip-rule="evenodd" d="M3.03027 13.8417C3.03027 24.8962 11.3069 33.857 21.5173 33.857C26.8118 33.857 31.584 31.4527 34.955 27.5992C35.0194 27.425 35.0821 27.2501 35.142 27.0735C31.7918 31.1146 26.9303 33.6566 21.5173 33.6566C11.4178 33.6566 3.21502 24.7895 3.21502 13.8417C3.21502 11.8009 3.50027 9.83261 4.02962 7.98047C3.92493 8.12048 3.82209 8.26209 3.72085 8.4053C3.27131 10.134 3.03027 11.9573 3.03027 13.8417Z" fill="#98C8BF"/>
<path fill-rule="evenodd" clip-rule="evenodd" d="M2.90625 13.8419C2.90625 24.9764 11.2442 33.9903 21.5163 33.9903C26.7331 33.9903 31.4482 31.6697 34.8292 27.9305C34.8943 27.7631 34.9569 27.5942 35.0178 27.4246C31.6519 31.3397 26.8496 33.79 21.5163 33.79C11.3427 33.79 3.09063 24.8564 3.09063 13.8419C3.09063 11.9052 3.34668 10.0335 3.82259 8.2627C3.71999 8.40511 3.61888 8.54872 3.51985 8.69419C3.12019 10.3377 2.90625 12.0627 2.90625 13.8419Z" fill="#94C7BF"/>
<path fill-rule="evenodd" clip-rule="evenodd" d="M2.7832 13.8422C2.7832 25.0434 11.1706 34.1373 21.5165 34.1373C26.6529 34.1373 31.3041 31.9002 34.6889 28.2797C34.7592 28.1086 34.8269 27.9362 34.8928 27.7626C31.5154 31.5605 26.7704 33.9237 21.5165 33.9237C11.2691 33.9237 2.96783 24.9366 2.96783 13.8422C2.96783 12.0111 3.19531 10.2378 3.61899 8.55176C3.51849 8.6967 3.41971 8.84298 3.32291 8.99099C2.97127 10.5454 2.7832 12.1698 2.7832 13.8422Z" fill="#92C6BF"/>
<path fill-rule="evenodd" clip-rule="evenodd" d="M2.64746 13.8424C2.64746 25.1237 11.0965 34.2707 21.5164 34.2707C26.5713 34.2707 31.1576 32.1228 34.5428 28.625C34.6152 28.4577 34.6855 28.289 34.7538 28.1191C31.3709 31.7956 26.6897 34.0708 21.5164 34.0708C11.2075 34.0708 2.84452 25.0169 2.84452 13.8424C2.84452 12.1174 3.04429 10.4432 3.41933 8.84473C3.31489 9.00127 3.21278 9.15995 3.11253 9.31996C2.80868 10.7749 2.64746 12.2882 2.64746 13.8424Z" fill="#8FC5BD"/>
<path fill-rule="evenodd" clip-rule="evenodd" d="M2.52441 13.8417C2.52441 25.2028 11.035 34.4035 21.5164 34.4035C26.4837 34.4035 31.006 32.3408 34.3923 28.9642C34.4699 28.7935 34.5457 28.6217 34.6188 28.4483C31.2331 32.0091 26.6136 34.2031 21.5164 34.2031C11.1334 34.2031 2.70928 25.0824 2.70928 13.8417C2.70928 12.2325 2.8827 10.6669 3.20908 9.16504C3.1124 9.31652 3.01793 9.46986 2.92507 9.62427C2.66297 10.9854 2.52441 12.396 2.52441 13.8417Z" fill="#8CC2BC"/>
<path fill-rule="evenodd" clip-rule="evenodd" d="M2.40137 13.8422C2.40137 25.2697 10.9614 34.5372 21.5165 34.5372C26.4032 34.5372 30.8599 32.5543 34.2402 29.2933C34.3191 29.1276 34.3961 28.9606 34.4707 28.7922C31.0822 32.2308 26.5259 34.3372 21.5165 34.3372C11.0598 34.3372 2.58599 25.1634 2.58599 13.8422C2.58599 12.341 2.73637 10.8782 3.01928 9.46875C2.92531 9.62183 2.83318 9.77637 2.74302 9.93252C2.51973 11.1986 2.40137 12.5054 2.40137 13.8422Z" fill="#8AC2BA"/>
<path fill-rule="evenodd" clip-rule="evenodd" d="M2.2793 13.8429C2.2793 25.3508 10.8882 34.6846 21.5176 34.6846C26.3155 34.6846 30.7 32.7866 34.0688 29.6478C34.1533 29.4791 34.2347 29.3083 34.3148 29.1367C30.9316 32.4524 26.443 34.4715 21.5176 34.4715C10.9993 34.4715 2.46404 25.244 2.46404 13.8429C2.46404 12.4521 2.59201 11.0938 2.83415 9.78027C2.74264 9.93562 2.65261 10.0919 2.56504 10.25C2.37771 11.4173 2.2793 12.6177 2.2793 13.8429Z" fill="#86C1BB"/>
<path fill-rule="evenodd" clip-rule="evenodd" d="M2.14258 13.8426C2.14258 25.4305 10.8257 34.8179 21.5165 34.8179C26.2257 34.8179 30.5412 32.9996 33.8981 29.9769C33.9842 29.8126 34.0678 29.6466 34.1496 29.4794C30.7753 32.6777 26.3567 34.6175 21.5165 34.6175C10.9241 34.6175 2.33964 25.3101 2.33964 13.8426C2.33964 12.5626 2.44728 11.3098 2.65211 10.0938C2.55665 10.2626 2.4633 10.4328 2.37253 10.605C2.2214 11.6603 2.14258 12.7414 2.14258 13.8426Z" fill="#86C0BA"/>
<path fill-rule="evenodd" clip-rule="evenodd" d="M2.01953 13.8419C2.01953 25.4961 10.7518 34.9504 21.5165 34.9504C26.1351 34.9504 30.3775 33.2127 33.7186 30.3105C33.8099 30.1441 33.8988 29.9761 33.9857 29.8066C30.6212 32.89 26.27 34.7504 21.5165 34.7504C10.8504 34.7504 2.2044 25.3898 2.2044 13.8419C2.2044 12.6835 2.29283 11.5476 2.46021 10.4404C2.37289 10.6023 2.28778 10.7657 2.20477 10.9303C2.08358 11.8821 2.01953 12.8537 2.01953 13.8419Z" fill="#84C0B8"/>
<path fill-rule="evenodd" clip-rule="evenodd" d="M1.89746 13.8423C1.89746 25.5765 10.6788 35.0839 21.5175 35.0839C26.0453 35.0839 30.2155 33.4238 33.5376 30.6361C33.6292 30.4759 33.7194 30.3147 33.8068 30.1516C30.4569 33.1099 26.1789 34.884 21.5175 34.884C10.7898 34.884 2.08208 25.4702 2.08208 13.8423C2.08208 12.797 2.15352 11.77 2.28949 10.7656C2.20451 10.9303 2.12211 11.0967 2.04144 11.2643C1.94697 12.1096 1.89746 12.9695 1.89746 13.8423Z" fill="#80BEB8"/>
<path fill-rule="evenodd" clip-rule="evenodd" d="M1.77441 13.8415C1.77441 25.6561 10.6173 35.2299 21.5175 35.2299C25.948 35.2299 30.0375 33.6517 33.3324 30.986C33.4331 30.8181 33.5323 30.649 33.6282 30.4777C30.2973 33.3203 26.0916 35.0167 21.5175 35.0167C10.716 35.0167 1.95891 25.5357 1.95891 13.8415C1.95891 12.9107 2.01483 11.994 2.12247 11.0947C2.03983 11.2622 1.96014 11.4317 1.88194 11.6021C1.81124 12.3383 1.77441 13.0851 1.77441 13.8415Z" fill="#7EBEB6"/>
<path fill-rule="evenodd" clip-rule="evenodd" d="M1.6377 13.8422C1.6377 25.7232 10.5424 35.3641 21.5164 35.3641C25.8567 35.3641 29.8695 33.8583 33.137 31.305C33.2378 31.144 33.3359 30.9811 33.4323 30.8168C30.1237 33.5437 25.9948 35.1638 21.5164 35.1638C10.6408 35.1638 1.83476 25.6168 1.83476 13.8422C1.83476 13.0268 1.87848 12.2223 1.96075 11.4307C1.87565 11.6117 1.79263 11.794 1.7127 11.9782C1.66405 12.5926 1.6377 13.214 1.6377 13.8422Z" fill="#7EBDB6"/>
<path fill-rule="evenodd" clip-rule="evenodd" d="M1.51465 13.8419C1.51465 25.8028 10.4684 35.497 21.5164 35.497C25.7572 35.497 29.6904 34.0675 32.9284 31.6306C33.0337 31.4694 33.1362 31.3059 33.2372 31.1412C29.9551 33.7528 25.9031 35.2972 21.5164 35.2972C10.5794 35.2972 1.69915 25.6829 1.69915 13.8419C1.69915 13.1557 1.73031 12.4774 1.78844 11.8076C1.71146 11.9804 1.63621 12.154 1.56391 12.3295C1.53201 12.8293 1.51465 13.3333 1.51465 13.8419Z" fill="#7ABCB5"/>
<path fill-rule="evenodd" clip-rule="evenodd" d="M1.3916 13.8421C1.3916 25.8836 10.4071 35.6308 21.5167 35.6308C25.6585 35.6308 29.5079 34.2782 32.7087 31.9594C32.8167 31.8011 32.9222 31.6408 33.0259 31.4789C29.7743 33.9678 25.804 35.4308 21.5167 35.4308C10.5058 35.4308 1.57635 25.7632 1.57635 13.8421C1.57635 13.2758 1.59679 12.7146 1.63633 12.1592C1.56181 12.3353 1.48927 12.5128 1.41944 12.6918C1.40109 13.0727 1.3916 13.4562 1.3916 13.8421Z" fill="#79B9B2"/>
<path fill-rule="evenodd" clip-rule="evenodd" d="M1.26855 13.8421C1.26855 25.9499 10.3335 35.7772 21.517 35.7772C25.5554 35.7772 29.3164 34.498 32.4748 32.2947C32.5918 32.1306 32.7064 31.9646 32.8188 31.7964C29.5991 34.1737 25.708 35.5641 21.517 35.5641C10.4319 35.5641 1.45342 25.8436 1.45342 13.8421C1.45342 13.3946 1.46746 12.9506 1.4921 12.5098C1.41992 12.6896 1.35021 12.871 1.28296 13.0537C1.27447 13.3156 1.26855 13.578 1.26855 13.8421Z" fill="#75B8B2"/>
<path fill-rule="evenodd" clip-rule="evenodd" d="M1.13281 13.8419C1.13281 26.0296 10.2592 35.9105 21.5165 35.9105C25.4539 35.9105 29.13 34.7004 32.2468 32.6068C32.3635 32.4497 32.4784 32.291 32.5908 32.1301C29.4108 34.3925 25.6064 35.7105 21.5165 35.7105C10.3701 35.7105 1.32987 25.9096 1.32987 13.8419C1.32987 13.5157 1.33776 13.1917 1.35081 12.8691C1.27667 13.0648 1.20573 13.2621 1.13725 13.4609C1.13528 13.5877 1.13281 13.7145 1.13281 13.8419Z" fill="#75B8B2"/>
<path fill-rule="evenodd" clip-rule="evenodd" d="M1.01074 13.8432C1.01148 26.1108 10.199 36.0436 21.5176 36.0436C25.3486 36.0436 28.9339 34.9068 32.0028 32.9293C32.1246 32.7724 32.2449 32.614 32.3623 32.4529C29.2248 34.6001 25.5068 35.8441 21.5176 35.8441C10.2973 35.8441 1.19536 25.9896 1.19536 13.8419C1.19536 13.6528 1.19758 13.4642 1.20202 13.2764C1.13538 13.4638 1.07208 13.6531 1.01074 13.8432Z" fill="#72B7B1"/>
<path fill-rule="evenodd" clip-rule="evenodd" d="M0.891602 14.2228C1.0793 26.3816 10.2418 36.1778 21.5171 36.1778C25.2438 36.1778 28.7387 35.1096 31.7558 33.2413C31.8806 33.0873 32.0036 32.9316 32.1239 32.7733C29.0307 34.8069 25.3997 35.9779 21.5171 35.9779C10.2228 35.9779 1.07179 26.0702 1.07179 13.8425C1.07179 13.7769 1.07364 13.712 1.07413 13.6465C1.01045 13.8372 0.949858 14.0294 0.891602 14.2228Z" fill="#6FB6AE"/>
<path fill-rule="evenodd" clip-rule="evenodd" d="M0.777344 14.6135C1.15299 26.6705 10.2894 36.3238 21.5172 36.3238C25.1301 36.3238 28.5275 35.3235 31.487 33.566C31.6217 33.4068 31.7539 33.2452 31.8838 33.0812C28.8396 35.006 25.2979 36.1102 21.5172 36.1102C10.2193 36.1102 1.04424 26.2373 0.950882 14.0293C0.890408 14.2228 0.832275 14.4175 0.777344 14.6135Z" fill="#6BB5AE"/>
<path fill-rule="evenodd" clip-rule="evenodd" d="M0.658203 15.0564C1.24114 26.9859 10.3641 36.4577 21.5167 36.4577C25.0207 36.4577 28.3219 35.5233 31.2213 33.874C31.354 33.7237 31.4842 33.5705 31.6125 33.4157C28.6264 35.2249 25.1839 36.2578 21.5167 36.2578C10.2666 36.2578 1.11674 26.5298 0.831987 14.4238C0.771144 14.6333 0.712641 14.844 0.658203 15.0564Z" fill="#68B3AD"/>
<path fill-rule="evenodd" clip-rule="evenodd" d="M0.558594 15.4614C1.32603 27.2671 10.4176 36.591 21.5167 36.591C24.9078 36.591 28.1103 35.7214 30.9463 34.1789C31.0841 34.0294 31.2188 33.8767 31.3522 33.7226C28.423 35.4247 25.0743 36.3912 21.5167 36.3912C10.3271 36.3912 1.20138 26.84 0.711439 14.8564C0.657863 15.057 0.606381 15.2583 0.558594 15.4614Z" fill="#64B2AC"/>
<path fill-rule="evenodd" clip-rule="evenodd" d="M0.46582 15.8771C1.41615 27.5644 10.4741 36.7246 21.5167 36.7246C24.7926 36.7246 27.8946 35.9181 30.663 34.4791C30.8045 34.3323 30.9431 34.1824 31.0802 34.0307C28.2129 35.6247 24.9618 36.5247 21.5167 36.5247C10.3911 36.5247 1.28474 27.1213 0.608197 15.2598C0.557947 15.4643 0.510036 15.6701 0.46582 15.8771Z" fill="#65B1AB"/>
<path fill-rule="evenodd" clip-rule="evenodd" d="M0.379883 16.3037C1.51447 27.8663 10.5469 36.8702 21.5171 36.8702C24.6679 36.8702 27.6579 36.128 30.3476 34.7979C30.5018 34.6452 30.6531 34.4894 30.8024 34.3309C28.0012 35.8195 24.8502 36.6566 21.5171 36.6566C10.4474 36.6566 1.37283 27.4175 0.511176 15.6729C0.464373 15.8819 0.420527 16.0921 0.379883 16.3037Z" fill="#62B0A9"/>
<path fill-rule="evenodd" clip-rule="evenodd" d="M0.293945 16.7796C1.62805 28.1815 10.6242 37.0039 21.5168 37.0039C24.55 37.0039 27.4342 36.3197 30.0473 35.0886C30.1991 34.945 30.3481 34.7983 30.4953 34.6494C27.7685 36.0312 24.7262 36.8046 21.5168 36.8046C10.5165 36.8046 1.46585 27.7171 0.421543 16.0918C0.375357 16.3197 0.332742 16.5489 0.293945 16.7796Z" fill="#5EAFA9"/>
<path fill-rule="evenodd" clip-rule="evenodd" d="M0.224609 17.2176C1.73435 28.4856 10.6892 37.1385 21.5159 37.1385C24.4259 37.1385 27.2008 36.5119 29.7334 35.379C29.8904 35.237 30.0451 35.0919 30.1976 34.9443C27.5457 36.2253 24.6082 36.9386 21.5159 36.9386C10.5903 36.9386 1.57498 28.0289 0.331515 16.5596C0.292349 16.7776 0.256878 16.9971 0.224609 17.2176Z" fill="#5EAFA9"/>
<path fill-rule="evenodd" clip-rule="evenodd" d="M0.165039 17.6647C1.8509 28.7914 10.7716 37.2706 21.5171 37.2706C24.3014 37.2706 26.9627 36.7019 29.4077 35.6668C29.569 35.5276 29.7281 35.3853 29.8849 35.2402C27.3137 36.4186 24.486 37.0706 21.5171 37.0706C10.6562 37.0706 1.68032 28.331 0.259136 16.9941C0.224035 17.2163 0.192997 17.44 0.165039 17.6647Z" fill="#5BAEA9"/>
<path fill-rule="evenodd" clip-rule="evenodd" d="M0.112305 18.1226C1.97158 29.0952 10.8455 37.4169 21.5163 37.4169C24.1642 37.4169 26.701 36.905 29.0476 35.9687C29.2251 35.8232 29.4 35.6742 29.5724 35.522C27.0828 36.6059 24.3642 37.2038 21.5163 37.2038C10.7357 37.2038 1.79201 28.638 0.19273 17.4404C0.162062 17.6666 0.135706 17.8941 0.112305 18.1226Z" fill="#5CADA7"/>
<path fill-rule="evenodd" clip-rule="evenodd" d="M0.0664062 18.6372C2.11412 29.4329 10.9392 37.5512 21.5168 37.5512C24.0358 37.5512 26.4548 37.0893 28.7072 36.2419C28.8805 36.1066 29.0515 35.9681 29.2201 35.8265C26.826 36.8107 24.2301 37.3513 21.5168 37.3513C10.8075 37.3513 1.90918 28.9381 0.136979 17.8896C0.108774 18.1374 0.0859893 18.3868 0.0664062 18.6372Z" fill="#57ACA6"/>
<path fill-rule="evenodd" clip-rule="evenodd" d="M0.0351562 19.1073C2.24976 29.7452 11.0306 37.6838 21.5171 37.6838C23.902 37.6838 26.1977 37.2725 28.3487 36.5143C28.5276 36.3817 28.7042 36.2457 28.8783 36.1065C26.5789 36.9973 24.101 37.484 21.5171 37.484C10.8974 37.484 2.04691 29.2709 0.0862695 18.3936C0.0650853 18.6302 0.0485811 18.8684 0.0351562 19.1073Z" fill="#55AAA4"/>
<path fill-rule="evenodd" clip-rule="evenodd" d="M0.0136719 19.5872C2.39159 30.0532 11.1163 37.8174 21.5171 37.8174C23.7658 37.8174 25.9354 37.454 27.9799 36.7807C28.1643 36.651 28.3464 36.518 28.5261 36.3813C26.3246 37.1826 23.9676 37.6171 21.5171 37.6171C10.9875 37.6171 2.17938 29.5846 0.0492663 18.8633C0.0331319 19.1033 0.0218007 19.3448 0.0136719 19.5872Z" fill="#54AAA6"/>
<path fill-rule="evenodd" clip-rule="evenodd" d="M0.00195312 20.0843C2.54023 30.3802 11.2059 37.9645 21.5162 37.9645C23.6132 37.9645 25.6424 37.65 27.5663 37.0636C27.7686 36.9296 27.9679 36.7914 28.1647 36.6492C26.0665 37.3647 23.8333 37.7514 21.5162 37.7514C11.0709 37.7514 2.31706 29.894 0.0212899 19.3428C0.0103283 19.5887 0.00453956 19.836 0.00195312 20.0843Z" fill="#4FA9A4"/>
<path fill-rule="evenodd" clip-rule="evenodd" d="M0.00369551 20.6296C2.71674 30.7242 11.3256 38.097 21.5168 38.097C23.4701 38.097 25.3646 37.8261 27.1704 37.3182C27.3682 37.1946 27.5632 37.0661 27.7562 36.9347C25.7769 37.5602 23.6836 37.8971 21.5168 37.8971C11.1606 37.8971 2.46389 30.2184 0.00541923 19.835C0.00197065 19.9924 0 20.1502 0 20.3086C0 20.4159 0.00209438 20.5227 0.00369551 20.6296Z" fill="#51A8A3"/>
<path fill-rule="evenodd" clip-rule="evenodd" d="M0.0176041 21.1416C2.88374 31.0443 11.426 38.2308 21.517 38.2308C23.3247 38.2308 25.082 37.9992 26.7663 37.5645C26.9706 37.4442 27.1717 37.3187 27.3713 37.1903C25.5053 37.7373 23.543 38.0308 21.517 38.0308C11.2776 38.0308 2.63606 30.562 0.000976562 20.376C0.00196187 20.6324 0.00787418 20.8876 0.0176041 21.1416Z" fill="#4CA6A1"/>
<path fill-rule="evenodd" clip-rule="evenodd" d="M0.0437761 21.6678C3.05894 31.376 11.5308 38.3647 21.5166 38.3647C23.173 38.3647 24.7876 38.1707 26.3432 37.8055C26.5539 37.689 26.7618 37.5676 26.9677 37.4426C25.2224 37.9133 23.3967 38.1647 21.5166 38.1647C11.3732 38.1647 2.79636 30.8773 0.0078125 20.877C0.0150792 21.1419 0.0272721 21.4055 0.0437761 21.6678Z" fill="#4CA6A1"/>
<path fill-rule="evenodd" clip-rule="evenodd" d="M0.0832508 22.1885C3.24314 31.7006 11.6472 38.5105 21.5169 38.5105C23.003 38.5105 24.4551 38.3547 25.8616 38.0604C26.0943 37.9412 26.3241 37.8167 26.5512 37.6872C24.9321 38.086 23.2473 38.2974 21.5169 38.2974C11.4756 38.2974 2.96787 31.206 0.0283203 21.3965C0.0419915 21.662 0.0602192 21.926 0.0832508 22.1885Z" fill="#48A6A1"/>
<path fill-rule="evenodd" clip-rule="evenodd" d="M0.142442 22.7777C3.45604 32.0584 11.7776 38.6444 21.5169 38.6444C22.841 38.6444 24.1384 38.5213 25.4008 38.2881C25.6287 38.1798 25.8541 38.0666 26.0769 37.9486C24.6036 38.2735 23.0787 38.4443 21.5169 38.4443C11.5916 38.4443 3.1496 31.5418 0.0615234 21.9248C0.0830771 22.2108 0.109681 22.4952 0.142442 22.7777Z" fill="#49A5A0"/>
<path fill-rule="evenodd" clip-rule="evenodd" d="M0.214768 23.34C3.66409 32.4012 11.9 38.7777 21.5164 38.7777C22.6745 38.7777 23.8123 38.6841 24.9247 38.5057C25.163 38.4011 25.3991 38.2918 25.6323 38.1767C24.2972 38.4397 22.9218 38.5778 21.5164 38.5778C11.7197 38.5778 3.35864 31.8914 0.113281 22.5068C0.142102 22.7862 0.175232 23.0642 0.214768 23.34Z" fill="#44A49F"/>
<path fill-rule="evenodd" clip-rule="evenodd" d="M0.303846 23.8998C3.88458 32.736 12.0363 38.9115 21.5171 38.9115C22.5035 38.9115 23.4755 38.8444 24.4295 38.7148C24.6793 38.6144 24.9268 38.5089 25.1712 38.3971C23.9809 38.6029 22.7606 38.7116 21.5171 38.7116C11.8405 38.7116 3.56214 32.2326 0.178711 23.0635C0.215291 23.3442 0.256551 23.623 0.303846 23.8998Z" fill="#42A29E"/>
<path fill-rule="evenodd" clip-rule="evenodd" d="M0.414468 24.496C4.12132 33.0956 12.1747 39.0584 21.5167 39.0584C22.308 39.0584 23.09 39.0153 23.861 38.9318C24.1385 38.8315 24.4128 38.7241 24.6841 38.6099C23.6484 38.7635 22.5914 38.8447 21.5167 38.8447C11.9734 38.8447 3.77683 32.5743 0.258789 23.626C0.304852 23.9183 0.356704 24.2083 0.414468 24.496Z" fill="#42A29C"/>
<path fill-rule="evenodd" clip-rule="evenodd" d="M0.555223 25.1442C4.39263 33.4711 12.3366 39.1905 21.5172 39.1905C22.1225 39.1905 22.7225 39.1657 23.3164 39.1167C23.5893 39.0284 23.8593 38.9334 24.1266 38.8318C23.2699 38.9355 22.3995 38.9906 21.5172 38.9906C12.1062 38.9906 4.0027 32.92 0.357422 24.2012C0.416417 24.5183 0.482311 24.8327 0.555223 25.1442Z" fill="#3CA19C"/>
<path fill-rule="evenodd" clip-rule="evenodd" d="M0.705181 25.7469C4.65541 33.8203 12.4945 39.3245 21.5168 39.3245C21.9303 39.3245 22.3415 39.3126 22.7499 39.2898C23.0357 39.2082 23.3186 39.1196 23.5988 39.0234C22.9127 39.089 22.2187 39.1246 21.5168 39.1246C12.2637 39.1246 4.26695 33.2952 0.487305 24.8447C0.553567 25.1482 0.625987 25.449 0.705181 25.7469Z" fill="#3CA19C"/>
<path fill-rule="evenodd" clip-rule="evenodd" d="M0.890242 26.3962C4.94664 34.1921 12.663 39.4577 21.5172 39.4577C21.731 39.4577 21.9441 39.4542 22.1565 39.4481C22.4567 39.3742 22.7542 39.2925 23.0485 39.2026C22.542 39.238 22.0318 39.2578 21.5172 39.2578C12.4214 39.2578 4.528 33.6522 0.630859 25.4541C0.7103 25.7713 0.796761 26.0855 0.890242 26.3962Z" fill="#38A09C"/>
<path fill-rule="evenodd" clip-rule="evenodd" d="M1.10419 27.0705C5.24938 34.5616 12.8088 39.5815 21.4588 39.6039C21.797 39.5356 22.1317 39.4572 22.463 39.3689C22.149 39.3823 21.834 39.3911 21.517 39.3911C12.5785 39.3911 4.79959 34.0077 0.794922 26.0732C0.890251 26.4095 0.992969 26.7422 1.10419 27.0705Z" fill="#399E99"/>
<path fill-rule="evenodd" clip-rule="evenodd" d="M1.36325 27.7887C5.49354 34.7666 12.6309 39.4607 20.7906 39.7244C21.1274 39.6706 21.4615 39.6074 21.792 39.5338C21.7002 39.535 21.6085 39.5375 21.5164 39.5375C12.7526 39.5375 5.10225 34.3902 0.995117 26.7373C1.10892 27.0925 1.23159 27.4431 1.36325 27.7887Z" fill="#339D99"/>
<path fill-rule="evenodd" clip-rule="evenodd" d="M1.65215 28.5058C5.72788 34.9635 12.4195 39.3324 20.0751 39.8227C20.4303 39.7813 20.7824 39.7287 21.1311 39.6655C12.7312 39.5212 5.38068 34.6719 1.23438 27.4424C1.36407 27.8023 1.50373 28.1567 1.65215 28.5058Z" fill="#349C96"/>
<path fill-rule="evenodd" clip-rule="evenodd" d="M1.98821 29.2556C5.97453 35.166 12.1943 39.1967 19.3072 39.8942C19.6894 39.8674 20.0686 39.829 20.4439 39.777C12.5281 39.3993 5.60836 34.8633 1.50098 28.1387C1.65321 28.5171 1.81504 28.8901 1.98821 29.2556Z" fill="#309B96"/>
<path fill-rule="evenodd" clip-rule="evenodd" d="M2.38248 30.0445C6.22149 35.3558 11.9036 39.0301 18.3859 39.9345C18.8242 39.9275 19.259 39.9039 19.6892 39.8639C12.3042 39.2649 5.84868 35.0645 1.81445 28.8799C1.99206 29.2756 2.18148 29.6642 2.38248 30.0445Z" fill="#309B96"/>
<path fill-rule="evenodd" clip-rule="evenodd" d="M2.8769 30.9252C6.53547 35.5985 11.6655 38.8786 17.4925 39.925C17.7 39.9326 17.9079 39.9379 18.117 39.9379C18.3514 39.9379 18.5843 39.9315 18.8165 39.9219C12.0334 39.1066 6.09393 35.2575 2.18164 29.6543C2.39902 30.0881 2.63106 30.5118 2.8769 30.9252Z" fill="#2A9A96"/>
<path fill-rule="evenodd" clip-rule="evenodd" d="M3.44784 31.8262C6.85233 35.8326 11.378 38.7043 16.4846 39.8569C16.9675 39.9036 17.4561 39.9298 17.9492 39.9349C11.7929 38.9558 6.38431 35.4815 2.62695 30.4922C2.88387 30.9497 3.1584 31.3943 3.44784 31.8262Z" fill="#2A9994"/>
<path fill-rule="evenodd" clip-rule="evenodd" d="M4.14341 32.8007C7.20144 36.0857 11.049 38.5106 15.3508 39.7096C15.8935 39.7997 16.4443 39.8624 17.0016 39.8991C11.5276 38.7942 6.69536 35.7182 3.15527 31.377C3.46528 31.8678 3.79462 32.3432 4.14341 32.8007Z" fill="#2A9994"/>
<path fill-rule="evenodd" clip-rule="evenodd" d="M5.14622 34.0087C7.65445 36.3991 10.6117 38.2493 13.8641 39.3915C14.5393 39.5676 15.2293 39.7026 15.9314 39.7944C11.2213 38.6109 7.02927 35.9623 3.78711 32.3164C4.21042 32.9083 4.66441 33.4733 5.14622 34.0087Z" fill="#289792"/>
<path fill-rule="evenodd" clip-rule="evenodd" d="M6.66599 35.5173C8.28891 36.8229 10.0633 37.9194 11.9551 38.7713C12.8058 39.1048 13.6861 39.3707 14.5903 39.5643C10.8156 38.3731 7.41445 36.2331 4.62012 33.3994C5.25035 34.1613 5.93415 34.8698 6.66599 35.5173Z" fill="#279793"/>
<path fill-rule="evenodd" clip-rule="evenodd" d="M12.9721 39.1324C10.2764 38.2685 7.84245 36.7434 5.83008 34.7305C7.94948 36.5982 10.3577 38.0967 12.9721 39.1324Z" fill="#2A9590"/>
<path fill-rule="evenodd" clip-rule="evenodd" d="M10.0731 37.8985C9.44803 37.5623 8.8433 37.1885 8.26172 36.7793C8.84983 37.1784 9.45357 37.5524 10.0731 37.8985Z" fill="#239590"/>
<path fill-rule="evenodd" clip-rule="evenodd" d="M27.3915 4.09467C32.2072 7.70841 33.9314 14.0424 31.2467 18.2291C28.5616 22.4298 22.4897 22.8964 17.6739 19.2828C12.8583 15.669 11.1339 9.34867 13.819 5.16155C16.5041 0.961359 22.5881 0.494656 27.3915 4.09467Z" fill="#AAB028"/>
<path fill-rule="evenodd" clip-rule="evenodd" d="M24.9033 7.2284C25.2728 7.68177 25.667 8.16168 26.0731 8.66825C26.5043 9.21482 26.9725 9.80194 27.4527 10.4421C27.6006 10.3749 27.3789 10.3085 27.9702 10.3885C28.5489 10.4817 30.2734 11.6822 31.4311 13.7754C32.5887 15.8556 32.9581 18.4691 31.4433 18.5355C29.9283 18.6023 27.6251 15.149 27.1202 13.4019C26.6153 11.6553 26.7753 11.7221 26.8986 11.2019C26.3936 10.4953 25.9256 9.85514 25.4822 9.24163C25.0633 8.66825 24.6693 8.14794 24.2875 7.65497C24.1272 7.68177 23.9302 7.66817 23.7454 7.64137C23.5607 7.61497 23.4253 7.56136 23.2529 7.49509C23.0927 7.90806 22.9204 8.36156 22.7233 8.85506C22.5017 9.38844 22.2553 9.98822 21.9596 10.6552C22.366 11.2818 22.6245 11.2019 22.6864 13.0821C22.7479 14.9623 21.0357 18.949 18.5604 19.0557C16.0725 19.1493 15.3581 14.7087 16.048 12.6686C16.7252 10.6416 16.836 10.922 17.378 10.3617C17.1686 9.54845 16.9594 8.80133 16.7621 8.12167C16.5896 7.49509 16.4049 6.90798 16.245 6.37461C16.0847 6.3614 16.6021 6.45501 15.7647 6.335C14.9392 6.20139 13.6583 5.00143 14.2618 4.20124C14.8655 3.40118 16.0725 3.14809 17.07 3.36117C18.0678 3.58786 18.7079 4.42806 18.5973 5.01463C18.4985 5.61481 18.1663 5.8411 17.6243 6.09472C17.809 6.54809 18.0183 7.04159 18.2155 7.56136C18.4371 8.12167 18.6712 8.72185 18.9174 9.37524C19.2501 9.28163 19.6318 9.25483 19.9521 9.29483C20.2724 9.32163 20.5186 9.41524 20.7772 9.54845C21.0975 8.97494 21.3808 8.46837 21.6395 7.98806C21.8612 7.56136 22.0705 7.1616 22.2553 6.80171C21.898 6.44181 21.6885 6.18832 21.6148 5.61481C21.5411 5.04144 22.132 4.48113 22.945 4.66794C23.7578 4.84155 24.6693 5.72162 24.8909 6.2814C25.1126 6.84171 25.0265 6.97479 24.9033 7.2284Z" fill="#8B8C30"/>
<path fill-rule="evenodd" clip-rule="evenodd" d="M24.9774 6.94946C25.3466 7.38923 25.7286 7.869 26.135 8.3757C26.5535 8.90961 27.0092 9.48259 27.4896 10.1096C27.6252 10.056 27.4158 9.97596 27.9825 10.056C28.5612 10.149 30.261 11.3359 31.394 13.3761C32.5271 15.4298 32.8842 17.9898 31.394 18.0566C29.9161 18.1098 27.6498 14.7365 27.1573 13.0162C26.6523 11.3095 26.8247 11.3627 26.9354 10.8562C26.4429 10.1628 25.9872 9.52246 25.5437 8.93588C25.1373 8.3757 24.7433 7.85593 24.3738 7.36243C24.2258 7.40243 24.0288 7.38923 23.8443 7.36243C23.6716 7.33562 23.5238 7.28242 23.3639 7.21615C23.2037 7.62911 23.0313 8.06901 22.8464 8.54918C22.6246 9.08269 22.3784 9.66927 22.0952 10.3227C22.4894 10.923 22.748 10.8562 22.8095 12.6963C22.871 14.5498 21.1838 18.4701 18.7451 18.5633C16.3189 18.6569 15.6168 14.2962 16.2819 12.296C16.947 10.3095 17.0577 10.5763 17.5874 10.0296C17.3905 9.2295 17.181 8.49611 16.9963 7.82899C16.8114 7.21615 16.639 6.64224 16.4791 6.10926C16.3311 6.10926 16.836 6.20234 16.011 6.06886C15.1979 5.94925 13.9418 4.77569 14.5329 3.9891C15.1242 3.20211 16.3064 2.94902 17.2917 3.1621C18.2647 3.37519 18.8929 4.20218 18.7944 4.78876C18.6835 5.36227 18.3634 5.60216 17.8336 5.84204C18.0184 6.29554 18.2156 6.77585 18.425 7.28242C18.6342 7.82899 18.8682 8.42931 19.1024 9.06949C19.4347 8.97588 19.8043 8.93588 20.1244 8.97588C20.4448 9.01589 20.6789 9.09589 20.9252 9.2295C21.2453 8.66919 21.5287 8.16262 21.775 7.70912C21.9968 7.28242 22.2061 6.89572 22.3907 6.53596C22.0337 6.17553 21.8242 5.92245 21.7504 5.36227C21.6764 4.80196 22.2677 4.26899 23.0681 4.4426C23.8565 4.61568 24.7557 5.46908 24.9649 6.01566C25.1864 6.57583 25.1004 6.70904 24.9774 6.94946Z" fill="#FEFEFE"/>
<path d="M219.218 34.7773C219.181 35.0172 219.083 35.204 218.899 35.3509C218.726 35.4971 218.517 35.5639 218.282 35.5639C218.036 35.5639 217.827 35.4971 217.655 35.3509C217.482 35.204 217.371 35.0172 217.347 34.7773H217.79C217.864 35.0172 218.024 35.124 218.27 35.124C218.529 35.124 218.701 35.0172 218.776 34.7773H219.218ZM220.081 35.7906V39.9241H218.973V37.6572L217.556 39.9241H216.435V35.7906H217.544V38.0844L218.985 35.7906H220.081ZM207.457 35.7906V39.9241H206.348V37.6572L204.919 39.9241H203.811V35.7906H204.919V38.0844L206.348 35.7906H207.457ZM191.174 35.7906H192.357V37.2306H193.65V35.7906H194.832V39.9241H193.65V38.2575H192.357V39.9241H191.174V35.7906ZM180.94 38.3506L180.521 36.8707L180.102 38.3506H180.94ZM181.186 39.244H179.855L179.658 39.9241H178.452L179.892 35.7906H181.186L182.615 39.9241H181.383L181.186 39.244ZM169.867 39.9241H168.685V36.8044H167.392V39.9241H166.209V35.7906H169.867V39.9241ZM152.981 35.7906H154.533L155.125 38.3111L155.728 35.7906H157.267V39.9241H156.307V36.7771L155.568 39.9241H154.693L153.942 36.7771V39.9241H152.981V35.7906ZM141.391 37.8708C141.391 38.2837 141.465 38.5774 141.601 38.7641C141.749 38.9509 141.946 39.0445 142.192 39.0445C142.451 39.0445 142.648 38.9509 142.783 38.7773C142.919 38.591 142.993 38.2707 142.993 37.804C142.993 37.4173 142.919 37.1374 142.771 36.9638C142.623 36.7771 142.426 36.6839 142.18 36.6839C141.946 36.6839 141.749 36.7771 141.614 36.9638C141.465 37.1374 141.391 37.4441 141.391 37.8708ZM140.209 37.8576C140.209 37.1906 140.382 36.6571 140.727 36.2841C141.084 35.9106 141.564 35.7238 142.18 35.7238C142.82 35.7238 143.313 35.9106 143.658 36.2841C144.003 36.644 144.175 37.1642 144.175 37.8308C144.175 38.3111 144.101 38.711 143.941 39.0177C143.793 39.3244 143.572 39.5642 143.288 39.7373C143.005 39.9109 142.66 40.004 142.229 40.004C141.798 40.004 141.441 39.9241 141.158 39.7773C140.874 39.6311 140.653 39.3906 140.48 39.0707C140.296 38.7505 140.209 38.3506 140.209 37.8576ZM131.76 39.9241H130.43L129.962 38.8577C129.851 38.6174 129.765 38.4574 129.716 38.3911C129.654 38.3243 129.568 38.2975 129.457 38.2975V39.9241H128.287V35.7906H129.457V37.3773C129.568 37.3773 129.642 37.3373 129.704 37.2574C129.753 37.1906 129.851 36.977 129.974 36.6308C130.061 36.3772 130.147 36.1905 130.233 36.0841C130.331 35.9637 130.48 35.8838 130.676 35.8442C130.885 35.7906 131.193 35.7638 131.637 35.7638V36.6308H131.575C131.366 36.6308 131.218 36.6839 131.12 36.7639C131.034 36.8439 130.948 36.977 130.885 37.1642C130.824 37.351 130.75 37.4841 130.689 37.5777C130.615 37.6709 130.516 37.7372 130.393 37.7904C130.553 37.8576 130.701 37.9639 130.836 38.1107C130.96 38.2575 131.095 38.4842 131.23 38.8041L131.76 39.9241ZM106.66 38.3506L106.241 36.8707L105.822 38.3506H106.66ZM106.906 39.244H105.576L105.378 39.9241H104.171L105.613 35.7906H106.906L108.335 39.9241H107.103L106.906 39.244ZM95.5871 39.9241H94.4171V36.8044H93.1114V39.9241H91.9417V35.7906H95.5871V39.9241ZM82.9629 39.9241H81.7802V36.8044H80.4872V39.9241H79.3049V35.7906H82.9629V39.9241ZM67.1734 35.7906H68.4543L68.9839 37.4973L69.5132 35.7906H70.708L69.4519 38.9909C69.3533 39.244 69.2668 39.4312 69.1934 39.5642C69.1068 39.6843 68.9961 39.7909 68.8483 39.8709C68.7006 39.9641 68.4913 40.004 68.2327 40.004C68.0971 40.004 67.8508 39.9777 67.5179 39.9373V39.0839C67.7152 39.0975 67.8629 39.1107 67.949 39.1107C68.2201 39.1107 68.3926 39.0039 68.4543 38.7909L67.1734 35.7906ZM56.6795 37.5641H56.9633C57.197 37.5641 57.3569 37.5105 57.4556 37.431C57.542 37.351 57.591 37.2306 57.591 37.0974C57.591 36.977 57.5541 36.8575 57.4681 36.7771C57.3817 36.6839 57.2339 36.6308 57.0123 36.6308H56.6795V37.5641ZM55.4973 35.7906H57.4556C57.887 35.7906 58.2067 35.8974 58.4161 36.1237C58.6256 36.3372 58.7363 36.6571 58.7363 37.0706C58.7363 37.4841 58.6134 37.804 58.3918 38.0444C58.1576 38.2837 57.8005 38.4042 57.32 38.4042H56.6795V39.9241H55.4973V35.7906ZM46.7774 36.8044H44.9299V39.9241H43.7598V35.7906H46.7774V36.8044Z" fill="#156F82"/>
<path fill-rule="evenodd" clip-rule="evenodd" d="M41.3584 33.2852H223V31.791H41.3584V33.2852Z" fill="#156F82"/>
<path d="M86.1279 29.8832H92.0027V16.5299C90.5671 16.5058 89.2033 16.4922 87.931 16.4922C87.3278 16.4922 86.7271 16.4946 86.1279 16.4983V29.8832Z" fill="#156F82"/>
<path d="M98.5928 29.8839H110.958V24.6972H104.282V21.8569H110.009V17.9896H104.282C104.282 17.9766 104.282 17.9634 104.282 17.9634C104.33 17.5967 104.447 17.2472 104.614 16.9293C102.531 16.8411 100.519 16.7641 98.5928 16.7002V29.8839Z" fill="#156F82"/>
<path d="M116.772 29.0846C118.878 28.2844 120.146 25.8577 120.935 22.7374C121.429 20.7798 121.565 20.086 121.883 17.7955C119.933 17.6865 118.004 17.5817 116.103 17.4814C116.013 18.3936 115.927 19.2569 115.762 20.1102C115.368 22.1639 114.863 24.5372 112.424 24.6176V29.8175C114.173 29.8448 115.06 29.7244 116.772 29.0846ZM124.753 17.9576V29.4845H130.652V18.3002C128.677 18.1836 126.708 18.0692 124.753 17.9576Z" fill="#156F82"/>
<path d="M156.43 20.2168L156.431 19.8487C154.504 19.7354 152.538 19.6181 150.543 19.498V29.884H156.43V24.0572H156.898C157.969 24.0572 158.733 23.9904 159.411 23.8704C160.101 23.7505 160.716 23.5905 161.271 23.3638C162.022 23.0571 162.65 22.6704 163.155 22.2037C163.66 21.7504 164.067 21.2304 164.374 20.6703C164.43 20.5643 164.484 20.4429 164.534 20.3117C162.687 20.2101 160.78 20.1018 158.827 19.9886C158.648 20.0549 158.452 20.1017 158.24 20.1368C157.92 20.1904 157.563 20.2168 157.194 20.2168H156.43Z" fill="#156F82"/>
<path d="M53.4405 18.6191V19.5622C53.4405 20.1493 53.4037 20.7359 53.2559 21.1889C52.8739 22.3758 52.1597 23.8024 50.5711 23.8024C48.8415 23.8024 47.9728 22.2096 47.7639 19.5018C45.3693 19.9318 43.363 20.3809 41.8154 20.8298C42.1577 27.2204 44.7781 29.8829 48.2431 29.8829C51.5561 29.8829 53.2928 27.4029 54.0072 25.923H54.1179L54.6227 29.5231H59.599C59.5126 27.5098 59.1923 24.7362 59.1923 21.5756V17.9326C57.1601 18.1458 55.2368 18.3761 53.4405 18.6191Z" fill="#156F82"/>
<path d="M219.489 23.3634C218.565 23.4702 217.445 23.83 216.003 23.9236C213.023 24.0968 210.473 21.9499 210.584 17.4564C210.581 17.3332 210.579 17.2114 210.58 17.0908C208.464 17.6789 206.371 18.2073 204.314 18.6739C204.663 26.0946 208.95 30.2289 215.067 29.8574C217.408 29.7238 219.428 29.0436 220.486 28.4038L219.489 23.3634Z" fill="#156F82"/>
<path d="M176.395 21.1634V24.6303C176.185 24.7903 175.865 24.937 175.434 25.0833C175.003 25.2169 174.486 25.2969 173.87 25.3101C173.217 25.3101 172.687 25.1506 172.306 24.8302C171.924 24.5104 171.727 24.0301 171.727 23.3771C171.727 22.99 171.788 22.6569 171.912 22.4035C172.035 22.1366 172.232 21.9236 172.491 21.7501C172.724 21.6033 173.02 21.4833 173.365 21.3902C173.71 21.3098 174.092 21.2566 174.535 21.2434L176.395 21.1634ZM181.9 21.0862C177.884 20.9833 172.83 20.7547 167.119 20.4512C167.073 20.5186 167.028 20.5872 166.985 20.6568C166.48 21.4833 166.222 22.5101 166.222 23.7633C166.234 24.977 166.48 26.0435 166.985 26.9503C167.49 27.8704 168.18 28.5906 169.066 29.0973C169.941 29.6176 170.951 29.8838 172.084 29.8838C172.811 29.8838 173.451 29.7907 174.03 29.6176C174.622 29.444 175.139 29.2041 175.619 28.9105C176.087 28.6175 176.518 28.2839 176.9 27.9104L177.664 29.4971H182.184C182.098 29.1373 182.024 28.7638 181.987 28.3376C181.937 27.9241 181.913 27.4838 181.913 27.0571C181.9 26.6168 181.9 26.2039 181.9 25.8166V21.0862Z" fill="#156F82"/>
<path d="M184.869 29.6835H190.682V21.6296H195.781V29.6835H201.595V19.2588C195.459 20.5056 189.735 21.1629 184.869 21.1387V29.6835Z" fill="#156F82"/>
<path d="M61.668 29.6837H67.4812V21.6299H72.5677V29.6837H78.3935V16.6484C76.4113 16.7128 74.4668 16.7963 72.5677 16.8961V17.7495H67.4812V17.2095C65.4726 17.352 63.5307 17.5122 61.668 17.6872V29.6837Z" fill="#156F82"/>
<path d="M138.226 18.752L138.252 30.9024H144.298L144.322 19.1212L138.226 18.752Z" fill="#156F82"/>
<path d="M219.218 34.7773C219.181 35.0172 219.083 35.204 218.899 35.3509C218.726 35.4971 218.517 35.5639 218.282 35.5639C218.036 35.5639 217.827 35.4971 217.655 35.3509C217.482 35.204 217.371 35.0172 217.347 34.7773H217.79C217.864 35.0172 218.024 35.124 218.27 35.124C218.529 35.124 218.701 35.0172 218.776 34.7773H219.218ZM220.081 35.7906V39.9241H218.973V37.6572L217.556 39.9241H216.435V35.7906H217.544V38.0844L218.985 35.7906H220.081ZM207.457 35.7906V39.9241H206.348V37.6572L204.919 39.9241H203.811V35.7906H204.919V38.0844L206.348 35.7906H207.457ZM191.174 35.7906H192.357V37.2306H193.65V35.7906H194.832V39.9241H193.65V38.2575H192.357V39.9241H191.174V35.7906ZM180.94 38.3506L180.521 36.8707L180.102 38.3506H180.94ZM181.186 39.244H179.855L179.658 39.9241H178.452L179.892 35.7906H181.186L182.615 39.9241H181.383L181.186 39.244ZM169.867 39.9241H168.685V36.8044H167.392V39.9241H166.209V35.7906H169.867V39.9241ZM152.981 35.7906H154.533L155.125 38.3111L155.728 35.7906H157.267V39.9241H156.307V36.7771L155.568 39.9241H154.693L153.942 36.7771V39.9241H152.981V35.7906ZM141.391 37.8708C141.391 38.2837 141.465 38.5774 141.601 38.7641C141.749 38.9509 141.946 39.0445 142.192 39.0445C142.451 39.0445 142.648 38.9509 142.783 38.7773C142.919 38.591 142.993 38.2707 142.993 37.804C142.993 37.4173 142.919 37.1374 142.771 36.9638C142.623 36.7771 142.426 36.6839 142.18 36.6839C141.946 36.6839 141.749 36.7771 141.614 36.9638C141.465 37.1374 141.391 37.4441 141.391 37.8708ZM140.209 37.8576C140.209 37.1906 140.382 36.6571 140.727 36.2841C141.084 35.9106 141.564 35.7238 142.18 35.7238C142.82 35.7238 143.313 35.9106 143.658 36.2841C144.003 36.644 144.175 37.1642 144.175 37.8308C144.175 38.3111 144.101 38.711 143.941 39.0177C143.793 39.3244 143.572 39.5642 143.288 39.7373C143.005 39.9109 142.66 40.004 142.229 40.004C141.798 40.004 141.441 39.9241 141.158 39.7773C140.874 39.6311 140.653 39.3906 140.48 39.0707C140.296 38.7505 140.209 38.3506 140.209 37.8576ZM131.76 39.9241H130.43L129.962 38.8577C129.851 38.6174 129.765 38.4574 129.716 38.3911C129.654 38.3243 129.568 38.2975 129.457 38.2975V39.9241H128.287V35.7906H129.457V37.3773C129.568 37.3773 129.642 37.3373 129.704 37.2574C129.753 37.1906 129.851 36.977 129.974 36.6308C130.061 36.3772 130.147 36.1905 130.233 36.0841C130.331 35.9637 130.48 35.8838 130.676 35.8442C130.885 35.7906 131.193 35.7638 131.637 35.7638V36.6308H131.575C131.366 36.6308 131.218 36.6839 131.12 36.7639C131.034 36.8439 130.948 36.977 130.885 37.1642C130.824 37.351 130.75 37.4841 130.689 37.5777C130.615 37.6709 130.516 37.7372 130.393 37.7904C130.553 37.8576 130.701 37.9639 130.836 38.1107C130.96 38.2575 131.095 38.4842 131.23 38.8041L131.76 39.9241ZM106.66 38.3506L106.241 36.8707L105.822 38.3506H106.66ZM106.906 39.244H105.576L105.378 39.9241H104.171L105.613 35.7906H106.906L108.335 39.9241H107.103L106.906 39.244ZM95.5871 39.9241H94.4171V36.8044H93.1114V39.9241H91.9417V35.7906H95.5871V39.9241ZM82.9629 39.9241H81.7802V36.8044H80.4872V39.9241H79.3049V35.7906H82.9629V39.9241ZM67.1734 35.7906H68.4543L68.9839 37.4973L69.5132 35.7906H70.708L69.4519 38.9909C69.3533 39.244 69.2668 39.4312 69.1934 39.5642C69.1068 39.6843 68.9961 39.7909 68.8483 39.8709C68.7006 39.9641 68.4913 40.004 68.2327 40.004C68.0971 40.004 67.8508 39.9777 67.5179 39.9373V39.0839C67.7152 39.0975 67.8629 39.1107 67.949 39.1107C68.2201 39.1107 68.3926 39.0039 68.4543 38.7909L67.1734 35.7906ZM56.6795 37.5641H56.9633C57.197 37.5641 57.3569 37.5105 57.4556 37.431C57.542 37.351 57.591 37.2306 57.591 37.0974C57.591 36.977 57.5541 36.8575 57.4681 36.7771C57.3817 36.6839 57.2339 36.6308 57.0123 36.6308H56.6795V37.5641ZM55.4973 35.7906H57.4556C57.887 35.7906 58.2067 35.8974 58.4161 36.1237C58.6256 36.3372 58.7363 36.6571 58.7363 37.0706C58.7363 37.4841 58.6134 37.804 58.3918 38.0444C58.1576 38.2837 57.8005 38.4042 57.32 38.4042H56.6795V39.9241H55.4973V35.7906ZM46.7774 36.8044H44.9299V39.9241H43.7598V35.7906H46.7774V36.8044Z" fill="#156F82"/>
<path fill-rule="evenodd" clip-rule="evenodd" d="M41.3584 33.2852H223V31.791H41.3584V33.2852Z" fill="#156F82"/>
<path d="M86.1279 29.8832H92.0027V16.5299C90.5671 16.5058 89.2033 16.4922 87.931 16.4922C87.3278 16.4922 86.7271 16.4946 86.1279 16.4983V29.8832Z" fill="#156F82"/>
<path d="M98.5928 29.8839H110.958V24.6972H104.282V21.8569H110.009V17.9896H104.282C104.282 17.9766 104.282 17.9634 104.282 17.9634C104.33 17.5967 104.447 17.2472 104.614 16.9293C102.531 16.8411 100.519 16.7641 98.5928 16.7002V29.8839Z" fill="#156F82"/>
<path d="M116.772 29.0846C118.878 28.2844 120.146 25.8577 120.935 22.7374C121.429 20.7798 121.565 20.086 121.883 17.7955C119.933 17.6865 118.004 17.5817 116.103 17.4814C116.013 18.3936 115.927 19.2569 115.762 20.1102C115.368 22.1639 114.863 24.5372 112.424 24.6176V29.8175C114.173 29.8448 115.06 29.7244 116.772 29.0846ZM124.753 17.9576V29.4845H130.652V18.3002C128.677 18.1836 126.708 18.0692 124.753 17.9576Z" fill="#156F82"/>
<path d="M156.43 20.2168L156.431 19.8487C154.504 19.7354 152.538 19.6181 150.543 19.498V29.884H156.43V24.0572H156.898C157.969 24.0572 158.733 23.9904 159.411 23.8704C160.101 23.7505 160.716 23.5905 161.271 23.3638C162.022 23.0571 162.65 22.6704 163.155 22.2037C163.66 21.7504 164.067 21.2304 164.374 20.6703C164.43 20.5643 164.484 20.4429 164.534 20.3117C162.687 20.2101 160.78 20.1018 158.827 19.9886C158.648 20.0549 158.452 20.1017 158.24 20.1368C157.92 20.1904 157.563 20.2168 157.194 20.2168H156.43Z" fill="#156F82"/>
<path d="M53.4405 18.6191V19.5622C53.4405 20.1493 53.4037 20.7359 53.2559 21.1889C52.8739 22.3758 52.1597 23.8024 50.5711 23.8024C48.8415 23.8024 47.9728 22.2096 47.7639 19.5018C45.3693 19.9318 43.363 20.3809 41.8154 20.8298C42.1577 27.2204 44.7781 29.8829 48.2431 29.8829C51.5561 29.8829 53.2928 27.4029 54.0072 25.923H54.1179L54.6227 29.5231H59.599C59.5126 27.5098 59.1923 24.7362 59.1923 21.5756V17.9326C57.1601 18.1458 55.2368 18.3761 53.4405 18.6191Z" fill="#156F82"/>
<path d="M219.489 23.3634C218.565 23.4702 217.445 23.83 216.003 23.9236C213.023 24.0968 210.473 21.9499 210.584 17.4564C210.581 17.3332 210.579 17.2114 210.58 17.0908C208.464 17.6789 206.371 18.2073 204.314 18.6739C204.663 26.0946 208.95 30.2289 215.067 29.8574C217.408 29.7238 219.428 29.0436 220.486 28.4038L219.489 23.3634Z" fill="#156F82"/>
<path d="M176.395 21.1634V24.6303C176.185 24.7903 175.865 24.937 175.434 25.0833C175.003 25.2169 174.486 25.2969 173.87 25.3101C173.217 25.3101 172.687 25.1506 172.306 24.8302C171.924 24.5104 171.727 24.0301 171.727 23.3771C171.727 22.99 171.788 22.6569 171.912 22.4035C172.035 22.1366 172.232 21.9236 172.491 21.7501C172.724 21.6033 173.02 21.4833 173.365 21.3902C173.71 21.3098 174.092 21.2566 174.535 21.2434L176.395 21.1634ZM181.9 21.0862C177.884 20.9833 172.83 20.7547 167.119 20.4512C167.073 20.5186 167.028 20.5872 166.985 20.6568C166.48 21.4833 166.222 22.5101 166.222 23.7633C166.234 24.977 166.48 26.0435 166.985 26.9503C167.49 27.8704 168.18 28.5906 169.066 29.0973C169.941 29.6176 170.951 29.8838 172.084 29.8838C172.811 29.8838 173.451 29.7907 174.03 29.6176C174.622 29.444 175.139 29.2041 175.619 28.9105C176.087 28.6175 176.518 28.2839 176.9 27.9104L177.664 29.4971H182.184C182.098 29.1373 182.024 28.7638 181.987 28.3376C181.937 27.9241 181.913 27.4838 181.913 27.0571C181.9 26.6168 181.9 26.2039 181.9 25.8166V21.0862Z" fill="#156F82"/>
<path d="M184.869 29.6835H190.682V21.6296H195.781V29.6835H201.595V19.2588C195.459 20.5056 189.735 21.1629 184.869 21.1387V29.6835Z" fill="#156F82"/>
<path d="M61.668 29.6837H67.4812V21.6299H72.5677V29.6837H78.3935V16.6484C76.4113 16.7128 74.4668 16.7963 72.5677 16.8961V17.7495H67.4812V17.2095C65.4726 17.352 63.5307 17.5122 61.668 17.6872V29.6837Z" fill="#156F82"/>
<path d="M138.226 18.752L138.252 30.9024H144.298L144.322 19.1212L138.226 18.752Z" fill="#156F82"/>
<path d="M41.6904 12.0028C42.7867 8.81589 44.7818 6.88254 47.4297 5.20215H41.6904V12.0028Z" fill="#AAB028"/>
<path d="M131.97 12.0028C133.066 8.81589 135.062 6.88254 137.697 5.20215H131.97V12.0028Z" fill="#AAB028"/>
<path d="M204.365 12.0028C205.462 8.81589 207.457 6.88254 210.092 5.20215H204.365V12.0028Z" fill="#AAB028"/>
<path d="M92.0039 16.9439V15.4692H96.5735C97.2382 13.1356 98.5439 11.4289 100.896 10.1484H84.5402C82.1879 11.4289 80.5129 13.1356 79.8477 15.4692H86.1291V16.9024C86.5846 16.9003 87.0409 16.8988 87.4987 16.8988C88.8988 16.8988 90.4072 16.9147 92.0039 16.9439Z" fill="#156F82"/>
<path d="M104.432 17.3451C104.829 16.2248 105.85 15.3786 106.844 15.3218L109.702 15.1351C109.702 15.1351 112.19 10.575 112.498 10.0547C111.894 10.0547 107.349 10.1478 105.231 10.1478C104.086 10.1478 102.989 10.5082 102.029 11.1748C100.686 12.108 99.5286 13.3216 99.0112 14.4553C98.6909 15.1751 98.5928 15.5086 98.5928 16.282V17.12C100.465 17.1836 102.415 17.2592 104.432 17.3451Z" fill="#156F82"/>
<path d="M121.823 18.2211C121.871 17.8823 121.922 17.5068 121.981 17.0821C122.153 15.8017 123.163 15.4156 123.717 15.4418H124.752V18.3871C126.708 18.4991 128.677 18.6139 130.651 18.7306V10.1748C127.991 10.1616 125.33 10.1478 122.671 10.1348C120.281 10.5351 117.005 11.5351 116.475 14.5086C116.26 15.7423 116.166 16.8541 116.06 17.907C117.956 18.0074 119.879 18.1123 121.823 18.2211Z" fill="#156F82"/>
<path d="M156.43 20.2169L156.443 15.8835C156.443 13.6566 159.201 13.3762 160.15 15.2169C160.384 15.6568 160.47 16.1766 160.458 16.7099C160.458 17.3771 160.347 17.95 160.125 18.4171C159.904 18.8837 159.559 19.6303 159.09 19.8707C158.844 20.0038 158.561 20.0838 158.24 20.1369C157.92 20.1905 157.563 20.2169 157.194 20.2169H156.43ZM150.543 19.9305C155.366 20.2202 160.017 20.494 164.34 20.7312L164.374 20.6704C164.67 20.1101 164.891 19.1236 165.027 18.5102C165.162 17.91 165.224 17.3103 165.224 16.7099C165.224 15.2301 164.928 13.9896 164.362 12.9633C163.795 11.95 162.97 11.163 161.899 10.6295C161.308 10.3365 160.642 10.1229 159.916 9.98929C159.189 9.85621 159.041 9.82941 158.191 9.78941C154.607 9.62939 150.543 12.1499 150.543 16.7367V19.9305Z" fill="#156F82"/>
<path d="M59.1917 5.20215H53.4398V18.9681C55.2399 18.7295 57.1628 18.5034 59.1917 18.2946V5.20215ZM47.7919 19.8273C47.7408 19.3187 47.7149 18.7673 47.7129 18.1765L47.6759 6.13542C45.7303 7.32231 42.7249 10.4025 41.7764 14.6695V19.3634C41.7764 19.975 41.7951 20.5567 41.8312 21.1099C43.4151 20.6751 45.4239 20.2416 47.7919 19.8273Z" fill="#156F82"/>
<path d="M210.583 17.3742C210.492 13.4324 212.676 10.7766 215.881 10.9224C217.494 10.9892 218.566 11.3753 219.28 11.8024L220.462 6.32176C219.194 5.68198 217.433 5.26848 215.819 5.20167C208.491 4.88138 204.254 10.4289 204.291 17.7493C204.292 18.1685 204.306 18.5774 204.331 18.9771C206.385 18.5034 208.474 17.9679 210.583 17.3742Z" fill="#156F82"/>
<path d="M176.395 21.1628V21.3205C178.398 21.4013 180.241 21.4631 181.9 21.5027V17.456C181.9 15.9357 181.654 14.642 181.137 13.5889C180.619 12.5356 179.807 11.7354 178.698 11.1752C177.59 10.6285 176.148 10.3486 174.387 10.3486C173.02 10.3486 171.751 10.5218 170.569 10.8421C169.387 11.162 168.303 11.6018 167.281 12.1621L168.992 15.9089C169.411 15.6689 169.855 15.469 170.348 15.2954C170.84 15.1223 171.345 15.0025 171.863 14.9092C172.38 14.8156 172.872 14.762 173.365 14.762C174.301 14.762 175.04 14.9487 175.582 15.3354C176.112 15.7226 176.382 16.3492 176.395 17.2157V17.4161L173.661 17.536C172.786 17.5756 171.961 17.6823 171.185 17.8691C170.421 18.0558 169.719 18.3226 169.104 18.6693C168.205 19.1758 167.49 19.8424 166.985 20.6562C166.943 20.7249 166.903 20.7952 166.864 20.8665C169.59 21.0109 172.163 21.138 174.546 21.2424L176.395 21.1628Z" fill="#156F82"/>
<path d="M201.595 19.578V10.0163H195.781V17.7502H190.682V10.0163C190.251 10.0163 189.82 10.0031 189.389 9.98951C187.443 9.96311 184.869 11.9765 184.869 14.1902V21.5468C189.756 21.5308 195.477 20.8446 201.595 19.578Z" fill="#156F82"/>
<path d="M78.3935 17.0421V10.0163H72.5677V17.2805C74.4674 17.1835 76.4126 17.1035 78.3935 17.0421ZM67.4812 17.5861V10.0163C67.0501 10.0163 66.607 10.0031 66.1759 9.98951C64.2298 9.96311 61.668 11.9765 61.668 14.1902V18.0541C63.5328 17.8824 65.4739 17.7252 67.4812 17.5861Z" fill="#156F82"/>
<path d="M138.748 5.54688C138.74 5.55021 138.73 5.55301 138.722 5.55634C134.812 7.18113 132.458 12.8697 132.458 12.8697L132.732 12.9088H138.221V16.4773L138.227 19.1839C140.269 19.3073 142.304 19.4309 144.321 19.5531L144.334 12.8697H147.846C147.955 8.75365 154.288 6.71536 154.288 6.71536V5.54688H138.748Z" fill="#156F82"/>
<path d="M41.6904 12.0028C42.7867 8.81589 44.7818 6.88254 47.4297 5.20215H41.6904V12.0028Z" fill="#AAB028"/>
<path d="M131.97 12.0028C133.066 8.81589 135.062 6.88254 137.697 5.20215H131.97V12.0028Z" fill="#AAB028"/>
<path d="M204.365 12.0028C205.462 8.81589 207.457 6.88254 210.092 5.20215H204.365V12.0028Z" fill="#AAB028"/>
<path d="M92.0039 16.9439V15.4692H96.5735C97.2382 13.1356 98.5439 11.4289 100.896 10.1484H84.5402C82.1879 11.4289 80.5129 13.1356 79.8477 15.4692H86.1291V16.9024C86.5846 16.9003 87.0409 16.8988 87.4987 16.8988C88.8988 16.8988 90.4072 16.9147 92.0039 16.9439Z" fill="#188688"/>
<path d="M104.432 17.3451C104.829 16.2248 105.85 15.3786 106.844 15.3218L109.702 15.1351C109.702 15.1351 112.19 10.575 112.498 10.0547C111.894 10.0547 107.349 10.1478 105.231 10.1478C104.086 10.1478 102.989 10.5082 102.029 11.1748C100.686 12.108 99.5286 13.3216 99.0112 14.4553C98.6909 15.1751 98.5928 15.5086 98.5928 16.282V17.12C100.465 17.1836 102.415 17.2592 104.432 17.3451Z" fill="#188688"/>
<path d="M121.823 18.2211C121.871 17.8823 121.922 17.5068 121.981 17.0821C122.153 15.8017 123.163 15.4156 123.717 15.4418H124.752V18.3871C126.708 18.4991 128.677 18.6139 130.651 18.7306V10.1748C127.991 10.1616 125.33 10.1478 122.671 10.1348C120.281 10.5351 117.005 11.5351 116.475 14.5086C116.26 15.7423 116.166 16.8541 116.06 17.907C117.956 18.0074 119.879 18.1123 121.823 18.2211Z" fill="#188688"/>
<path d="M156.43 20.2169L156.443 15.8835C156.443 13.6566 159.201 13.3762 160.15 15.2169C160.384 15.6568 160.47 16.1766 160.458 16.7099C160.458 17.3771 160.347 17.95 160.125 18.4171C159.904 18.8837 159.559 19.6303 159.09 19.8707C158.844 20.0038 158.561 20.0838 158.24 20.1369C157.92 20.1905 157.563 20.2169 157.194 20.2169H156.43ZM150.543 19.9305C155.366 20.2202 160.017 20.494 164.34 20.7312L164.374 20.6704C164.67 20.1101 164.891 19.1236 165.027 18.5102C165.162 17.91 165.224 17.3103 165.224 16.7099C165.224 15.2301 164.928 13.9896 164.362 12.9633C163.795 11.95 162.97 11.163 161.899 10.6295C161.308 10.3365 160.642 10.1229 159.916 9.98929C159.189 9.85621 159.041 9.82941 158.191 9.78941C154.607 9.62939 150.543 12.1499 150.543 16.7367V19.9305Z" fill="#188688"/>
<path d="M59.1917 5.20215H53.4398V18.9681C55.2399 18.7295 57.1628 18.5034 59.1917 18.2946V5.20215ZM47.7919 19.8273C47.7408 19.3187 47.7149 18.7673 47.7129 18.1765L47.6759 6.13542C45.7303 7.32231 42.7249 10.4025 41.7764 14.6695V19.3634C41.7764 19.975 41.7951 20.5567 41.8312 21.1099C43.4151 20.6751 45.4239 20.2416 47.7919 19.8273Z" fill="#188688"/>
<path d="M210.583 17.3742C210.492 13.4324 212.676 10.7766 215.881 10.9224C217.494 10.9892 218.566 11.3753 219.28 11.8024L220.462 6.32176C219.194 5.68198 217.433 5.26848 215.819 5.20167C208.491 4.88138 204.254 10.4289 204.291 17.7493C204.292 18.1685 204.306 18.5774 204.331 18.9771C206.385 18.5034 208.474 17.9679 210.583 17.3742Z" fill="#188688"/>
<path d="M176.395 21.1628V21.3205C178.398 21.4013 180.241 21.4631 181.9 21.5027V17.456C181.9 15.9357 181.654 14.642 181.137 13.5889C180.619 12.5356 179.807 11.7354 178.698 11.1752C177.59 10.6285 176.148 10.3486 174.387 10.3486C173.02 10.3486 171.751 10.5218 170.569 10.8421C169.387 11.162 168.303 11.6018 167.281 12.1621L168.992 15.9089C169.411 15.6689 169.855 15.469 170.348 15.2954C170.84 15.1223 171.345 15.0025 171.863 14.9092C172.38 14.8156 172.872 14.762 173.365 14.762C174.301 14.762 175.04 14.9487 175.582 15.3354C176.112 15.7226 176.382 16.3492 176.395 17.2157V17.4161L173.661 17.536C172.786 17.5756 171.961 17.6823 171.185 17.8691C170.421 18.0558 169.719 18.3226 169.104 18.6693C168.205 19.1758 167.49 19.8424 166.985 20.6562C166.943 20.7249 166.903 20.7952 166.864 20.8665C169.59 21.0109 172.163 21.138 174.546 21.2424L176.395 21.1628Z" fill="#188688"/>
<path d="M201.595 19.578V10.0163H195.781V17.7502H190.682V10.0163C190.251 10.0163 189.82 10.0031 189.389 9.98951C187.443 9.96311 184.869 11.9765 184.869 14.1902V21.5468C189.756 21.5308 195.477 20.8446 201.595 19.578Z" fill="#188688"/>
<path d="M78.3935 17.0421V10.0163H72.5677V17.2805C74.4674 17.1835 76.4126 17.1035 78.3935 17.0421ZM67.4812 17.5861V10.0163C67.0501 10.0163 66.607 10.0031 66.1759 9.98951C64.2298 9.96311 61.668 11.9765 61.668 14.1902V18.0541C63.5328 17.8824 65.4739 17.7252 67.4812 17.5861Z" fill="#188688"/>
<path d="M138.748 5.54688C138.74 5.55021 138.73 5.55301 138.722 5.55634C134.812 7.18113 132.458 12.8697 132.458 12.8697L132.732 12.9088H138.221V16.4773L138.227 19.1839C140.269 19.3073 142.304 19.4309 144.321 19.5531L144.334 12.8697H147.846C147.955 8.75365 154.288 6.71536 154.288 6.71536V5.54688H138.748Z" fill="#188688"/>
</svg>
