<svg width="16" height="14" viewBox="0 0 16 14" fill="none" xmlns="http://www.w3.org/2000/svg">
<path d="M13.25 6.5C14.0975 6.5 14.87 6.2075 15.5 5.735V12.5C15.5 13.325 14.825 14 14 14H2C1.175 14 0.5 13.325 0.5 12.5V3.5C0.5 2.675 1.175 2 2 2H9.575C9.53 2.24 9.5 2.495 9.5 2.75C9.5 3.86 9.9875 4.8425 10.7525 5.5325L8 7.25L2.975 4.1075C2.9041 4.0584 2.82397 4.0242 2.73947 4.00696C2.65496 3.98973 2.56784 3.98981 2.48337 4.00722C2.3989 4.02463 2.31885 4.059 2.24804 4.10825C2.17724 4.15749 2.11717 4.22059 2.07146 4.29373C2.02575 4.36686 1.99536 4.44851 1.98212 4.53373C1.96888 4.61895 1.97307 4.70597 1.99443 4.78953C2.0158 4.87308 2.05389 4.95144 2.10642 5.01984C2.15894 5.08825 2.2248 5.14528 2.3 5.1875L7.6025 8.5025C7.8425 8.6525 8.1575 8.6525 8.3975 8.5025L11.975 6.2675C12.38 6.41 12.8 6.5 13.25 6.5ZM11 2.75C11 3.995 12.005 5 13.25 5C14.495 5 15.5 3.995 15.5 2.75C15.5 1.505 14.495 0.5 13.25 0.5C12.005 0.5 11 1.505 11 2.75Z" fill="white"/>
</svg>
