<svg width="12" height="14" viewBox="0 0 12 14" fill="none" xmlns="http://www.w3.org/2000/svg">
<path d="M6 13.7497C5.05271 12.9417 4.17465 12.0558 3.375 11.1015C2.175 9.6682 0.750001 7.5337 0.750001 5.4997C0.74948 4.46092 1.05713 3.44534 1.63402 2.58147C2.21091 1.71761 3.0311 1.0443 3.9908 0.646751C4.9505 0.249205 6.00656 0.145295 7.02534 0.348172C8.04411 0.551048 8.97981 1.05159 9.714 1.78645C10.2028 2.2731 10.5903 2.85186 10.8539 3.48923C11.1176 4.12661 11.2522 4.80995 11.25 5.4997C11.25 7.5337 9.825 9.6682 8.625 11.1015C7.82535 12.0558 6.94729 12.9417 6 13.7497ZM6 3.2497C5.40326 3.2497 4.83097 3.48676 4.40901 3.90871C3.98705 4.33067 3.75 4.90297 3.75 5.4997C3.75 6.09644 3.98705 6.66874 4.40901 7.09069C4.83097 7.51265 5.40326 7.7497 6 7.7497C6.59674 7.7497 7.16903 7.51265 7.59099 7.09069C8.01295 6.66874 8.25 6.09644 8.25 5.4997C8.25 4.90297 8.01295 4.33067 7.59099 3.90871C7.16903 3.48676 6.59674 3.2497 6 3.2497Z" fill="white"/>
</svg>
