<svg width="16" height="16" viewBox="0 0 16 16" fill="none" xmlns="http://www.w3.org/2000/svg">
<path d="M14.7504 6.3125H13.6254C13.6242 5.26858 13.209 4.26775 12.4709 3.52959C11.7327 2.79142 10.7319 2.3762 9.68794 2.375V1.25C11.0301 1.25149 12.3169 1.78534 13.266 2.73442C14.2151 3.6835 14.7489 4.9703 14.7504 6.3125ZM10.4378 11.0836L11.6978 9.82363C11.8664 9.65493 12.0809 9.53943 12.3145 9.49144C12.5482 9.44344 12.7908 9.46507 13.0123 9.55363L14.5468 10.1679C14.773 10.2584 14.9669 10.4146 15.1034 10.6163C15.24 10.818 15.3129 11.056 15.3129 11.2996V14.0902C15.3133 14.2561 15.2799 14.4202 15.2146 14.5727C15.1493 14.7252 15.0537 14.8628 14.9334 14.977C14.8131 15.0912 14.6708 15.1797 14.5152 15.237C14.3595 15.2943 14.1938 15.3192 14.0282 15.3103C3.27206 14.6409 1.09969 5.53063 0.696375 2.042C0.676842 1.87145 0.693637 1.6987 0.745658 1.5351C0.797679 1.37151 0.883745 1.22078 0.998197 1.09283C1.11265 0.964882 1.25289 0.862615 1.4097 0.792755C1.56651 0.722895 1.73633 0.687025 1.908 0.687505H4.64906C4.89266 0.687497 5.13068 0.760479 5.33241 0.897036C5.53414 1.03359 5.69032 1.22746 5.78081 1.45363L6.3945 2.98813C6.48306 3.20963 6.50469 3.45224 6.45669 3.68591C6.4087 3.91958 6.2932 4.13403 6.1245 4.30269L4.8645 5.56269C4.8645 5.56269 5.56313 10.4744 10.4378 11.0836Z" fill="white"/>
</svg>
