<svg width="80" height="66" viewBox="0 0 80 66" fill="none" xmlns="http://www.w3.org/2000/svg">
<path d="M15.0033 30C15.7064 30 16.3574 30.1302 16.9564 30.3906C17.5553 30.651 18.0762 31.0026 18.5189 31.4453C18.9616 31.888 19.3262 32.4219 19.6126 33.0469C19.8991 33.6719 20.0293 34.3229 20.0033 35C20.0033 35.7031 19.873 36.3542 19.6126 36.9531C19.3522 37.5521 19.0007 38.0729 18.5579 38.5156C18.1152 38.9583 17.5814 39.3229 16.9564 39.6094C16.3314 39.8958 15.6803 40.026 15.0033 40C14.3001 40 13.6491 39.8698 13.0501 39.6094C12.4512 39.349 11.9303 38.9974 11.4876 38.5547C11.0449 38.112 10.6803 37.5781 10.3939 36.9531C10.1074 36.3281 9.97721 35.6771 10.0033 35C10.0033 34.2969 10.1335 33.6458 10.3939 33.0469C10.6543 32.4479 11.0059 31.9271 11.4486 31.4844C11.8913 31.0417 12.4251 30.6771 13.0501 30.3906C13.6751 30.1042 14.3262 29.974 15.0033 30ZM65.0033 30C65.7064 30 66.3574 30.1302 66.9564 30.3906C67.5553 30.651 68.0762 31.0026 68.5189 31.4453C68.9616 31.888 69.3262 32.4219 69.6126 33.0469C69.8991 33.6719 70.0293 34.3229 70.0033 35C70.0033 35.7031 69.873 36.3542 69.6126 36.9531C69.3522 37.5521 69.0007 38.0729 68.5579 38.5156C68.1152 38.9583 67.5814 39.3229 66.9564 39.6094C66.3314 39.8958 65.6803 40.026 65.0033 40C64.3001 40 63.6491 39.8698 63.0501 39.6094C62.4512 39.349 61.9303 38.9974 61.4876 38.5547C61.0449 38.112 60.6803 37.5781 60.3939 36.9531C60.1074 36.3281 59.9772 35.6771 60.0033 35C60.0033 34.2969 60.1335 33.6458 60.3939 33.0469C60.6543 32.4479 61.0059 31.9271 61.4486 31.4844C61.8913 31.0417 62.4251 30.6771 63.0501 30.3906C63.6751 30.1042 64.3262 29.974 65.0033 30ZM78.5579 20L75.9798 22.5391C76.0319 22.6693 76.1621 23.0599 76.3704 23.7109C76.5788 24.362 76.8262 25.1302 77.1126 26.0156C77.3991 26.901 77.7246 27.8516 78.0892 28.8672C78.4538 29.8828 78.7663 30.8073 79.0267 31.6406C79.2871 32.474 79.5215 33.1771 79.7298 33.75C79.9382 34.3229 80.0293 34.6094 80.0033 34.6094V60C80.0033 60.7031 79.873 61.3542 79.6126 61.9531C79.3522 62.5521 79.0007 63.0729 78.5579 63.5156C78.1152 63.9583 77.5814 64.3229 76.9564 64.6094C76.3314 64.8958 75.6803 65.026 75.0033 65H70.0033C69.3001 65 68.6491 64.8698 68.0501 64.6094C67.4512 64.349 66.9303 63.9974 66.4876 63.5547C66.0449 63.112 65.6803 62.5781 65.3939 61.9531C65.1074 61.3281 64.9772 60.6771 65.0033 60H15.0033C15.0033 60.7031 14.873 61.3542 14.6126 61.9531C14.3522 62.5521 14.0007 63.0729 13.5579 63.5156C13.1152 63.9583 12.5814 64.3229 11.9564 64.6094C11.3314 64.8958 10.6803 65.026 10.0033 65H5.00326C4.30013 65 3.64909 64.8698 3.05013 64.6094C2.45117 64.349 1.93034 63.9974 1.48763 63.5547C1.04492 63.112 0.680339 62.5781 0.39388 61.9531C0.107422 61.3281 -0.0227865 60.6771 0.00325521 60V34.6094L0.276693 33.7891L0.979818 31.6797L1.91732 28.8672C2.25586 27.8516 2.56836 26.901 2.85482 26.0156C3.14128 25.1302 3.40169 24.362 3.63607 23.7109C3.87044 23.0599 4.00065 22.6693 4.02669 22.5391L1.44857 20H0.00325521V15H3.55794L5.78451 17.2656L8.67513 8.55469C9.0918 7.27865 9.69076 6.11979 10.472 5.07812C11.2533 4.03646 12.1777 3.13802 13.2454 2.38281C14.3132 1.6276 15.446 1.04167 16.6439 0.625C17.8418 0.208333 19.1439 0 20.5501 0H59.4564C60.8105 0 62.0996 0.208333 63.3236 0.625C64.5475 1.04167 65.6934 1.61458 66.7611 2.34375C67.8288 3.07292 68.7402 3.97135 69.4954 5.03906C70.2507 6.10677 70.8626 7.27865 71.3314 8.55469L74.222 17.2656L76.4486 15H80.0033V20H78.5579ZM20.5501 5C18.9095 5 17.4512 5.46875 16.1751 6.40625C14.8991 7.34375 13.9876 8.58073 13.4408 10.1172L10.1204 20H69.8861L66.5658 10.1172C66.0449 8.58073 65.1465 7.34375 63.8704 6.40625C62.5944 5.46875 61.123 5 59.4564 5H20.5501ZM55.0033 53.0859L50.9408 45H29.0658L25.0033 53.0859V55H55.0033V53.0859ZM75.0033 55V35.3906L74.7689 34.6875C74.6126 34.2188 74.4173 33.6068 74.1829 32.8516C73.9486 32.0964 73.6751 31.3021 73.3626 30.4688C73.0501 29.6354 72.7767 28.8151 72.5423 28.0078C72.3079 27.2005 72.0866 26.5365 71.8783 26.0156C71.6699 25.4948 71.5527 25.1562 71.5267 25H8.47982C8.42773 25.1302 8.31055 25.4688 8.12826 26.0156C7.94596 26.5625 7.72461 27.2135 7.46419 27.9688C7.20378 28.724 6.93034 29.5443 6.64388 30.4297C6.35742 31.3151 6.09701 32.1224 5.86263 32.8516C5.62826 33.5807 5.41992 34.1797 5.23763 34.6484C5.05534 35.1172 4.97721 35.3646 5.00326 35.3906V55H20.0033V51.9141L25.9408 40H54.0658L60.0033 51.9141V55H75.0033Z" fill="#25A539"/>
</svg>
